<svg xmlns="http://www.w3.org/2000/svg" viewBox="0 0 57.19 9.46"><defs><style>.a{fill:#2b5e8c;}</style></defs><title>analyze-copy</title><path class="a" d="M6.78,9.46l-.7-2H2.89L2.25,9.37H0L3.33.05H5.86l3.23,9Zm-2.3-7-1,3.23h2.1Z"/><path class="a" d="M15.9,9.37,12.24,3.82V9.37H10.11V.09h2.23l3.42,5.19V.09h2.14V9.37Z"/><path class="a" d="M25.69,9.46l-.7-2H21.8l-.65,1.92H18.91L22.24.05h2.53l3.23,9Zm-2.3-7-1,3.23h2.1Z"/><path class="a" d="M29,9.37V.09h2.3V7.38h2.85l.31,2Z"/><path class="a" d="M39,6V9.37H36.72V6L33.52.34,36,0l2,3.86L40,.09h2.41Z"/><path class="a" d="M42.74,9.37V7.7l4.33-5.78H43.21L42.93.09h7V1.76L45.55,7.54H49.7L50,9.37Z"/><path class="a" d="M51.29,9.37V.09h5.78V1.94H53.54V3.63h2.69l.3,1.9h-3v2h3.64V9.37Z"/></svg>