<svg xmlns="http://www.w3.org/2000/svg" xmlns:xlink="http://www.w3.org/1999/xlink" viewBox="0 0 75.86 75.86"><defs><style>.a{fill:#fff;}.b{fill:#61a7d5;}.c{fill:#fdfdfc;}.d{fill:#ddddd5;}.e{fill:#d6eaf5;}.f{fill:#fcd5c9;}.g{fill:#fdebc4;}.h{fill:#d3d2c8;}.i{fill:#dcdbd3;}.j{fill:#faf8f0;}.k{mask:url(#a);}.l{fill:#feeecb;}</style><mask id="a" x="20.59" y="18.67" width="31.56" height="34.39" maskUnits="userSpaceOnUse"><circle class="a" cx="28.23" cy="30.76" r="7.64" transform="translate(-8.44 50.72) rotate(-76.01)"/></mask></defs><title>analyze</title><circle class="a" cx="37.93" cy="37.93" r="37.93"/><path class="b" d="M37.93,2.72A35.21,35.21,0,1,1,2.72,37.93,35.25,35.25,0,0,1,37.93,2.72m0-2.72A37.93,37.93,0,1,0,75.86,37.93,37.93,37.93,0,0,0,37.93,0Z"/><rect class="a" x="27.47" y="21.69" width="32.08" height="36.56"/><rect class="c" x="26.41" y="21.7" width="32.47" height="36.32"/><rect class="a" x="27.62" y="17.65" width="32.47" height="4.81"/><rect class="d" x="26.41" y="17.65" width="32.47" height="4.72"/><path class="b" d="M59.56,22.61H27.81a.34.34,0,0,1,0-.68H59.56a.34.34,0,0,1,0,.68Z"/><path class="b" d="M37,50.22a.34.34,0,0,1-.21-.61L41,46.44a.33.33,0,0,1,.3-.06l4.92,1.39,3.61-3.06a.34.34,0,1,1,.44.52L46.5,48.41a.34.34,0,0,1-.31.07l-4.93-1.4-4,3.07A.34.34,0,0,1,37,50.22Z"/><rect class="e" x="51.19" y="32.04" width="3.13" height="9.62" transform="translate(105.5 73.7) rotate(-180)"/><rect class="e" x="48.06" y="35.65" width="3.13" height="6.01" transform="translate(99.24 77.31) rotate(-180)"/><rect class="e" x="44.93" y="38.05" width="3.13" height="3.61" transform="translate(92.99 79.71) rotate(-180)"/><path class="b" d="M55,42H51.91a.34.34,0,0,1-.34-.34V32a.34.34,0,0,1,.34-.34H55a.34.34,0,0,1,.34.34v9.62A.34.34,0,0,1,55,42Zm-2.79-.68h2.45V32.38H52.25Z"/><path class="b" d="M51.91,42H48.78a.34.34,0,0,1-.34-.34v-6a.34.34,0,0,1,.34-.34h3.13a.34.34,0,0,1,.34.34v6A.34.34,0,0,1,51.91,42Zm-2.79-.68h2.45V36H49.12Z"/><path class="b" d="M48.78,42H45.65a.34.34,0,0,1-.34-.34V38.05a.34.34,0,0,1,.34-.34h3.13a.34.34,0,0,1,.34.34v3.61A.34.34,0,0,1,48.78,42ZM46,41.32h2.45V38.39H46Z"/><path class="b" d="M59.84,58.35H27.38A.34.34,0,0,1,27,58V17.61a.34.34,0,0,1,.34-.34H59.84a.34.34,0,0,1,.34.34V58A.34.34,0,0,1,59.84,58.35Zm-32.13-.68H59.5V18H27.72Z"/><rect class="f" x="29.78" y="25.31" width="25.97" height="3.85"/><path class="b" d="M56.72,29.49h-26a.34.34,0,0,1-.34-.34V25.31a.34.34,0,0,1,.34-.34h26a.34.34,0,0,1,.34.34v3.85A.34.34,0,0,1,56.72,29.49Zm-25.63-.68H56.38V25.65H31.08Z"/><rect class="g" x="29.78" y="52.48" width="11.3" height="1.92"/><path class="b" d="M42,54.75H30.74a.34.34,0,0,1-.34-.34V52.48a.34.34,0,0,1,.34-.34H42a.34.34,0,0,1,.34.34v1.92A.34.34,0,0,1,42,54.75Zm-11-.68H41.71V52.82H31.08Z"/><rect class="g" x="44.21" y="52.48" width="11.3" height="1.92"/><path class="b" d="M56.48,54.75H45.17a.34.34,0,0,1-.34-.34V52.48a.34.34,0,0,1,.34-.34h11.3a.34.34,0,0,1,.34.34v1.92A.34.34,0,0,1,56.48,54.75Zm-11-.68H56.14V52.82H45.51Z"/><path class="e" d="M35.56,30.58a5.77,5.77,0,0,1,4.66,2.36l-4.66,3.31Z"/><path class="e" d="M35.61,36.36l1.79,5.5a5.78,5.78,0,1,1-3.57-11,5.49,5.49,0,0,1,1.79-.28Z"/><path class="b" d="M36.57,42.48a6.12,6.12,0,0,1-1.9-11.94,5.84,5.84,0,0,1,1.89-.3.34.34,0,0,1,.34.34v5.72l1.77,5.44a.34.34,0,0,1,0,.26.33.33,0,0,1-.2.17A6.08,6.08,0,0,1,36.57,42.48Zm-.34-11.55a5.09,5.09,0,0,0-1.34.26,5.44,5.44,0,0,0,3,10.44l-1.68-5.16a.32.32,0,0,1,0-.11Z"/><path class="b" d="M38.35,42.2A.34.34,0,0,1,38,42l-1.79-5.5a.34.34,0,1,1,.65-.21l1.68,5.16a5.11,5.11,0,0,0,1.19-.66,5.44,5.44,0,0,0,1.2-7.6.34.34,0,1,1,.55-.4,6.13,6.13,0,0,1-1.35,8.55,5.87,5.87,0,0,1-1.71.87Z"/><path class="b" d="M36.56,36.6a.34.34,0,0,1-.34-.34V30.58a.34.34,0,0,1,.34-.34,6.15,6.15,0,0,1,4.93,2.5.34.34,0,0,1-.08.48l-4.66,3.31A.34.34,0,0,1,36.56,36.6Zm.35-5.66V35.6l3.83-2.72A5.47,5.47,0,0,0,36.91,30.93Z"/><rect class="a" x="8.81" y="38.13" width="18.65" height="3.99" rx="2" ry="2" transform="translate(-21.4 20.74) rotate(-39.56)"/><rect class="h" x="7.59" y="38.02" width="18.65" height="3.99" rx="2" ry="2" transform="translate(-21.61 19.94) rotate(-39.56)"/><path class="b" d="M11.8,47.07a2.34,2.34,0,0,1-1.49-4.14l.74-.61a.34.34,0,1,1,.43.53l-.74.61a1.65,1.65,0,0,0-.22,2.33,1.7,1.7,0,0,0,2.33.22l11.3-9.34a1.65,1.65,0,0,0,.22-2.33,1.7,1.7,0,0,0-2.33-.22l-9.67,8a.34.34,0,1,1-.43-.53l9.67-8a2.4,2.4,0,0,1,3.29.31,2.34,2.34,0,0,1-.31,3.29l-11.3,9.34A2.34,2.34,0,0,1,11.8,47.07Z"/><circle class="i" cx="28.46" cy="30.76" r="10.79" transform="translate(-8.27 50.94) rotate(-76.01)"/><path class="b" d="M28.46,41.89a11.13,11.13,0,1,1,10.8-8.44A11.08,11.08,0,0,1,28.46,41.89Zm0-21.57a10.45,10.45,0,1,0,2.52.31A10.47,10.47,0,0,0,28.46,20.31Z"/><path class="b" d="M36.71,36.13a.34.34,0,0,1-.29-.52A9.31,9.31,0,0,0,37.5,33a.34.34,0,1,1,.66.16A10,10,0,0,1,37,36,.34.34,0,0,1,36.71,36.13Zm-17-9.05a.35.35,0,0,1-.14,0,.34.34,0,0,1-.17-.45A10.07,10.07,0,0,1,26.15,21a.34.34,0,0,1,.16.66A9.38,9.38,0,0,0,20,26.87.34.34,0,0,1,19.68,27.07Zm14.82-3.52a.34.34,0,0,1-.21-.07,9.24,9.24,0,0,0-2.43-1.4.34.34,0,0,1,.25-.63A9.94,9.94,0,0,1,34.71,23a.34.34,0,0,1-.21.61Zm-4.21-1.94h-.07a9.38,9.38,0,0,0-1.12-.15.34.34,0,0,1-.32-.36.33.33,0,0,1,.36-.32,10.16,10.16,0,0,1,1.2.16.34.34,0,0,1-.07.67Z"/><path class="b" d="M28.46,38.74a8.06,8.06,0,0,1-1.94-.24,8,8,0,1,1,9.68-5.82,8.16,8.16,0,0,1-.3,1,.34.34,0,1,1-.63-.25,7.36,7.36,0,0,0,.49-2.64,7.29,7.29,0,0,0-5.54-7.08,7.38,7.38,0,0,0-1.77-.22A7.29,7.29,0,0,0,21.37,29a7.38,7.38,0,0,0-.22,1.77,7.29,7.29,0,0,0,5.54,7.08,7.38,7.38,0,0,0,8.1-3.44.34.34,0,0,1,.46-.12.34.34,0,0,1,.13.46A8,8,0,0,1,28.46,38.74Z"/><circle class="j" cx="28.46" cy="30.76" r="7.64" transform="translate(-8.27 50.94) rotate(-76.01)"/><g class="k"><path class="c" d="M23.1,42.68V19.43c0-.23.13-.42.3-.42H42c.16,0,.3.19.3.42V42.68"/><rect class="f" x="27.9" y="20.58" width="24.24" height="8.19"/><path class="b" d="M44.64,29.11H29.53a.34.34,0,0,1-.34-.34V20.58a.34.34,0,0,1,.34-.34H44.64a.34.34,0,0,1,.34.34v8.19A.34.34,0,0,1,44.64,29.11Zm-14.77-.68H44.3V20.92H29.87Z"/><path class="e" d="M36.48,31.92a10.38,10.38,0,0,1,8.38,4.25l-8.4,6Z"/><path class="e" d="M36.58,42.32l3.21,9.89a10.4,10.4,0,1,1-6.43-19.78,9.89,9.89,0,0,1,3.21-.51Z"/><path class="b" d="M38.28,53.07a10.74,10.74,0,0,1-3.31-21,10.27,10.27,0,0,1,3.32-.53.34.34,0,0,1,.34.34V42.27l3.2,9.84a.34.34,0,0,1-.22.43A10.76,10.76,0,0,1,38.28,53.07ZM38,32.26a9.45,9.45,0,0,0-2.77.49,10,10,0,0,0-6.92,8.71h0A10.06,10.06,0,0,0,41.08,52L38,42.43a.32.32,0,0,1,0-.11Zm-10,9.17h0Z"/><path class="b" d="M41.51,52.55a.34.34,0,0,1-.32-.24L38,42.43a.34.34,0,1,1,.65-.21l3.11,9.56a9.43,9.43,0,0,0,2.48-1.32,10.07,10.07,0,0,0,2.23-14.05A.34.34,0,0,1,47,36a10.75,10.75,0,0,1-2.38,15,10.3,10.3,0,0,1-3,1.52Z"/><path class="b" d="M38.29,42.47a.34.34,0,0,1-.34-.34V31.92a.34.34,0,0,1,.34-.34A10.79,10.79,0,0,1,47,36a.34.34,0,0,1-.08.48L44.83,37.9h0l-6.34,4.5A.34.34,0,0,1,38.29,42.47Zm.35-10.2v9.21l7.57-5.38A10.11,10.11,0,0,0,38.64,32.26Zm6,5.36h0Z"/><path class="b" d="M43.2,40.72a.34.34,0,0,1-.34-.34V19.43a.16.16,0,0,0,0-.1l-18.48,0s0,0,0,.08V37.34a.34.34,0,0,1-.68,0V19.43a.7.7,0,0,1,.64-.76H42.9a.7.7,0,0,1,.64.76V40.38A.34.34,0,0,1,43.2,40.72Z"/></g><path class="b" d="M28.46,38.74a8.06,8.06,0,0,1-1.94-.24,8,8,0,1,1,9.68-5.82,8.16,8.16,0,0,1-.3,1,.34.34,0,1,1-.63-.25,7.36,7.36,0,0,0,.49-2.64,7.29,7.29,0,0,0-5.54-7.08,7.38,7.38,0,0,0-1.77-.22A7.29,7.29,0,0,0,21.37,29a7.38,7.38,0,0,0-.22,1.77,7.29,7.29,0,0,0,5.54,7.08,7.38,7.38,0,0,0,8.1-3.44.34.34,0,0,1,.46-.12.34.34,0,0,1,.13.46A8,8,0,0,1,28.46,38.74Z"/><path class="b" d="M14.57,44.95a.34.34,0,0,1-.26-.13l-.94-1.16a.34.34,0,1,1,.53-.43l.94,1.16a.34.34,0,0,1-.26.55Zm-1.68-2.07a.34.34,0,0,1-.26-.12L12,42a.34.34,0,0,1,.53-.43l.6.74a.34.34,0,0,1-.26.55Z"/><circle class="l" cx="37.04" cy="49.89" r="1.15"/><path class="b" d="M37,51.38a1.49,1.49,0,1,1,1.5-1.5A1.5,1.5,0,0,1,37,51.38Zm0-2.31a.81.81,0,1,0,.82.81A.82.82,0,0,0,37,49.07Z"/><circle class="l" cx="41.18" cy="46.71" r="1.15"/><path class="b" d="M41.18,48.21a1.49,1.49,0,1,1,1.49-1.49A1.5,1.5,0,0,1,41.18,48.21Zm0-2.31a.81.81,0,1,0,.81.82A.82.82,0,0,0,41.18,45.9Z"/><circle class="l" cx="46.28" cy="48.15" r="1.15"/><path class="b" d="M46.28,49.65a1.49,1.49,0,1,1,1.49-1.49A1.5,1.5,0,0,1,46.28,49.65Zm0-2.31a.81.81,0,1,0,.81.81A.82.82,0,0,0,46.28,47.34Z"/><circle class="l" cx="50.03" cy="44.98" r="1.15"/><path class="b" d="M50,46.47A1.49,1.49,0,1,1,51.52,45,1.5,1.5,0,0,1,50,46.47Zm0-2.31a.81.81,0,1,0,.81.81A.82.82,0,0,0,50,44.16Z"/></svg>