<svg xmlns="http://www.w3.org/2000/svg" xmlns:xlink="http://www.w3.org/1999/xlink" viewBox="0 0 336.17 280.14"><defs><style>.a{fill:none;}.b,.c{fill:#d7e4f5;}.c{opacity:0.2;}.d{fill:#dbebf5;}.e{opacity:0.9;}.f{fill:url(#a);}</style><pattern id="a" width="271.21" height="279.55" patternTransform="matrix(0.56, 0, 0, -0.56, 840.4, -586.46)" patternUnits="userSpaceOnUse" viewBox="0 0 271.21 279.55"><rect class="a" width="271.21" height="279.55"/><path class="b" d="M21.17,56.9H9.81A.81.81,0,0,1,9,56.1c0-1-1.18-2.79-3.34-4.23a.81.81,0,0,1-.21-1.15,9.93,9.93,0,0,1,4.39-3.27,5,5,0,0,1-1.61-3.67V41.06a5,5,0,0,1,10.09,0v2.72a5,5,0,0,1-1.61,3.67C19.79,48.64,22,51.2,22,53v3.08A.81.81,0,0,1,21.17,56.9ZM10.5,55.27h9.85V53c0-1.06-2-3.5-5.16-4.32a.81.81,0,0,1-.61-.79v-.48a.82.82,0,0,1,.4-.7,3.38,3.38,0,0,0,1.7-2.93V41.06a3.41,3.41,0,0,0-6.83,0v2.72a3.38,3.38,0,0,0,1.7,2.93.82.82,0,0,1,.4.7v.48a.81.81,0,0,1-.61.79,8.57,8.57,0,0,0-4,2.37A8.59,8.59,0,0,1,10.5,55.27Z"/><path class="b" d="M9.81,61H-10.72a.81.81,0,0,1-.81-.81v-4c0-2.34,3-5.69,7.09-7.12a6.21,6.21,0,0,1-2.31-4.86V40.63A6.31,6.31,0,0,1-.45,34.32a6.31,6.31,0,0,1,6.31,6.31v3.53A6.22,6.22,0,0,1,3.54,49c4.12,1.43,7.09,4.78,7.09,7.12v4A.81.81,0,0,1,9.81,61ZM-9.9,59.33H9V56.14c0-1.65-2.89-4.83-6.89-5.85a.81.81,0,0,1-.61-.79v-.62a.81.81,0,0,1,.4-.7,4.63,4.63,0,0,0,2.32-4V40.63A4.68,4.68,0,0,0-.45,35.95a4.68,4.68,0,0,0-4.68,4.68v3.53a4.63,4.63,0,0,0,2.32,4,.81.81,0,0,1,.4.7v.62a.81.81,0,0,1-.61.79c-4,1-6.88,4.21-6.88,5.85Z"/><path class="b" d="M31.19,12.27a1.17,1.17,0,0,1-.68-.22L22.27,6.12H17.12A1.16,1.16,0,0,1,16,5V-3a4.54,4.54,0,0,0-4.54-4.54H3.11A1.16,1.16,0,0,1,1.95-8.65v-1.91a5,5,0,0,1,5-5H27.4a5,5,0,0,1,5,5V11.11a1.16,1.16,0,0,1-1.16,1.16ZM18.28,3.8h4.36a1.16,1.16,0,0,1,.68.22L30,8.84v-19.4a2.63,2.63,0,0,0-2.63-2.63H6.91a2.63,2.63,0,0,0-2.63,2.63v.74h7.14A6.87,6.87,0,0,1,18.28-3Z"/><path class="b" d="M6.54,29.06a1.28,1.28,0,0,1-1-.44l-7.15-8.3h-14.5a7,7,0,0,1-7-7V-3a7,7,0,0,1,7-7H11.42a7,7,0,0,1,7,7v16.3a7,7,0,0,1-7,7H8.86L7.81,28a1.28,1.28,0,0,1-1.27,1.1ZM-16.07-7.37A4.42,4.42,0,0,0-20.49-3v16.3a4.42,4.42,0,0,0,4.42,4.42H-1a1.28,1.28,0,0,1,1,.44l5.69,6.6.82-5.94a1.28,1.28,0,0,1,1.27-1.1h3.67a4.42,4.42,0,0,0,4.42-4.42V-3a4.42,4.42,0,0,0-4.42-4.42Z"/><path class="b" d="M39.57,34.77l-.28-2a49.18,49.18,0,0,1,10.05-.41c1.86.07,4,.14,6.91.12,2.37,0,6.67-.82,8.12-2.94a2.86,2.86,0,0,0,.19-2.8,1,1,0,0,1,.68-1.33,2.56,2.56,0,0,0,1.77-2,1.62,1.62,0,0,0-.68-1.69,1,1,0,0,1,.34-1.81A2.13,2.13,0,0,0,68,17.69c0-.88-.37-1.65-.82-1.76a1,1,0,0,1-.1-1.94,1.59,1.59,0,0,0,1.07-1.06,2.09,2.09,0,0,0-.25-1.75c-1.33-1.84-6.41-1.33-8.85-1.09-1.72.17-2.88-.17-3.54-1-1.07-1.42-.23-3.5.5-5.33.17-.43.33-.83.45-1.19,1.05-3.17.62-6-.33-7a1.54,1.54,0,0,0-1.66-.39c-.33.17-.81,1.76-1.13,2.81-.78,2.59-1.85,6.13-4.73,8.8A20.08,20.08,0,0,0,46,11.22c-1.29,2.57-2.63,5.22-4.16,6.31a9.73,9.73,0,0,1-1.64.93l-.83-1.84a7.77,7.77,0,0,0,1.3-.73c1.12-.8,2.4-3.34,3.53-5.58a20,20,0,0,1,3.07-5C49.74,3,50.68-.1,51.43-2.6c.67-2.2,1.14-3.79,2.54-4.18a3.55,3.55,0,0,1,3.66,1c1.66,1.76,2,5.38.78,9-.13.4-.31.84-.49,1.31-.4,1-1.14,2.86-.76,3.37.14.18.66.34,1.71.24,3.25-.32,8.68-.86,10.7,1.92a4.12,4.12,0,0,1,.54,3.55A3.59,3.59,0,0,1,69.23,15a4.46,4.46,0,0,1,.83,2.67,4.37,4.37,0,0,1-1.51,3.53A3.7,3.7,0,0,1,69,23.77,4.61,4.61,0,0,1,66.73,27a4.67,4.67,0,0,1-.7,3.72c-2.05,3-7.29,3.8-9.78,3.82-3,0-5.12-.06-7-.13A46.67,46.67,0,0,0,39.57,34.77Z"/><path class="b" d="M39.7,36H25.48a1,1,0,0,1-1-1V15.64a1,1,0,0,1,1-1H39.7a1,1,0,0,1,1,1V35A1,1,0,0,1,39.7,36ZM26.49,34H38.69V16.65H26.49Z"/><line class="b" x1="28.72" y1="31.07" x2="36.5" y2="31.07"/><path class="b" d="M36.5,32.08H28.72a1,1,0,1,1,0-2H36.5a1,1,0,0,1,0,2Z"/><path class="b" d="M94.21,49.16a21.65,21.65,0,0,1-4.44-1.27l3-7.41a13.67,13.67,0,0,0,2.8.8Z"/><path class="b" d="M80.89,41l-.36-.31-.28-.39a21.65,21.65,0,0,1-2.24-4l7.37-3.12a13.57,13.57,0,0,0,1.16,2.17l.12.11.34.59-3.47,2Z"/><path class="b" d="M84.52,25.61l-7.88-1.36a21.69,21.69,0,0,1,1.27-4.45l7.41,3A13.52,13.52,0,0,0,84.52,25.61Z"/><path class="b" d="M110.37,22.62A13.72,13.72,0,0,0,109,20.1l-.08-.12,6.66-4.44-3.23,2.15,3.16-2.25a21.78,21.78,0,0,1,2.26,4Z"/><path class="b" d="M90.07,16.83l-4.65-6.51h0a21.73,21.73,0,0,1,4-2.25l3.13,7.36A13.69,13.69,0,0,0,90.07,16.83Z"/><path class="b" d="M103,15.35a13.65,13.65,0,0,0-2.8-.8l1.35-7.88A21.69,21.69,0,0,1,106,7.93Z"/><path class="b" d="M126.26,58.71a1,1,0,0,1-.65-.24l-8.11-6.92-5.71,6.73a1,1,0,0,1-1.68-.25L96.53,26.76a1,1,0,0,1,1.16-1.37l33,8.42a1,1,0,0,1,.52,1.62l-5.72,6.73,8.12,6.92a1,1,0,0,1,.11,1.41L127,58.36a1,1,0,0,1-.68.35Zm-8.87-9.57a1,1,0,0,1,.65.24l8.11,6.92L131.53,50,123.42,43a1,1,0,0,1-.11-1.41l5.33-6.27L99.18,27.83,111.3,55.76l5.32-6.27a1,1,0,0,1,.68-.35Z"/><path class="b" d="M70.13,52.5A5.54,5.54,0,1,1,75.67,47,5.55,5.55,0,0,1,70.13,52.5Zm0-8.71A3.17,3.17,0,1,0,73.3,47,3.17,3.17,0,0,0,70.13,43.8Z"/><path class="b" d="M33.31,78.64a5.54,5.54,0,1,1,5.54-5.54A5.55,5.55,0,0,1,33.31,78.64Zm0-8.71a3.17,3.17,0,1,0,3.17,3.17A3.17,3.17,0,0,0,33.31,69.93Z"/><path class="b" d="M45.18,62a5.54,5.54,0,1,1,5.54-5.54A5.55,5.55,0,0,1,45.18,62Zm0-8.71a3.17,3.17,0,1,0,3.17,3.17A3.17,3.17,0,0,0,45.18,53.3Z"/><path class="b" d="M41.8,59.17,34.85,69a4.34,4.34,0,0,1,1.9,1.42l7-9.92A4.33,4.33,0,0,1,41.8,59.17Z"/><path class="b" d="M56.27,61.82l-6.93-4.1a4.33,4.33,0,0,1-1.28,2l7.12,4.22A4.33,4.33,0,0,1,56.27,61.82Z"/><path class="b" d="M67,50,60.83,60.68a4.33,4.33,0,0,1,2,1.35L69,51.16A4.33,4.33,0,0,1,67,50Z"/><path class="b" d="M59.44,70.32A5.54,5.54,0,1,1,65,64.78,5.55,5.55,0,0,1,59.44,70.32Zm0-8.71a3.17,3.17,0,1,0,3.17,3.17A3.17,3.17,0,0,0,59.44,61.62Z"/><path class="b" d="M85.62,64.43a2.28,2.28,0,1,1,2.28-2.28A2.28,2.28,0,0,1,85.62,64.43Zm0-3.75a1.48,1.48,0,1,0,1.48,1.48A1.48,1.48,0,0,0,85.62,60.67Z"/><path class="b" d="M71.53,3.42l-1.06-.91.89-1,1.06.91Zm1.78-2.07L72.25.44l.89-1L74.2.32Z"/><path class="b" d="M69.57,5.32h-.14a.7.7,0,0,1-.53-.47L68.65,4l.68-.22.25-.29.18.15L70,3.62,70.1,4l.54.47-.54.63A.7.7,0,0,1,69.57,5.32Z"/><path class="b" d="M68.21,2.69l-.44-1.36L69.1.89l.44,1.36ZM67.33,0l-.44-1.36,1.33-.43.44,1.36Z"/><path class="b" d="M93.41,70l-.05-.1h-.12v-.22L93,69.27l.44-.22a.42.42,0,0,1,.41,0,.42.42,0,0,1,.19.36v.49h-.47Z"/><path class="b" d="M94,73.16h-.83v-.81H94Zm0-1.62h-.83v-.81h.83Z"/><path class="b" d="M93.58,74.88a.41.41,0,0,1-.22-.06l-.42-.26.23-.36V74h.14l.07-.12.19.12H94v.49a.42.42,0,0,1-.42.41Z"/><path class="b" d="M92.22,74.09l-.72-.46.45-.7.72.46Zm-1.44-.91-.72-.46.45-.7.72.46Z"/><path class="b" d="M89.34,72.27,88.92,72a.42.42,0,0,1,0-.73l.44-.22.19.38.19.12-.08.12.06.13-.21.1Z"/><path class="b" d="M90.5,71.45l-.37-.75.73-.36.37.75ZM92,70.73,91.58,70l.73-.36.37.75Z"/><path class="b" d="M118.7,3l-.05-.1h-.12V2.71l-.21-.42.44-.22a.42.42,0,0,1,.6.38v.49h-.47Z"/><path class="b" d="M119.31,6.19h-.83V5.36h.83Zm0-1.62h-.83V3.74h.83Z"/><path class="b" d="M118.87,7.9a.41.41,0,0,1-.22-.06l-.42-.26.23-.36V7h.14l.07-.12.19.12h.43v.49a.42.42,0,0,1-.22.36A.41.41,0,0,1,118.87,7.9Z"/><path class="b" d="M117.51,7.11l-.72-.46.45-.7.72.46Zm-1.44-.91-.72-.46.45-.7.72.46Z"/><path class="b" d="M114.63,5.29,114.22,5a.42.42,0,0,1,0-.73l.44-.22.19.38.19.12L115,4.7l.06.13-.21.1Z"/><path class="b" d="M115.79,4.47l-.37-.75.73-.36.37.75Zm1.46-.72L116.88,3l.73-.36.37.75Z"/><path class="b" d="M101.25,55a.5.5,0,0,1-.5-.5V53a.5.5,0,0,1,1,0v1.5A.5.5,0,0,1,101.25,55Z"/><path class="b" d="M101.25,62.27a.5.5,0,0,1-.5-.5V57.54a.5.5,0,0,1,1,0v4.23A.5.5,0,0,1,101.25,62.27Z"/><path class="b" d="M101.25,74.34a.5.5,0,0,1-.5-.5V69.62a.5.5,0,0,1,1,0v4.23A.5.5,0,0,1,101.25,74.34Zm0-7.24a.5.5,0,0,1-.5-.5V64.79a.5.5,0,0,1,1,0V66.6A.5.5,0,0,1,101.25,67.1Z"/><path class="b" d="M101.25,78.86a.5.5,0,0,1-.5-.5v-1.5a.5.5,0,0,1,1,0v1.5A.5.5,0,0,1,101.25,78.86Z"/><path class="b" d="M52.82,44.86h0l-2.23-.4a.19.19,0,0,1-.14-.09.2.2,0,0,1,0-.15l.4-2.24a.21.21,0,0,1,.24-.16l2.23.4a.25.25,0,0,1,.14.08.22.22,0,0,1,0,.16L53,44.7a.22.22,0,0,1-.08.13A.27.27,0,0,1,52.82,44.86Zm-2-.77,1.83.33L53,42.59l-1.83-.33Z"/><path class="b" d="M55.77,64.3H23.4a.59.59,0,1,0,0,1.19H55.77Z"/><path class="b" d="M76.83,64.3H63.77v1.19H76.83a.59.59,0,0,0,0-1.19Z"/><path class="b" d="M260.49,56.9H249.13a.81.81,0,0,1-.81-.81V53c0-1.8,2.19-4.36,5.28-5.55A5,5,0,0,1,252,43.78V41.06a5,5,0,0,1,10.09,0v2.72a5,5,0,0,1-1.61,3.67,9.92,9.92,0,0,1,4.39,3.27.82.82,0,0,1-.21,1.15c-2.16,1.44-3.32,3.22-3.34,4.23A.81.81,0,0,1,260.49,56.9Zm-10.55-1.63h9.85A8.59,8.59,0,0,1,263,51a8.57,8.57,0,0,0-4-2.37.81.81,0,0,1-.61-.79v-.48a.82.82,0,0,1,.4-.7,3.38,3.38,0,0,0,1.7-2.93V41.06a3.41,3.41,0,0,0-6.83,0v2.72a3.38,3.38,0,0,0,1.7,2.93.82.82,0,0,1,.4.7v.48a.81.81,0,0,1-.61.79c-3.2.82-5.16,3.27-5.16,4.32Z"/><path class="b" d="M281,61H260.49a.81.81,0,0,1-.81-.81v-4c0-2.34,3-5.69,7.09-7.12a6.21,6.21,0,0,1-2.31-4.86V40.63a6.31,6.31,0,0,1,12.61,0v3.53A6.22,6.22,0,0,1,274.75,49c4.12,1.43,7.09,4.78,7.09,7.12v4A.81.81,0,0,1,281,61ZM261.3,59.33h18.9V56.14c0-1.65-2.89-4.83-6.89-5.85a.81.81,0,0,1-.61-.79v-.62a.81.81,0,0,1,.4-.7,4.63,4.63,0,0,0,2.32-4V40.63a4.68,4.68,0,0,0-9.36,0v3.53a4.63,4.63,0,0,0,2.32,4,.81.81,0,0,1,.4.7v.62a.81.81,0,0,1-.61.79c-4,1-6.88,4.21-6.88,5.85Z"/><path class="b" d="M236.12,38.11a1.28,1.28,0,0,1-1.28-1.28V13a5.46,5.46,0,0,1,5.45-5.45h9.14a1.28,1.28,0,0,1,1.28,1.28v4.5a4.42,4.42,0,0,0,4.42,4.42H267A1.28,1.28,0,0,1,268.26,19V25.9a5.46,5.46,0,0,1-5.45,5.45H245.93l-9.06,6.52A1.28,1.28,0,0,1,236.12,38.11Zm4.17-28A2.9,2.9,0,0,0,237.4,13V34.33l7.37-5.3a1.28,1.28,0,0,1,.75-.24h17.29a2.9,2.9,0,0,0,2.89-2.89V20.32H255.13a7,7,0,0,1-7-7V10.12Z"/><path class="b" d="M277.75,29.06a1.28,1.28,0,0,1-1-.44l-7.15-8.3h-14.5a7,7,0,0,1-7-7V-3a7,7,0,0,1,7-7h27.49a7,7,0,0,1,7,7v16.3a7,7,0,0,1-7,7h-2.56L279,28a1.28,1.28,0,0,1-1.27,1.1ZM255.13-7.37A4.42,4.42,0,0,0,250.71-3v16.3a4.42,4.42,0,0,0,4.42,4.42h15.08a1.28,1.28,0,0,1,1,.44l5.69,6.6.82-5.94a1.28,1.28,0,0,1,1.27-1.1h3.67A4.42,4.42,0,0,0,287,13.35V-3a4.42,4.42,0,0,0-4.42-4.42Z"/><path class="b" d="M227.22,43.7H213.77a1.2,1.2,0,0,1-1.2-1.2V29.05a1.2,1.2,0,0,1,1.2-1.19h13.45a1.2,1.2,0,0,1,1.2,1.19V42.5A1.2,1.2,0,0,1,227.22,43.7ZM213.77,28.58a.47.47,0,0,0-.47.47V42.5a.48.48,0,0,0,.47.47h13.45a.48.48,0,0,0,.47-.47V29.05a.47.47,0,0,0-.47-.47Z"/><path class="b" d="M215.86,41h2.06V34.34h-2.06Zm1-9.94a1.2,1.2,0,1,0,1.2,1.2,1.2,1.2,0,0,0-1.2-1.2"/><path class="b" d="M219.22,34.34h2v.91h0a2.17,2.17,0,0,1,2-1.07c2.09,0,2.47,1.38,2.47,3.16V41h-2.06V37.75c0-.77,0-1.76-1.07-1.76s-1.24.84-1.24,1.71V41h-2.06Z"/><path class="b" d="M219,60.72H205.5a1.2,1.2,0,0,1-1.19-1.19V46.08a1.2,1.2,0,0,1,1.19-1.2H219a1.2,1.2,0,0,1,1.2,1.2V59.53A1.2,1.2,0,0,1,219,60.72ZM205.5,45.6a.47.47,0,0,0-.47.47V59.53a.47.47,0,0,0,.47.47H219a.47.47,0,0,0,.47-.47V46.08a.48.48,0,0,0-.47-.47Z"/><path class="b" d="M217.28,49.67a4.14,4.14,0,0,1-1.19.33,2.08,2.08,0,0,0,.91-1.15,4.17,4.17,0,0,1-1.32.5,2.08,2.08,0,0,0-3.53,1.89,5.89,5.89,0,0,1-4.28-2.17,2.08,2.08,0,0,0,.64,2.77,2.06,2.06,0,0,1-.94-.26v0a2.07,2.07,0,0,0,1.66,2,2.08,2.08,0,0,1-.55.07,2.05,2.05,0,0,1-.39,0,2.08,2.08,0,0,0,1.94,1.44,4.16,4.16,0,0,1-2.58.89l-.49,0a5.9,5.9,0,0,0,9.08-5c0-.09,0-.18,0-.27A4.22,4.22,0,0,0,217.28,49.67Z"/><path class="b" d="M236.16,60.61H222.71a1.19,1.19,0,0,1-1.19-1.19V46.07a1.19,1.19,0,0,1,1.19-1.19h13.45a1.19,1.19,0,0,1,1.19,1.19V59.42A1.19,1.19,0,0,1,236.16,60.61Zm-13.45-15a.47.47,0,0,0-.47.47V59.42a.47.47,0,0,0,.47.47h13.45a.47.47,0,0,0,.47-.47V46.07a.47.47,0,0,0-.47-.47Z"/><path class="b" d="M232.31,60.36V54.55h2l.29-2.26h-2.26V50.84c0-.66.18-1.1,1.13-1.1h1.21v-2a16.26,16.26,0,0,0-1.76-.09,2.74,2.74,0,0,0-2.94,3v1.67h-2v2.26h2v5.81Z"/><path class="b" d="M143.55,27.15h-.05a12.26,12.26,0,1,1,.05,0Zm.06-23.06a10.87,10.87,0,0,0-10.88,10.79,10.82,10.82,0,0,0,10.78,10.87l0,.7v-.7A10.86,10.86,0,0,0,154.39,15,10.82,10.82,0,0,0,143.61,4.09Z"/><path class="b" d="M147.54,33.51a1,1,0,0,1-.23-2.07A17,17,0,0,0,149.71-.9a1,1,0,0,1-.6-1.36,1,1,0,0,1,1.36-.6,19.05,19.05,0,0,1-2.7,36.34Z"/><polygon class="b" points="148.6 27.46 140.77 32.68 149.2 36.85 148.6 27.46"/><path class="b" d="M137.27,32.75a1.05,1.05,0,0,1-.38-.07A19.15,19.15,0,0,1,125,12,19,19,0,0,1,139.65-3.64a1,1,0,0,1,1.25.79,1,1,0,0,1-.79,1.25,16.87,16.87,0,0,0-13,13.9,17,17,0,0,0,10.55,18.42,1,1,0,0,1-.38,2Z"/><polygon class="b" points="138.82 2.38 146.65 -2.83 138.22 -7.01 138.82 2.38"/><path class="b" d="M143.55,27.15h0A13.23,13.23,0,0,1,136.63,25a.69.69,0,0,1-.3-.58V21.9c0-1.46,1.71-3.49,4.25-4.45a4.39,4.39,0,0,1-1.2-3.1V12.12a4.17,4.17,0,0,1,7.13-2.92,4.13,4.13,0,0,1,1.21,3v2.23a4.51,4.51,0,0,1-1.19,3.12c2.54,1,4.18,3,4.17,4.45v2.53a.7.7,0,0,1-.3.57A13.26,13.26,0,0,1,143.55,27.15ZM137.73,24a11.94,11.94,0,0,0,5.77,1.7l0,.7v-.7a11.91,11.91,0,0,0,5.75-1.66V22c0-1-1.57-2.74-4.05-3.39a.7.7,0,0,1-.52-.68v-.39a.7.7,0,0,1,.35-.6,2.87,2.87,0,0,0,1.25-2.51V12.15a2.77,2.77,0,0,0-5.54,0v2.23a2.83,2.83,0,0,0,1.26,2.48.7.7,0,0,1,.34.6v.39a.7.7,0,0,1-.53.67c-2.47.62-4.12,2.46-4.13,3.4Z"/><path class="b" d="M229.61,13.13H208.83a2.31,2.31,0,0,1-2.31-2.31v-13a2.31,2.31,0,0,1,2.31-2.31h20.78a2.31,2.31,0,0,1,2.31,2.31v13A2.31,2.31,0,0,1,229.61,13.13ZM208.83-3.31a1.16,1.16,0,0,0-1.15,1.15v13A1.16,1.16,0,0,0,208.83,12h20.78a1.16,1.16,0,0,0,1.15-1.15v-13a1.16,1.16,0,0,0-1.15-1.15Z"/><path class="b" d="M221.43,11.83a7,7,0,1,1,7-7A7,7,0,0,1,221.43,11.83Zm0-12.79a5.82,5.82,0,1,0,5.82,5.82A5.83,5.83,0,0,0,221.43-1Z"/><path class="b" d="M221.43,9.67a4.81,4.81,0,1,1,4.81-4.81A4.82,4.82,0,0,1,221.43,9.67Zm0-9a4.24,4.24,0,1,0,4.24,4.24A4.24,4.24,0,0,0,221.43.62Z"/><path class="b" d="M210.9,1.3a1.73,1.73,0,0,1-1.72-1.72,1.73,1.73,0,0,1,1.72-1.72,1.73,1.73,0,0,1,1.72,1.72A1.73,1.73,0,0,1,210.9,1.3Zm0-2.87a1.15,1.15,0,0,0-1.14,1.15A1.15,1.15,0,0,0,210.9.72,1.15,1.15,0,0,0,212-.42,1.15,1.15,0,0,0,210.9-1.57Z"/><path class="b" d="M217.51,10.19h-8a.29.29,0,1,1,0-.58h8a.29.29,0,1,1,0,.58Z"/><path class="b" d="M213.93,3h-4.47a.29.29,0,1,1,0-.58h4.47a.29.29,0,1,1,0,.58Z"/><path class="b" d="M230.06,3h-2.23a.29.29,0,1,1,0-.58h2.23a.29.29,0,1,1,0,.58Z"/><path class="b" d="M230.06,10.25H226a.29.29,0,1,1,0-.58h4.11a.29.29,0,1,1,0,.58Z"/><path class="b" d="M180.57,72H170a1,1,0,0,1-1-1V66.38h2V70h8.56V66.38h2V71A1,1,0,0,1,180.57,72Z"/><path class="b" d="M184.48,74.85H166.1a1,1,0,0,1-1-1V71a1,1,0,0,1,1-1h18.38a1,1,0,0,1,1,1v2.86A1,1,0,0,1,184.48,74.85Zm-17.38-2h16.38V72H167.1Z"/><path class="b" d="M193,67.38H156.57A3.54,3.54,0,0,1,153,63.84v-25a3.54,3.54,0,0,1,3.54-3.54H193a3.54,3.54,0,0,1,3.54,3.54v25A3.54,3.54,0,0,1,193,67.38ZM156.57,37.32A1.54,1.54,0,0,0,155,38.86v25a1.54,1.54,0,0,0,1.54,1.54H193a1.54,1.54,0,0,0,1.54-1.54v-25A1.54,1.54,0,0,0,193,37.32Z"/><path class="b" d="M191.73,60.53H157.84a.5.5,0,0,1-.5-.5V40.13a.5.5,0,0,1,.5-.5h33.89a.5.5,0,0,1,.5.5V60A.5.5,0,0,1,191.73,60.53Zm-33.39-1h32.89V40.63H158.34Z"/><path class="b" d="M176.24,63.1a1,1,0,0,1-1,1h0a1,1,0,0,1-1-1h0a1,1,0,0,1,1-1h0a1,1,0,0,1,1,1Z"/><path class="b" d="M182.64,21.82l.77,8.48a.55.55,0,0,0,.55.5H184a.55.55,0,0,0,.5-.6l-.76-8.38Z"/><path class="b" d="M193.79,1.54a.55.55,0,0,0-.15-.08A19.77,19.77,0,0,0,188.88.28a2.71,2.71,0,0,1-1.19.28A2.71,2.71,0,0,1,186.3.17a11.56,11.56,0,0,0-4.1.82.55.55,0,0,0-.32.5v.33c.12,0,.26.09.37.15V6.59l.73,5.7V1.86c1.09-.38,4.89-1.4,10.19.6,2,1.61,2.95,3.27,2.82,4.94-.25,3.19-4.3,5.54-4.34,5.56a.55.55,0,0,0-.28.44l-1,16.82a.55.55,0,0,0,1.1.07l1-16.53c1-.62,4.38-3,4.63-6.27C197.25,5.41,196.14,3.41,193.79,1.54Z"/><path class="b" d="M191.83,10.57a.55.55,0,0,1-.54-.63L192,5.23a.55.55,0,0,1,.87-.36,3,3,0,0,1,1.45,2.55c-.08,1.76-2.09,3-2.17,3.07A.55.55,0,0,1,191.83,10.57Zm1.07-4.11-.32,2.19a2.24,2.24,0,0,0,.61-1.28A1.45,1.45,0,0,0,192.9,6.46Z"/><path class="b" d="M187.69,1.66A3.74,3.74,0,0,1,183.91-2a3.74,3.74,0,0,1,3.77-3.69A3.74,3.74,0,0,1,191.46-2,3.74,3.74,0,0,1,187.69,1.66Zm0-6.29A2.64,2.64,0,0,0,185-2,2.64,2.64,0,0,0,187.69.56,2.64,2.64,0,0,0,190.36-2,2.64,2.64,0,0,0,187.69-4.63Z"/><path class="b" d="M192.45,13.47l-1.84-8.28a.55.55,0,0,0-.54-.43h-5.61a.55.55,0,0,0-.53.42l-1.23,4.92.38,3,1.81-7.23h4.74l1.73,7.79-.08,5.5h-7.43l.14,1.1h7.83a.55.55,0,0,0,.55-.54l.08-6.1A.55.55,0,0,0,192.45,13.47Z"/><path class="b" d="M185.18,5.86a.55.55,0,0,1-.55-.55V1.11a.55.55,0,1,1,1.1,0v4.2A.55.55,0,0,1,185.18,5.86Z"/><path class="b" d="M189.49,5.86a.55.55,0,0,1-.55-.55v-4a.55.55,0,0,1,1.1,0v4A.55.55,0,0,1,189.49,5.86Z"/><path class="b" d="M190.07,14.81h-4.54a.55.55,0,0,1,0-1.1h4.54a.55.55,0,0,1,0,1.1Z"/><line class="b" x1="187.17" y1="23.84" x2="187.45" y2="30.25"/><path class="b" d="M187.45,30.8a.55.55,0,0,1-.55-.53l-.27-6.41a.55.55,0,0,1,1.1,0l.27,6.41a.55.55,0,0,1-.53.57Z"/><path class="b" d="M177.69,30.9a.55.55,0,0,1-.54-.49l-.9-8a.55.55,0,0,1,.55-.61h4.38a.55.55,0,0,1,.55.58l-.45,8a.54.54,0,0,1-.58.52.55.55,0,0,1-.52-.58l.41-7.37h-3.19l.83,7.34a.55.55,0,0,1-.48.61Z"/><path class="b" d="M179.22,1a3.62,3.62,0,0,1-3.53-3.69,3.62,3.62,0,0,1,3.53-3.69,3.62,3.62,0,0,1,3.53,3.69A3.62,3.62,0,0,1,179.22,1Zm0-6.28a2.52,2.52,0,0,0-2.44,2.59,2.52,2.52,0,0,0,2.44,2.59,2.52,2.52,0,0,0,2.43-2.59A2.52,2.52,0,0,0,179.22-5.28Z"/><path class="b" d="M184.83,22.92H171.7a.55.55,0,0,1-.52-.72l3.57-10.91c-1.2-1.16-3.95-4-3.49-5.67.54-1.91,3.45-4.11,4.7-4.81a6.59,6.59,0,0,1,2.95-.58,8.26,8.26,0,0,1,4.2,1,.55.55,0,0,1,.24.45V6.52l2,15.79a.55.55,0,0,1-.54.62Zm-12.37-1.1H184.2L182.25,6.59V2a8,8,0,0,0-3.34-.63,5.43,5.43,0,0,0-2.41.43c-1.5.85-3.81,2.84-4.18,4.16-.22.78,1.61,3.11,3.43,4.81a.55.55,0,0,1,.15.57Z"/><path class="b" d="M176.11,9.47a.55.55,0,0,1-.38-.15c-.33-.31-2-1.95-1.89-3.13s1.74-2.45,2.06-2.7a.55.55,0,0,1,.87.31l.57,2.48a.54.54,0,0,1,0,.27l-.69,2.51a.55.55,0,0,1-.38.38Zm-.21-4.53a3.11,3.11,0,0,0-1,1.36,3.22,3.22,0,0,0,.91,1.55l.4-1.45Z"/><path class="b" d="M169.7,12.39a2.85,2.85,0,0,1-3-2.73,3,3,0,0,1,5.91,0A2.85,2.85,0,0,1,169.7,12.39Zm0-4.37a1.76,1.76,0,0,0-1.86,1.64,1.87,1.87,0,0,0,3.71,0A1.76,1.76,0,0,0,169.7,8Z"/><path class="b" d="M172.46,21.82l.24-.73a.55.55,0,0,0-.54.44l-1.69,8.6a.55.55,0,0,0,.43.64H171a.55.55,0,0,0,.54-.44l1.6-8.16h1a.52.52,0,0,0,.51-.37Z"/><path class="b" d="M172.2,13.55l1,6,.73-2.24-.71-4.17a.55.55,0,0,0-.25-.38c-1.58-1-5.46-.81-6.61,0a.54.54,0,0,0-.22.35l-1.43,8.45a.55.55,0,0,0,.54.64h1l1.6,8.16a.55.55,0,0,0,1.08-.21l-1.69-8.6a.55.55,0,0,0-.54-.44h-.78l1.28-7.56A8.35,8.35,0,0,1,172.2,13.55Z"/><path class="b" d="M198.58,12.39a2.85,2.85,0,0,1-3-2.73,3,3,0,0,1,5.91,0A2.85,2.85,0,0,1,198.58,12.39Zm0-4.37a1.76,1.76,0,0,0-1.86,1.64,1.87,1.87,0,0,0,3.72,0A1.76,1.76,0,0,0,198.58,8Z"/><path class="b" d="M199.88,30.8h-.11a.55.55,0,0,1-.43-.64l1.69-8.6a.55.55,0,0,1,.54-.44h.78l-1.28-7.54a8.35,8.35,0,0,0-5,0l-1.28,7.56h.78a.55.55,0,0,1,.54.44l1.69,8.6a.55.55,0,0,1-1.08.21l-1.6-8.16h-1a.55.55,0,0,1-.54-.64L195,13.1a.54.54,0,0,1,.22-.35c1.15-.84,5-1,6.61,0a.55.55,0,0,1,.25.38l1.43,8.45a.55.55,0,0,1-.54.64h-1l-1.6,8.16A.55.55,0,0,1,199.88,30.8Z"/><path class="b" d="M204.48,66.88H202a.5.5,0,0,1,0-1h2.5a.5.5,0,0,1,0,1Z"/><path class="b" d="M212.11,66.88h-5.45a.5.5,0,0,1,0-1h5.45a.5.5,0,0,1,0,1Z"/><path class="b" d="M226.81,66.88h-5.45a.5.5,0,0,1,0-1h5.45a.5.5,0,0,1,0,1Zm-7.62,0h-2.72a.5.5,0,0,1,0-1h2.72a.5.5,0,0,1,0,1Z"/><path class="b" d="M233.66,66.88h-2.5a.5.5,0,0,1,0-1h2.5a.5.5,0,0,1,0,1Z"/><path class="b" d="M239.07,2.53H239a.49.49,0,0,1-.4-.33l-2.4-6.55a.53.53,0,0,1,.08-.5.51.51,0,0,1,.46-.18l6.92.87a.52.52,0,0,1,.41.32.5.5,0,0,1-.07.5l-4.52,5.69A.53.53,0,0,1,239.07,2.53Zm-1.64-6.46L239.23,1l3.4-4.26Z"/><path class="b" d="M142.79,59.8h-.06a.4.4,0,0,1-.31-.25l-1.86-5.08a.4.4,0,0,1,.07-.39.38.38,0,0,1,.35-.14l5.37.68a.37.37,0,0,1,.31.24.39.39,0,0,1,0,.39l-3.51,4.41A.41.41,0,0,1,142.79,59.8Zm-1.26-5,1.39,3.82,2.63-3.31Z"/><path class="b" d="M210.91,23a.37.37,0,0,1-.18,0,.36.36,0,0,1-.21-.24l-1.46-4.3a.38.38,0,0,1,0-.31.43.43,0,0,1,.23-.21l4.31-1.46a.42.42,0,0,1,.31,0,.39.39,0,0,1,.21.24L215.6,21a.37.37,0,0,1,0,.31.41.41,0,0,1-.24.21L211,23A.27.27,0,0,1,210.91,23ZM210,18.53l1.2,3.52,3.52-1.2-1.2-3.52Z"/><path class="b" d="M204.32,39.29h0l-2.24-.4a.19.19,0,0,1-.17-.24l.4-2.24a.21.21,0,0,1,.24-.16l2.24.4a.21.21,0,0,1,.16.24l-.4,2.24a.19.19,0,0,1-.08.13A.28.28,0,0,1,204.32,39.29Zm-2-.78,1.83.33.33-1.83-1.83-.33Z"/><path class="b" d="M142.12,44.13h0l-2.24-.4a.19.19,0,0,1-.13-.09.2.2,0,0,1,0-.15l.41-2.24a.21.21,0,0,1,.24-.16l2.23.4a.18.18,0,0,1,.13.09.16.16,0,0,1,0,.15L142.31,44a.16.16,0,0,1-.08.14A.2.2,0,0,1,142.12,44.13Zm-2-.77,1.83.33.32-1.83-1.83-.33Z"/><path class="b" d="M124.89,196.67H113.53a.81.81,0,0,1-.81-.81v-3.08c0-1.8,2.19-4.36,5.28-5.55a5,5,0,0,1-1.61-3.67v-2.72a5,5,0,0,1,10.09,0v2.72a5,5,0,0,1-1.61,3.67,9.92,9.92,0,0,1,4.39,3.27.82.82,0,0,1-.21,1.15c-2.16,1.44-3.32,3.22-3.34,4.23A.81.81,0,0,1,124.89,196.67ZM114.34,195h9.85a8.59,8.59,0,0,1,3.22-4.22,8.57,8.57,0,0,0-4-2.37.81.81,0,0,1-.61-.79v-.48a.82.82,0,0,1,.4-.7,3.38,3.38,0,0,0,1.7-2.93v-2.72a3.41,3.41,0,0,0-6.83,0v2.72a3.38,3.38,0,0,0,1.7,2.93.82.82,0,0,1,.4.7v.48a.81.81,0,0,1-.61.79c-3.2.82-5.16,3.27-5.16,4.32Z"/><path class="b" d="M156.77,196.67H145.41a.81.81,0,0,1-.81-.79c0-1-1.18-2.79-3.34-4.23a.81.81,0,0,1-.21-1.15,9.93,9.93,0,0,1,4.39-3.27,5,5,0,0,1-1.61-3.67v-2.72a5,5,0,0,1,10.09,0v2.72a5,5,0,0,1-1.61,3.67c3.09,1.19,5.28,3.74,5.28,5.55v3.08A.81.81,0,0,1,156.77,196.67ZM146.11,195H156v-2.27c0-1.06-2-3.5-5.16-4.32a.81.81,0,0,1-.61-.79v-.48a.82.82,0,0,1,.4-.7,3.38,3.38,0,0,0,1.7-2.93v-2.72a3.41,3.41,0,0,0-6.83,0v2.72a3.38,3.38,0,0,0,1.7,2.93.82.82,0,0,1,.4.7v.48a.81.81,0,0,1-.61.79,8.57,8.57,0,0,0-4,2.37A8.59,8.59,0,0,1,146.11,195Z"/><path class="b" d="M145.41,200.73H124.89a.81.81,0,0,1-.81-.81v-4c0-2.34,3-5.69,7.09-7.12a6.21,6.21,0,0,1-2.31-4.86V180.4a6.31,6.31,0,0,1,12.61,0v3.53a6.22,6.22,0,0,1-2.31,4.86c4.12,1.43,7.09,4.78,7.09,7.12v4A.81.81,0,0,1,145.41,200.73ZM125.7,199.1h18.9v-3.19c0-1.65-2.89-4.83-6.89-5.85a.81.81,0,0,1-.61-.79v-.62a.81.81,0,0,1,.4-.7,4.63,4.63,0,0,0,2.32-4V180.4a4.68,4.68,0,0,0-9.36,0v3.53a4.63,4.63,0,0,0,2.32,4,.81.81,0,0,1,.4.7v.62a.81.81,0,0,1-.61.79c-4,1-6.88,4.21-6.88,5.85Z"/><path class="b" d="M166.8,152a1.17,1.17,0,0,1-.68-.22l-8.25-5.93h-5.15a1.16,1.16,0,0,1-1.16-1.16v-7.91a4.54,4.54,0,0,0-4.54-4.54h-8.31a1.16,1.16,0,0,1-1.16-1.16v-1.91a5,5,0,0,1,5-5H163a5,5,0,0,1,5,5v21.67A1.16,1.16,0,0,1,166.8,152Zm-12.91-8.47h4.36a1.16,1.16,0,0,1,.68.22l6.71,4.82v-19.4a2.63,2.63,0,0,0-2.63-2.63H142.51a2.63,2.63,0,0,0-2.63,2.63V130H147a6.87,6.87,0,0,1,6.86,6.86Z"/><path class="b" d="M100.51,177.88a1.28,1.28,0,0,1-1.28-1.28V152.79a5.46,5.46,0,0,1,5.45-5.45h9.14a1.28,1.28,0,0,1,1.28,1.28v4.5a4.42,4.42,0,0,0,4.42,4.42h11.85a1.28,1.28,0,0,1,1.28,1.28v6.85a5.46,5.46,0,0,1-5.45,5.45H110.32l-9.06,6.52A1.28,1.28,0,0,1,100.51,177.88Zm4.17-28a2.9,2.9,0,0,0-2.89,2.89V174.1l7.37-5.3a1.28,1.28,0,0,1,.75-.24H127.2a2.9,2.9,0,0,0,2.89-2.89V160.1H119.53a7,7,0,0,1-7-7v-3.22Z"/><path class="b" d="M142.14,168.84a1.28,1.28,0,0,1-1-.44L134,160.1h-14.5a7,7,0,0,1-7-7v-16.3a7,7,0,0,1,7-7H147a7,7,0,0,1,7,7v16.3a7,7,0,0,1-7,7h-2.56l-1.05,7.64a1.28,1.28,0,0,1-1.27,1.1ZM119.53,132.4a4.42,4.42,0,0,0-4.42,4.42v16.3a4.42,4.42,0,0,0,4.42,4.42h15.08a1.28,1.28,0,0,1,1,.44l5.69,6.6.82-5.94a1.28,1.28,0,0,1,1.27-1.1H147a4.42,4.42,0,0,0,4.42-4.42v-16.3A4.42,4.42,0,0,0,147,132.4Z"/><path class="b" d="M175.17,174.54l-.28-2a49.18,49.18,0,0,1,10.05-.41c1.86.07,4,.14,6.91.12,2.37,0,6.67-.82,8.12-2.94a2.86,2.86,0,0,0,.19-2.8,1,1,0,0,1,.68-1.33,2.56,2.56,0,0,0,1.77-2,1.62,1.62,0,0,0-.68-1.69,1,1,0,0,1,.34-1.81,2.13,2.13,0,0,0,1.37-2.24c0-.88-.37-1.65-.82-1.76a1,1,0,0,1-.1-1.94,1.59,1.59,0,0,0,1.07-1.06,2.09,2.09,0,0,0-.25-1.75c-1.33-1.84-6.41-1.33-8.85-1.09-1.72.17-2.88-.17-3.54-1-1.07-1.42-.23-3.5.5-5.33.17-.43.33-.83.45-1.19,1.05-3.17.62-6-.33-7a1.54,1.54,0,0,0-1.66-.39c-.33.17-.81,1.76-1.13,2.81-.78,2.59-1.85,6.13-4.73,8.8A20.08,20.08,0,0,0,181.6,151c-1.29,2.57-2.63,5.22-4.16,6.31a9.73,9.73,0,0,1-1.64.93L175,156.4a7.77,7.77,0,0,0,1.3-.73c1.12-.8,2.4-3.34,3.53-5.58a20,20,0,0,1,3.07-5c2.47-2.29,3.41-5.4,4.16-7.9.67-2.2,1.14-3.79,2.54-4.18a3.55,3.55,0,0,1,3.66,1c1.66,1.76,2,5.38.78,9-.13.4-.31.84-.49,1.31-.4,1-1.14,2.86-.76,3.37.14.18.66.34,1.71.24,3.25-.32,8.68-.86,10.7,1.92a4.12,4.12,0,0,1,.54,3.55,3.59,3.59,0,0,1-.88,1.46,4.46,4.46,0,0,1,.83,2.67,4.37,4.37,0,0,1-1.51,3.53,3.7,3.7,0,0,1,.46,2.57,4.61,4.61,0,0,1-2.27,3.19,4.67,4.67,0,0,1-.7,3.72c-2.05,3-7.29,3.8-9.78,3.82-3,0-5.12-.06-7-.13A46.67,46.67,0,0,0,175.17,174.54Z"/><path class="b" d="M175.3,175.82H161.08a1,1,0,0,1-1-1v-19.4a1,1,0,0,1,1-1H175.3a1,1,0,0,1,1,1v19.4A1,1,0,0,1,175.3,175.82Zm-13.21-2h12.19V156.42H162.1Z"/><line class="b" x1="164.33" y1="170.84" x2="172.11" y2="170.84"/><path class="b" d="M172.11,171.85h-7.78a1,1,0,1,1,0-2h7.78a1,1,0,0,1,0,2Z"/><path class="b" d="M229.81,188.93a21.65,21.65,0,0,1-4.44-1.27l3-7.41a13.67,13.67,0,0,0,2.8.8Z"/><path class="b" d="M216.5,180.81l-.36-.31-.28-.39a21.65,21.65,0,0,1-2.24-4L221,173a13.57,13.57,0,0,0,1.16,2.17l.12.11.34.59-3.47,2Z"/><path class="b" d="M220.12,165.39,212.24,164a21.69,21.69,0,0,1,1.27-4.45l7.41,3A13.52,13.52,0,0,0,220.12,165.39Z"/><path class="b" d="M246,162.4a13.72,13.72,0,0,0-1.41-2.52l-.08-.12,6.66-4.44-3.23,2.15,3.16-2.25a21.78,21.78,0,0,1,2.26,4Z"/><path class="b" d="M225.67,156.6,221,150.09h0a21.73,21.73,0,0,1,4-2.25l3.13,7.36A13.69,13.69,0,0,0,225.67,156.6Z"/><path class="b" d="M238.57,155.12a13.65,13.65,0,0,0-2.8-.8l1.35-7.88a21.69,21.69,0,0,1,4.45,1.26Z"/><path class="b" d="M261.87,198.48a1,1,0,0,1-.65-.24l-8.11-6.92-5.71,6.73a1,1,0,0,1-1.68-.25l-13.58-31.28a1,1,0,0,1,1.16-1.37l33,8.42a1,1,0,0,1,.52,1.62l-5.72,6.73,8.12,6.92a1,1,0,0,1,.11,1.41l-6.68,7.86a1,1,0,0,1-.68.35ZM253,188.92a1,1,0,0,1,.65.24l8.11,6.92,5.38-6.34L259,182.81a1,1,0,0,1-.11-1.41l5.33-6.27-29.45-7.52,12.13,27.93,5.32-6.27a1,1,0,0,1,.68-.35Z"/><path class="b" d="M91.62,183.47H78.16a1.2,1.2,0,0,1-1.2-1.2V168.83a1.2,1.2,0,0,1,1.2-1.19H91.62a1.2,1.2,0,0,1,1.2,1.19v13.45A1.2,1.2,0,0,1,91.62,183.47ZM78.16,168.35a.47.47,0,0,0-.47.47v13.45a.48.48,0,0,0,.47.47H91.62a.48.48,0,0,0,.47-.47V168.83a.47.47,0,0,0-.47-.47Z"/><path class="b" d="M80.26,180.75h2.06v-6.64H80.26Zm1-9.94a1.2,1.2,0,1,0,1.2,1.2,1.2,1.2,0,0,0-1.2-1.2"/><path class="b" d="M83.62,174.11h2V175h0a2.17,2.17,0,0,1,2-1.07c2.09,0,2.47,1.38,2.47,3.16v3.64H88v-3.23c0-.77,0-1.76-1.07-1.76s-1.24.84-1.24,1.71v3.29H83.62Z"/><path class="b" d="M83.35,200.5H69.9a1.2,1.2,0,0,1-1.19-1.19V185.85a1.2,1.2,0,0,1,1.19-1.2H83.35a1.2,1.2,0,0,1,1.2,1.2V199.3A1.2,1.2,0,0,1,83.35,200.5ZM69.9,185.38a.47.47,0,0,0-.47.47V199.3a.47.47,0,0,0,.47.47H83.35a.47.47,0,0,0,.47-.47V185.85a.48.48,0,0,0-.47-.47Z"/><path class="b" d="M81.68,189.44a4.14,4.14,0,0,1-1.19.33,2.08,2.08,0,0,0,.91-1.15,4.17,4.17,0,0,1-1.32.5A2.08,2.08,0,0,0,76.55,191a5.89,5.89,0,0,1-4.28-2.17,2.08,2.08,0,0,0,.64,2.77,2.06,2.06,0,0,1-.94-.26v0a2.07,2.07,0,0,0,1.66,2,2.08,2.08,0,0,1-.55.07,2.05,2.05,0,0,1-.39,0,2.08,2.08,0,0,0,1.94,1.44,4.16,4.16,0,0,1-2.58.89l-.49,0a5.9,5.9,0,0,0,9.08-5c0-.09,0-.18,0-.27A4.22,4.22,0,0,0,81.68,189.44Z"/><path class="b" d="M100.56,200.38H87.11a1.19,1.19,0,0,1-1.19-1.19V185.84a1.19,1.19,0,0,1,1.19-1.19h13.45a1.19,1.19,0,0,1,1.19,1.19v13.35A1.19,1.19,0,0,1,100.56,200.38Zm-13.45-15a.47.47,0,0,0-.47.47v13.35a.47.47,0,0,0,.47.47h13.45a.47.47,0,0,0,.47-.47V185.84a.47.47,0,0,0-.47-.47Z"/><path class="b" d="M96.71,200.14v-5.81h2l.29-2.26H96.71v-1.45c0-.66.18-1.1,1.13-1.1H99v-2a16.26,16.26,0,0,0-1.76-.09,2.74,2.74,0,0,0-2.94,3v1.67h-2v2.26h2v5.81Z"/><path class="b" d="M8,166.92H7.9a12.23,12.23,0,1,1,8.75-20.84,12.13,12.13,0,0,1,3.54,8.66A12.26,12.26,0,0,1,8,166.92ZM8,143.87A10.87,10.87,0,0,0-2.87,154.65,10.82,10.82,0,0,0,7.9,165.52l0,.7v-.7a10.86,10.86,0,0,0,10.84-10.79A10.82,10.82,0,0,0,8,143.87Z"/><path class="b" d="M11.93,173.28a1,1,0,0,1-.23-2.07,16.87,16.87,0,0,0,13-13.9,17,17,0,0,0-10.6-18.44,1,1,0,1,1,.76-2,19.14,19.14,0,0,1,11.91,20.72,19,19,0,0,1-14.61,15.62Z"/><polygon class="b" points="12.99 167.24 5.17 172.45 13.6 176.62 12.99 167.24"/><path class="b" d="M1.67,172.52a1.05,1.05,0,0,1-.38-.07,19.15,19.15,0,0,1-11.86-20.7A19,19,0,0,1,4,136.14a1,1,0,1,1,.46,2,16.87,16.87,0,0,0-13,13.9A17,17,0,0,0,2.05,170.5a1,1,0,0,1-.38,2Z"/><polygon class="b" points="3.22 142.15 11.05 136.94 2.62 132.77 3.22 142.15"/><path class="b" d="M7.94,166.92h0A13.23,13.23,0,0,1,1,164.77a.69.69,0,0,1-.3-.58v-2.53c0-1.46,1.71-3.49,4.25-4.45a4.39,4.39,0,0,1-1.2-3.1v-2.23A4.17,4.17,0,0,1,10.93,149a4.13,4.13,0,0,1,1.21,3v2.23a4.51,4.51,0,0,1-1.19,3.12c2.54,1,4.18,3,4.17,4.45v2.53a.7.7,0,0,1-.3.57A13.26,13.26,0,0,1,7.94,166.92Zm-5.81-3.1a11.94,11.94,0,0,0,5.77,1.7l0,.7v-.7a11.91,11.91,0,0,0,5.75-1.66v-2.14c0-1-1.57-2.74-4.05-3.39a.7.7,0,0,1-.52-.68v-.39a.7.7,0,0,1,.35-.6,2.87,2.87,0,0,0,1.25-2.51v-2.23a2.77,2.77,0,0,0-5.54,0v2.23a2.83,2.83,0,0,0,1.26,2.48.7.7,0,0,1,.34.6v.39a.7.7,0,0,1-.53.67c-2.47.62-4.12,2.46-4.13,3.4Z"/><path class="b" d="M20.29,99H-3a2.16,2.16,0,0,1-2.16-2.16V73.56A2.16,2.16,0,0,1-3,71.4h23.3a2.16,2.16,0,0,1,2.16,2.16v23.3A2.16,2.16,0,0,1,20.29,99ZM-3,72.82a.73.73,0,0,0-.73.73v23.3a.73.73,0,0,0,.73.73h23.3a.73.73,0,0,0,.73-.73V73.56a.73.73,0,0,0-.73-.73Z"/><path class="b" d="M8.64,76.34a8.86,8.86,0,0,0-3.56,17,7.78,7.78,0,0,1,.15-2l1.14-4.83a3.4,3.4,0,0,1-.28-1.4c0-1.31.76-2.29,1.71-2.29A1.19,1.19,0,0,1,9,84.09a19.07,19.07,0,0,1-.78,3.14,1.37,1.37,0,0,0,1.4,1.71c1.68,0,2.81-2.16,2.81-4.71,0-1.94-1.31-3.4-3.69-3.4a4.2,4.2,0,0,0-4.36,4.24A2.56,2.56,0,0,0,5,86.82a.43.43,0,0,1,.13.49L4.9,88a.31.31,0,0,1-.44.22,3.41,3.41,0,0,1-1.81-3.38c0-2.52,2.12-5.53,6.33-5.53a5.3,5.3,0,0,1,5.61,5.08c0,3.48-1.93,6.07-4.78,6.07a2.54,2.54,0,0,1-2.16-1.1s-.51,2-.62,2.44a7.42,7.42,0,0,1-.89,1.9A8.86,8.86,0,1,0,8.64,76.34Z"/><path class="b" d="M246.12,125.5H224.27a.75.75,0,1,1,0-1.5h21.85a.75.75,0,1,1,0,1.5Z"/><path class="b" d="M246.12,128.6H224.27a.75.75,0,1,1,0-1.5h21.85a.75.75,0,1,1,0,1.5Z"/><path class="b" d="M246.12,131.71H224.27a.75.75,0,1,1,0-1.5h21.85a.75.75,0,1,1,0,1.5Z"/><rect class="b" x="221.51" y="90.39" width="27.36" height="3.9"/><polygon class="c" points="235.37 116.89 235.37 101.11 223.39 101.11 223.39 120.26 247.01 120.26 247.01 116.89 235.37 116.89"/><path class="b" d="M253.08,115.89H236.37V98.74H258V111l2,.67V97.74a1,1,0,0,0-1-1H235.37a1,1,0,0,0-1,1v19.15a1,1,0,0,0,1,1h18.38Z"/><path class="b" d="M253.56,117.36v16.78a1.37,1.37,0,0,1-1.37,1.37h-34a1.37,1.37,0,0,1-1.37-1.37v-46a1.37,1.37,0,0,1,1.37-1.37h34a1.37,1.37,0,0,1,1.37,1.37v9.64h2V88.1a3.37,3.37,0,0,0-3.37-3.37h-34a3.37,3.37,0,0,0-3.37,3.37v46a3.37,3.37,0,0,0,3.37,3.37h34a3.37,3.37,0,0,0,3.37-3.37V123.36Z"/><path class="b" d="M263.64,126.38a1.12,1.12,0,0,1-.79-.33l-3.31-3.31-2.74,2.74a1.12,1.12,0,0,1-1.86-.44l-5.39-16.16a1.12,1.12,0,0,1,1.42-1.42l16.16,5.39a1.12,1.12,0,0,1,.44,1.86l-2.74,2.74,3.31,3.31a1.12,1.12,0,0,1,0,1.59L264.44,126A1.12,1.12,0,0,1,263.64,126.38ZM259.54,120h0a1.12,1.12,0,0,1,.79.33l3.31,3.31,2.12-2.12-3.31-3.31a1.12,1.12,0,0,1,0-1.59l2.25-2.25-12.3-4.1,4.1,12.3,2.25-2.25A1.12,1.12,0,0,1,259.54,120Z"/><path class="b" d="M201.19,92.24l-6.49-6.48a.77.77,0,0,0-.54-.23h0a.77.77,0,0,0-.54.23L176,103.44a.77.77,0,0,0-.19.31l-3.06,9.74a.77.77,0,0,0,1,1l9.56-3.26a.78.78,0,0,0,.3-.19l17.63-17.68A.77.77,0,0,0,201.19,92.24ZM182.6,109.79l-4.89,1.66-2.08-2.08,1.57-5,17-17,5.4,5.4Z"/><line class="b" x1="180.75" y1="106.24" x2="185.24" y2="101.74"/><path class="b" d="M180.75,107a.77.77,0,0,1-.55-1.31l4.49-4.51a.77.77,0,1,1,1.09,1.09l-4.49,4.51A.77.77,0,0,1,180.75,107Z"/><path class="b" d="M183.19,110.29a3,3,0,0,0-3.33-3.24,3.07,3.07,0,0,0-.84-2.42,3,3,0,0,0-2.45-.87"/><path class="b" d="M184,110.35l-1.54-.12a2.25,2.25,0,0,0-2.48-2.41.77.77,0,0,1-.85-.83,2.29,2.29,0,0,0-.61-1.81,2.23,2.23,0,0,0-1.83-.64l-.16-1.53a3.77,3.77,0,0,1,3.08,1.09,3.72,3.72,0,0,1,1,2.2,3.79,3.79,0,0,1,3.35,4.06Z"/><line class="b" x1="193.6" y1="99.84" x2="187.11" y2="93.36"/><polygon class="b" points="193.06 100.39 186.56 93.91 187.65 92.82 194.14 99.3 193.06 100.39"/><line class="b" x1="196.12" y1="97.32" x2="189.62" y2="90.84"/><polygon class="b" points="195.58 97.87 189.08 91.39 190.17 90.29 196.66 96.78 195.58 97.87"/><path class="b" d="M203.79,78.74H167.65a3.35,3.35,0,0,0-3.35,3.35v36.14a3.35,3.35,0,0,0,3.35,3.35h36.14a3.35,3.35,0,0,0,3.35-3.35V82.09A3.35,3.35,0,0,0,203.79,78.74Zm-37.28,39.49V92.13l11-11.17h26.27a1.14,1.14,0,0,1,1.14,1.14v26.32l-10.8,11H167.65A1.14,1.14,0,0,1,166.51,118.23Z"/><rect class="b" x="134.74" y="66.81" width="4.83" height="2.28"/><rect class="b" x="116.33" y="66.81" width="4.83" height="2.28"/><rect class="b" x="125.54" y="66.81" width="4.83" height="2.28"/><path class="b" d="M148.58,66.81h-4.63v2.28h3.49v38.09h-39V69.09H112V66.81h-4.63A1.14,1.14,0,0,0,106.19,68v40.37a1.14,1.14,0,0,0,1.14,1.14h41.25a1.14,1.14,0,0,0,1.14-1.14V68A1.14,1.14,0,0,0,148.58,66.81Z"/><path class="b" d="M116.33,72.41H112a.76.76,0,0,1-.76-.76V63.9a.76.76,0,0,1,.76-.76h4.38a.76.76,0,0,1,.76.76v7.75A.76.76,0,0,1,116.33,72.41Zm-3.62-1.52h2.86V64.66h-2.86Z"/><path class="b" d="M125.54,72.41h-4.37a.76.76,0,0,1-.76-.76V63.9a.76.76,0,0,1,.76-.76h4.38a.76.76,0,0,1,.76.76v7.75A.76.76,0,0,1,125.54,72.41Zm-3.62-1.52h2.86V64.66h-2.86Z"/><path class="b" d="M134.74,72.41h-4.37a.76.76,0,0,1-.76-.76V63.9a.76.76,0,0,1,.76-.76h4.38a.76.76,0,0,1,.76.76v7.75A.76.76,0,0,1,134.74,72.41Zm-3.62-1.52H134V64.66h-2.86Z"/><path class="b" d="M143.94,72.41h-4.37a.76.76,0,0,1-.76-.76V63.9a.76.76,0,0,1,.76-.76h4.38a.76.76,0,0,1,.76.76v7.75A.76.76,0,0,1,143.94,72.41Zm-3.62-1.52h2.86V64.66h-2.86Z"/><rect class="b" x="138.74" y="81.01" width="4.17" height="4.17" rx="0.76" ry="0.76"/><rect class="b" x="132.3" y="81.01" width="4.17" height="4.17" rx="0.76" ry="0.76"/><rect class="b" x="125.87" y="81.01" width="4.17" height="4.17" rx="0.76" ry="0.76"/><rect class="b" x="119.44" y="81.01" width="4.17" height="4.17" rx="0.76" ry="0.76"/><rect class="b" x="138.74" y="86.98" width="4.17" height="4.17" rx="0.76" ry="0.76"/><rect class="b" x="132.3" y="86.98" width="4.17" height="4.17" rx="0.76" ry="0.76"/><rect class="b" x="125.87" y="86.98" width="4.17" height="4.17" rx="0.76" ry="0.76"/><rect class="b" x="119.44" y="86.98" width="4.17" height="4.17" rx="0.76" ry="0.76"/><rect class="b" x="113" y="86.98" width="4.17" height="4.17" rx="0.76" ry="0.76"/><rect class="b" x="138.74" y="92.96" width="4.17" height="4.17" rx="0.76" ry="0.76"/><rect class="b" x="132.3" y="92.96" width="4.17" height="4.17" rx="0.76" ry="0.76"/><rect class="b" x="125.87" y="92.96" width="4.17" height="4.17" rx="0.76" ry="0.76"/><rect class="b" x="119.44" y="92.96" width="4.17" height="4.17" rx="0.76" ry="0.76"/><rect class="b" x="113" y="92.96" width="4.17" height="4.17" rx="0.76" ry="0.76"/><rect class="b" x="132.3" y="98.94" width="4.17" height="4.17" rx="0.76" ry="0.76"/><rect class="b" x="125.87" y="98.94" width="4.17" height="4.17" rx="0.76" ry="0.76"/><rect class="b" x="119.44" y="98.94" width="4.17" height="4.17" rx="0.76" ry="0.76"/><rect class="b" x="113" y="98.94" width="4.17" height="4.17" rx="0.76" ry="0.76"/><rect class="b" x="88.69" y="86.75" width="2.35" height="2.56"/><path class="b" d="M91,84.06H88.69V82.68H87.31V80.33h2.56A1.18,1.18,0,0,1,91,81.51Z"/><path class="b" d="M83.91,82.68H78.8V80.33h5.11Zm-8.52,0H70.28V80.33h5.11Zm-8.52,0H61.76V80.33h5.11Zm-8.52,0H53.24V80.33h5.11Zm-8.52,0H44.73V80.33h5.11Z"/><path class="b" d="M39.94,84.06H37.59V81.51a1.18,1.18,0,0,1,1.18-1.18h2.56v2.35H39.94Z"/><path class="b" d="M39.94,114.29H37.59v-4.53h2.35Zm0-7.56H37.59V102.2h2.35Zm0-7.56H37.59V94.64h2.35Zm0-7.56H37.59V87.08h2.35Z"/><path class="b" d="M41.32,121H38.76a1.18,1.18,0,0,1-1.18-1.18v-2.56h2.35v1.38h1.38Z"/><rect class="b" x="44" y="118.69" width="2.56" height="2.35"/><path class="b" d="M97.67,128.94H46.56a1.28,1.28,0,0,1-1.28-1.28V89.3A1.28,1.28,0,0,1,46.56,88H97.67a1.28,1.28,0,0,1,1.28,1.28v38.36A1.28,1.28,0,0,1,97.67,128.94Zm-49.83-2.56H96.39V90.58H47.84Z"/><path class="b" d="M91.17,122H53.06a.85.85,0,0,1-.85-.85V95.8a.85.85,0,0,1,.85-.85H91.17a.85.85,0,0,1,.85.85v25.37A.85.85,0,0,1,91.17,122Zm-37.26-1.7H90.32V96.65H53.91Z"/><path class="b" d="M62.68,110.33A5.28,5.28,0,1,1,68,105.05,5.28,5.28,0,0,1,62.68,110.33Zm0-8.85a3.58,3.58,0,1,0,3.58,3.58A3.58,3.58,0,0,0,62.68,101.48Z"/><path class="b" d="M86.06,115.5h-15a.85.85,0,0,1-.85-.85v-4.81a8.34,8.34,0,1,1,16.68,0v4.81A.85.85,0,0,1,86.06,115.5Zm-14.12-1.7H85.21v-4a6.63,6.63,0,0,0-13.27,0Z"/><path class="b" d="M94,152.91H73.23a2.31,2.31,0,0,1-2.31-2.31v-13a2.31,2.31,0,0,1,2.31-2.31H94a2.31,2.31,0,0,1,2.31,2.31v13A2.31,2.31,0,0,1,94,152.91ZM73.23,136.46a1.16,1.16,0,0,0-1.15,1.15v13a1.16,1.16,0,0,0,1.15,1.15H94a1.16,1.16,0,0,0,1.15-1.15v-13A1.16,1.16,0,0,0,94,136.46Z"/><path class="b" d="M85.83,151.61a7,7,0,1,1,7-7A7,7,0,0,1,85.83,151.61Zm0-12.79a5.82,5.82,0,1,0,5.82,5.82A5.83,5.83,0,0,0,85.83,138.81Z"/><path class="b" d="M85.83,149.44a4.81,4.81,0,1,1,4.81-4.81A4.82,4.82,0,0,1,85.83,149.44Zm0-9a4.24,4.24,0,1,0,4.24,4.24A4.24,4.24,0,0,0,85.83,140.4Z"/><path class="b" d="M75.29,141.07A1.72,1.72,0,1,1,77,139.35,1.73,1.73,0,0,1,75.29,141.07Zm0-2.87a1.15,1.15,0,1,0,1.15,1.15A1.15,1.15,0,0,0,75.29,138.2Z"/><path class="b" d="M81.91,150h-8a.29.29,0,1,1,0-.58h8a.29.29,0,1,1,0,.58Z"/><path class="b" d="M78.33,142.8H73.86a.29.29,0,1,1,0-.58h4.47a.29.29,0,1,1,0,.58Z"/><path class="b" d="M94.46,142.8H92.23a.29.29,0,1,1,0-.58h2.23a.29.29,0,1,1,0,.58Z"/><path class="b" d="M94.46,150H90.35a.29.29,0,1,1,0-.58h4.11a.29.29,0,1,1,0,.58Z"/><path class="b" d="M91.75,136H80.63a.29.29,0,0,1-.23-.46l1.53-2a.29.29,0,0,1,.23-.11h8.05a.29.29,0,0,1,.23.11l1.53,2a.29.29,0,0,1-.23.46Zm-10.53-.58h10L90.07,134H82.31Z"/><path class="b" d="M77.75,135.89H73.86a.29.29,0,0,1-.29-.29v-1.89a.29.29,0,0,1,.29-.29h3.89a.29.29,0,0,1,.29.29v1.89A.29.29,0,0,1,77.75,135.89Zm-3.6-.58h3.31V134H74.15Z"/><path class="b" d="M75.8,135.89a.29.29,0,0,1-.29-.29v-.87a.29.29,0,0,1,.58,0v.87A.29.29,0,0,1,75.8,135.89Z"/><path class="b" d="M76.67,135.89a.29.29,0,0,1-.29-.29v-.87a.29.29,0,0,1,.58,0v.87A.29.29,0,0,1,76.67,135.89Z"/><path class="b" d="M74.79,135.89a.29.29,0,0,1-.29-.29v-.87a.29.29,0,0,1,.58,0v.87A.29.29,0,0,1,74.79,135.89Z"/><path class="b" d="M17.11,107.16a10.13,10.13,0,0,0-5.87,18.4.72.72,0,0,1,.25.45v4a.5.5,0,0,0,.19.4,8.28,8.28,0,0,0,2.5,1.3,3.13,3.13,0,0,0,2.93,1.56A3.13,3.13,0,0,0,20,131.75a8.26,8.26,0,0,0,2.5-1.3.5.5,0,0,0,.19-.4v-4a.72.72,0,0,1,.25-.46,10.13,10.13,0,0,0-5.88-18.4Zm3.41,22.62H13.89a.3.3,0,0,1,0-.6h6.63a.3.3,0,0,1,0,.6Zm0-1.3H13.89a.3.3,0,0,1,0-.6h6.63a.3.3,0,0,1,0,.6Zm1-4.91a2.8,2.8,0,0,0-1.14,2.18v.87H13.8v-.86a2.81,2.81,0,0,0-1.14-2.18,7.68,7.68,0,1,1,8.89,0Z"/><path class="b" d="M18.88,127.53H17.59v-8.39h-.71v8.39H15.59v-8.39H14.44a2.44,2.44,0,1,1,2.44-2.44v1.15h.71v-1.15A2.44,2.44,0,1,1,20,119.15H18.88Zm0-9.68H20a1.15,1.15,0,1,0-1.15-1.15Zm-4.44-2.3a1.15,1.15,0,1,0,0,2.3h1.15v-1.15A1.15,1.15,0,0,0,14.44,115.55Z"/><path class="b" d="M22.52,106.31a.62.62,0,0,1-.56-.89l.69-1.46a.62.62,0,1,1,1.13.53L23.08,106A.62.62,0,0,1,22.52,106.31Z"/><path class="b" d="M27.18,109.53a.62.62,0,0,1-.41-1.09L28,107.38a.62.62,0,1,1,.82.94l-1.22,1.06A.62.62,0,0,1,27.18,109.53Z"/><path class="b" d="M29.47,114.69a.62.62,0,0,1-.14-1.23l1.4-.33a.62.62,0,0,1,.29,1.21l-1.4.33Z"/><path class="b" d="M30.87,120.62h-.13l-1.4-.3a.62.62,0,1,1,.27-1.22l1.4.3a.62.62,0,0,1-.13,1.23Z"/><path class="b" d="M11.61,106.31A.62.62,0,0,1,11,106l-.85-1.79a.62.62,0,0,1,1.13-.53l.85,1.79a.62.62,0,0,1-.56.89Z"/><path class="b" d="M7.11,109.67a.62.62,0,0,1-.39-.13l-1.52-1.2a.62.62,0,1,1,.77-1l1.52,1.2a.62.62,0,0,1-.39,1.11Z"/><path class="b" d="M5,114.76l-.14,0-1.71-.4a.62.62,0,1,1,.29-1.21l1.71.4A.62.62,0,0,1,5,114.76Z"/><path class="b" d="M2.73,120.73a.62.62,0,0,1-.11-1.24l1.61-.29a.62.62,0,1,1,.22,1.23l-1.61.29Z"/><rect class="b" x="16.49" y="101.84" width="1.25" height="3.25" rx="0.62" ry="0.62"/><path class="b" d="M13.63,113a.4.4,0,0,1-.25-.72,6.23,6.23,0,0,1,.9-.58.4.4,0,0,1,.38.71,5.48,5.48,0,0,0-.79.51A.4.4,0,0,1,13.63,113Z"/><path class="b" d="M19.71,112.3a.4.4,0,0,1-.17,0,5.47,5.47,0,0,0-1-.36,5.41,5.41,0,0,0-2.53,0,.4.4,0,1,1-.18-.79,6.24,6.24,0,0,1,4,.46.4.4,0,0,1-.17.77Z"/><path class="b" d="M22.52,115.19a.4.4,0,0,1-.37-.24,5.55,5.55,0,0,0-.45-.82.4.4,0,0,1,.67-.45,6.28,6.28,0,0,1,.52.94.4.4,0,0,1-.37.57Z"/><path class="b" d="M205.74,192.27a5.54,5.54,0,1,1,5.54-5.54A5.55,5.55,0,0,1,205.74,192.27Zm0-8.71a3.17,3.17,0,1,0,3.17,3.17A3.17,3.17,0,0,0,205.74,183.57Z"/><path class="b" d="M168.91,218.41a5.54,5.54,0,1,1,5.54-5.54A5.55,5.55,0,0,1,168.91,218.41Zm0-8.71a3.17,3.17,0,1,0,3.17,3.17A3.17,3.17,0,0,0,168.91,209.71Z"/><path class="b" d="M180.79,201.78a5.54,5.54,0,1,1,5.54-5.54A5.55,5.55,0,0,1,180.79,201.78Zm0-8.71a3.17,3.17,0,1,0,3.17,3.17A3.17,3.17,0,0,0,180.79,193.07Z"/><path class="b" d="M177.4,198.94l-6.95,9.87a4.34,4.34,0,0,1,1.9,1.42l7-9.92A4.33,4.33,0,0,1,177.4,198.94Z"/><path class="b" d="M191.87,201.6l-6.93-4.1a4.33,4.33,0,0,1-1.28,2l7.12,4.22A4.33,4.33,0,0,1,191.87,201.6Z"/><path class="b" d="M202.59,189.73l-6.15,10.72a4.33,4.33,0,0,1,2,1.35l6.24-10.88A4.33,4.33,0,0,1,202.59,189.73Z"/><path class="b" d="M195,210.1a5.54,5.54,0,1,1,5.54-5.54A5.55,5.55,0,0,1,195,210.1Zm0-8.71a3.17,3.17,0,1,0,3.17,3.17A3.17,3.17,0,0,0,195,201.39Z"/><path class="b" d="M45,211.76H34.4a1,1,0,0,1-1-1v-4.61h2v3.61H44v-3.61h2v4.61A1,1,0,0,1,45,211.76Z"/><path class="b" d="M48.87,214.62H30.5a1,1,0,0,1-1-1v-2.86a1,1,0,0,1,1-1H48.87a1,1,0,0,1,1,1v2.86A1,1,0,0,1,48.87,214.62Zm-17.38-2H47.87v-.86H31.5Z"/><path class="b" d="M57.4,207.16H21a3.54,3.54,0,0,1-3.54-3.54v-25A3.54,3.54,0,0,1,21,175.09H57.4a3.54,3.54,0,0,1,3.54,3.54v25A3.54,3.54,0,0,1,57.4,207.16ZM21,177.09a1.54,1.54,0,0,0-1.54,1.54v25A1.54,1.54,0,0,0,21,205.16H57.4a1.54,1.54,0,0,0,1.54-1.54v-25a1.54,1.54,0,0,0-1.54-1.54Z"/><path class="b" d="M56.13,200.3H22.24a.5.5,0,0,1-.5-.5v-19.9a.5.5,0,0,1,.5-.5H56.13a.5.5,0,0,1,.5.5v19.9A.5.5,0,0,1,56.13,200.3Zm-33.39-1H55.63v-18.9H22.74Z"/><path class="b" d="M40.64,202.88a1,1,0,0,1-1,1h0a1,1,0,0,1-1-1h0a1,1,0,0,1,1-1h0a1,1,0,0,1,1,1Z"/><path class="b" d="M47,161.6l.77,8.48a.55.55,0,0,0,.55.5h.05a.55.55,0,0,0,.5-.6l-.76-8.38Z"/><path class="b" d="M58.18,141.32a.55.55,0,0,0-.15-.08A19.77,19.77,0,0,0,53.27,140a2.66,2.66,0,0,1-2.58-.1,11.56,11.56,0,0,0-4.1.82.55.55,0,0,0-.32.5v.33c.12,0,.26.09.37.15v4.63l.73,5.7V141.64c1.09-.38,4.89-1.4,10.19.6,2,1.61,2.95,3.27,2.82,4.94-.25,3.19-4.3,5.54-4.34,5.56a.55.55,0,0,0-.28.44l-1,16.82a.55.55,0,0,0,1.1.07l1-16.53c1-.62,4.38-3,4.63-6.27C61.64,145.18,60.53,143.18,58.18,141.32Z"/><path class="b" d="M56.23,150.34a.55.55,0,0,1-.54-.63l.68-4.71a.55.55,0,0,1,.87-.36,3,3,0,0,1,1.45,2.55c-.08,1.76-2.09,3-2.17,3.07A.55.55,0,0,1,56.23,150.34Zm1.07-4.11L57,148.42a2.24,2.24,0,0,0,.61-1.28A1.45,1.45,0,0,0,57.29,146.23Z"/><path class="b" d="M52.08,141.43a3.69,3.69,0,1,1,3.77-3.69A3.74,3.74,0,0,1,52.08,141.43Zm0-6.29a2.59,2.59,0,1,0,2.67,2.59A2.64,2.64,0,0,0,52.08,135.15Z"/><path class="b" d="M56.85,153.24,55,145a.55.55,0,0,0-.54-.43H48.86a.55.55,0,0,0-.53.42l-1.23,4.92.38,3,1.81-7.23H54l1.73,7.79-.08,5.5H48.26l.14,1.1h7.83a.55.55,0,0,0,.55-.54l.08-6.1A.55.55,0,0,0,56.85,153.24Z"/><path class="b" d="M49.58,145.63a.55.55,0,0,1-.55-.55v-4.2a.55.55,0,0,1,1.1,0v4.2A.55.55,0,0,1,49.58,145.63Z"/><path class="b" d="M53.89,145.63a.55.55,0,0,1-.55-.55v-4a.55.55,0,0,1,1.1,0v4A.55.55,0,0,1,53.89,145.63Z"/><path class="b" d="M54.47,154.59H49.93a.55.55,0,1,1,0-1.1h4.54a.55.55,0,1,1,0,1.1Z"/><line class="b" x1="51.57" y1="163.61" x2="51.84" y2="170.02"/><path class="b" d="M51.84,170.57a.55.55,0,0,1-.55-.53L51,163.63a.55.55,0,0,1,1.1,0l.27,6.41a.55.55,0,0,1-.53.57Z"/><path class="b" d="M42.09,170.67a.55.55,0,0,1-.54-.49l-.9-8a.55.55,0,0,1,.55-.61h4.38a.55.55,0,0,1,.55.58l-.45,8a.54.54,0,0,1-.58.52.55.55,0,0,1-.52-.58l.41-7.37H41.81l.83,7.34a.55.55,0,0,1-.48.61Z"/><path class="b" d="M43.61,140.78a3.69,3.69,0,1,1,3.53-3.69A3.62,3.62,0,0,1,43.61,140.78Zm0-6.28A2.6,2.6,0,1,0,46,137.09,2.52,2.52,0,0,0,43.61,134.49Z"/><path class="b" d="M49.22,162.69H36.09a.55.55,0,0,1-.52-.72l3.57-10.91c-1.2-1.16-3.95-4-3.49-5.67.54-1.91,3.45-4.11,4.7-4.81a6.59,6.59,0,0,1,2.95-.58,8.26,8.26,0,0,1,4.2,1,.55.55,0,0,1,.24.45v4.87l2,15.79a.55.55,0,0,1-.54.62Zm-12.37-1.1H48.6l-1.95-15.24v-4.62a8,8,0,0,0-3.34-.63,5.43,5.43,0,0,0-2.41.43c-1.5.85-3.81,2.84-4.18,4.16-.22.78,1.61,3.11,3.43,4.81a.55.55,0,0,1,.15.57Z"/><path class="b" d="M40.5,149.24a.55.55,0,0,1-.38-.15c-.33-.31-2-1.95-1.89-3.13s1.74-2.45,2.06-2.7a.55.55,0,0,1,.87.31l.57,2.48a.54.54,0,0,1,0,.27L41,148.84a.55.55,0,0,1-.38.38Zm-.21-4.53a3.11,3.11,0,0,0-1,1.36,3.22,3.22,0,0,0,.91,1.55l.4-1.45Z"/><path class="b" d="M34.09,152.16a2.74,2.74,0,1,1,3-2.73A2.85,2.85,0,0,1,34.09,152.16Zm0-4.37A1.65,1.65,0,1,0,36,149.43,1.76,1.76,0,0,0,34.09,147.79Z"/><path class="b" d="M36.85,161.6l.24-.73a.55.55,0,0,0-.54.44l-1.69,8.6a.55.55,0,0,0,.43.64h.11a.55.55,0,0,0,.54-.44l1.6-8.16h1a.52.52,0,0,0,.51-.37Z"/><path class="b" d="M36.6,153.33l1,6,.73-2.24-.71-4.17a.55.55,0,0,0-.25-.38c-1.58-1-5.46-.81-6.61,0a.54.54,0,0,0-.22.35l-1.43,8.45a.55.55,0,0,0,.54.64h1l1.6,8.16a.55.55,0,0,0,1.08-.21l-1.69-8.6a.55.55,0,0,0-.54-.44h-.78l1.28-7.56A8.35,8.35,0,0,1,36.6,153.33Z"/><path class="b" d="M63,152.16a2.74,2.74,0,1,1,3-2.73A2.85,2.85,0,0,1,63,152.16Zm0-4.37a1.65,1.65,0,1,0,1.86,1.64A1.76,1.76,0,0,0,63,147.79Z"/><path class="b" d="M64.28,170.57h-.11a.55.55,0,0,1-.43-.64l1.69-8.6a.55.55,0,0,1,.54-.44h.78l-1.28-7.54a8.35,8.35,0,0,0-5,0l-1.28,7.56H60a.55.55,0,0,1,.54.44l1.69,8.6a.55.55,0,0,1-1.08.21L59.52,162h-1a.55.55,0,0,1-.54-.64l1.43-8.45a.54.54,0,0,1,.22-.35c1.15-.84,5-1,6.61,0a.55.55,0,0,1,.25.38l1.43,8.45a.55.55,0,0,1-.54.64h-1l-1.6,8.16A.55.55,0,0,1,64.28,170.57Z"/><path class="b" d="M108.54,116.92H106a.5.5,0,0,1,0-1h2.5a.5.5,0,0,1,0,1Z"/><path class="b" d="M121.6,116.92h-9.33a.5.5,0,0,1,0-1h9.33a.5.5,0,0,1,0,1Z"/><path class="b" d="M146.8,116.92h-9.33a.5.5,0,0,1,0-1h9.33a.5.5,0,0,1,0,1Zm-13.07,0h-4.67a.5.5,0,0,1,0-1h4.67a.5.5,0,0,1,0,1Z"/><path class="b" d="M156.77,116.92h-2.5a.5.5,0,0,1,0-1h2.5a.5.5,0,0,1,0,1Z"/><path class="b" d="M68.88,206.66h-2.5a.5.5,0,0,1,0-1h2.5a.5.5,0,1,1,0,1Z"/><path class="b" d="M76.5,206.66H71.06a.5.5,0,0,1,0-1H76.5a.5.5,0,0,1,0,1Z"/><path class="b" d="M91.2,206.66H85.76a.5.5,0,1,1,0-1H91.2a.5.5,0,0,1,0,1Zm-7.62,0H80.86a.5.5,0,0,1,0-1h2.72a.5.5,0,1,1,0,1Z"/><path class="b" d="M98.06,206.66h-2.5a.5.5,0,0,1,0-1h2.5a.5.5,0,0,1,0,1Z"/><path class="b" d="M261.78,68.94a.46.46,0,0,1-.46-.46V66.35a.46.46,0,0,1,.92,0v2.13A.46.46,0,0,1,261.78,68.94Z"/><path class="b" d="M261.78,75.82a.46.46,0,0,1-.46-.46v-5a.46.46,0,0,1,.92,0v5A.46.46,0,0,1,261.78,75.82Z"/><path class="b" d="M261.78,89.83a.46.46,0,0,1-.46-.46V87.74a.46.46,0,0,1,.92,0v1.63A.46.46,0,0,1,261.78,89.83Zm0-5.65a.46.46,0,0,1-.46-.46v-5a.46.46,0,0,1,.92,0v5A.46.46,0,0,1,261.78,84.18Z"/><path class="b" d="M261.78,93.81a.46.46,0,0,1-.46-.46V91.22a.46.46,0,0,1,.92,0v2.13A.46.46,0,0,1,261.78,93.81Z"/><circle class="b" cx="223.39" cy="76.34" r="2.35"/><path class="b" d="M223.39,79.19a2.85,2.85,0,1,1,2.85-2.85A2.85,2.85,0,0,1,223.39,79.19Zm0-4.69a1.85,1.85,0,1,0,1.85,1.85A1.85,1.85,0,0,0,223.39,74.5Z"/><path class="b" d="M203.41,130a2.91,2.91,0,1,1,2.91-2.91A2.91,2.91,0,0,1,203.41,130Zm0-4.79a1.89,1.89,0,1,0,1.89,1.89A1.89,1.89,0,0,0,203.41,125.2Z"/><circle class="b" cx="129.46" cy="123.99" r="1.58"/><path class="b" d="M221.22,204.2a2.28,2.28,0,1,1,2.28-2.28A2.28,2.28,0,0,1,221.22,204.2Zm0-3.75a1.48,1.48,0,1,0,1.48,1.48A1.48,1.48,0,0,0,221.22,200.45Z"/><path class="b" d="M31.69,135.08A2.28,2.28,0,1,1,34,132.8,2.28,2.28,0,0,1,31.69,135.08Zm0-3.75a1.48,1.48,0,1,0,1.48,1.48A1.48,1.48,0,0,0,31.69,131.32Z"/><path class="b" d="M156.76,90a.54.54,0,0,1-.25-.06l-2-1.18a.51.51,0,0,1-.26-.45V85.92a.51.51,0,0,1,.26-.44l2-1.17a.52.52,0,0,1,.51,0l2,1.18a.51.51,0,0,1,.26.44v2.35a.52.52,0,0,1-.25.44l-2,1.17A.58.58,0,0,1,156.76,90Zm-1.52-2,1.52.88,1.53-.88V86.22l-1.53-.88-1.52.87Z"/><path class="b" d="M178.21,135.57l-3.68-1.86,1.86-3.68,3.68,1.86Zm-2.34-2.3,1.9,1,1-1.9-1.9-1Z"/><polygon class="b" points="174.05 134.8 172.93 134.24 173.5 133.13 173.94 133.35 173.6 134.02 174.27 134.36 174.05 134.8"/><polygon class="b" points="174.54 132.16 174.09 131.93 174.7 130.74 175.14 130.97 174.54 132.16"/><polygon class="b" points="175.75 129.78 175.3 129.55 175.86 128.43 176.98 129 176.75 129.44 176.08 129.1 175.75 129.78"/><polygon class="b" points="179.14 130.65 177.94 130.04 178.17 129.6 179.36 130.2 179.14 130.65"/><polygon class="b" points="181.1 132.48 180.66 132.25 181 131.59 180.33 131.25 180.55 130.8 181.67 131.36 181.1 132.48"/><polygon class="b" points="179.9 134.86 179.46 134.64 180.06 133.45 180.5 133.67 179.9 134.86"/><polygon class="b" points="178.74 137.17 177.62 136.61 177.85 136.16 178.52 136.5 178.85 135.83 179.3 136.06 178.74 137.17"/><polygon class="b" points="176.43 136.01 175.24 135.41 175.46 134.96 176.66 135.56 176.43 136.01"/><path class="b" d="M210.69,139.06l-.59-.51-.37-.09,0-.19-.15-.13.25-.29.18-.76.81.19a.7.7,0,0,1,.37,1.14Z"/><path class="b" d="M207.14,143.19l-1.06-.91.89-1,1.06.91Zm1.78-2.07-1.06-.91.89-1,1.06.91Z"/><path class="b" d="M205.18,145.1H205a.7.7,0,0,1-.53-.47l-.26-.79.68-.22.25-.29.18.15.22-.07.12.37.54.47-.54.63A.7.7,0,0,1,205.18,145.1Z"/><path class="b" d="M203.81,142.46l-.44-1.36,1.33-.43.44,1.36Zm-.88-2.73-.44-1.36,1.33-.43.44,1.36Z"/><path class="b" d="M202,137l-.25-.79a.7.7,0,0,1,.83-.9l.81.19-.17.7.12.37-.22.07-.05.23-.37-.09Z"/><path class="b" d="M208.41,138.14l-1.33-.32.33-1.36,1.33.32Zm-2.65-.64-1.33-.32.33-1.36,1.33.32Z"/><path class="b" d="M229,209.79l-.05-.1h-.12v-.22l-.21-.42.44-.22a.42.42,0,0,1,.41,0,.42.42,0,0,1,.19.36v.49h-.47Z"/><path class="b" d="M229.62,212.94h-.83v-.81h.83Zm0-1.62h-.83v-.81h.83Z"/><path class="b" d="M229.18,214.65a.41.41,0,0,1-.22-.06l-.42-.26.23-.36v-.23h.14l.07-.12.19.12h.43v.49a.42.42,0,0,1-.42.41Z"/><path class="b" d="M227.82,213.87l-.72-.46.45-.7.72.46Zm-1.44-.91-.72-.46.45-.7.72.46Z"/><path class="b" d="M224.94,212l-.42-.26a.42.42,0,0,1,0-.73l.44-.22.19.38.19.12-.08.12.06.13-.21.1Z"/><path class="b" d="M226.1,211.22l-.37-.75.73-.36.37.75Zm1.46-.72-.37-.75.73-.36.37.75Z"/><path class="b" d="M254.31,142.81l-.05-.1h-.12v-.22l-.21-.42.44-.22a.42.42,0,0,1,.6.38v.49h-.47Z"/><path class="b" d="M254.92,146h-.83v-.81h.83Zm0-1.62h-.83v-.81H255Z"/><path class="b" d="M254.48,147.67a.41.41,0,0,1-.22-.06l-.42-.26.23-.36v-.23h.14l.07-.12.19.12h.43v.49a.42.42,0,0,1-.22.36A.41.41,0,0,1,254.48,147.67Z"/><path class="b" d="M253.12,146.89l-.72-.46.45-.7.72.46Zm-1.44-.91-.72-.46.45-.7.72.46Z"/><path class="b" d="M250.24,145.06l-.42-.26a.42.42,0,0,1,0-.73l.44-.22.19.38.19.12-.07.12.06.13-.21.1Z"/><path class="b" d="M251.39,144.24l-.37-.75.73-.36.37.75Zm1.46-.72-.37-.75.73-.36.37.75Z"/><path class="b" d="M32,46.25,32,46.19l-.1.05-.1-.2-.38-.27.29-.4a.4.4,0,0,1,.37-.17.42.42,0,0,1,.34.22l.23.44-.41.21Z"/><path class="b" d="M33.34,49.12,33,48.4l.74-.38.37.72Zm-.74-1.44L32.22,47l.74-.38.37.72Z"/><path class="b" d="M34.31,50.5h0l-.49,0,0-.43-.1-.2.12-.06v-.14l.23,0,.38-.2.23.44a.42.42,0,0,1-.37.61Z"/><path class="b" d="M32.93,50.41l-.85-.06.06-.83.85.06Zm-1.7-.12-.85-.06.06-.83.85.06Z"/><path class="b" d="M29.53,50.16l-.49,0a.42.42,0,0,1-.31-.66l.29-.4.35.25.23,0v.14l.11.08-.13.19Z"/><path class="b" d="M30.16,48.89l-.68-.48.47-.66.68.48Zm.94-1.32-.68-.48.47-.66.68.48Z"/><path class="b" d="M109.77,129.54h-.07a.4.4,0,0,1-.31-.25l-1.88-5.15a.39.39,0,0,1,.42-.53l5.44.68a.41.41,0,0,1,.32.25.41.41,0,0,1-.06.4l-3.55,4.46A.41.41,0,0,1,109.77,129.54Zm-1.29-5.07,1.42,3.86,2.66-3.34Z"/><path class="b" d="M103.47,142.3h-.08a.49.49,0,0,1-.4-.33l-2.4-6.55a.53.53,0,0,1,.08-.5.51.51,0,0,1,.46-.18l6.92.87a.52.52,0,0,1,.41.32.5.5,0,0,1-.07.5l-4.52,5.69A.53.53,0,0,1,103.47,142.3Zm-1.64-6.46,1.8,4.92,3.4-4.26Z"/><path class="b" d="M7.19,199.57H7.13a.4.4,0,0,1-.31-.25L5,194.23a.4.4,0,0,1,.07-.39.38.38,0,0,1,.35-.14l5.37.68a.37.37,0,0,1,.31.24.39.39,0,0,1,0,.39L7.5,199.42A.41.41,0,0,1,7.19,199.57Zm-1.26-5,1.39,3.82L10,195.07Z"/><path class="b" d="M236.86,194.8a.5.5,0,0,1-.5-.5v-1.5a.5.5,0,0,1,1,0v1.5A.5.5,0,0,1,236.86,194.8Z"/><path class="b" d="M236.86,202a.5.5,0,0,1-.5-.5v-4.23a.5.5,0,0,1,1,0v4.23A.5.5,0,0,1,236.86,202Z"/><path class="b" d="M236.86,214.12a.5.5,0,0,1-.5-.5v-4.23a.5.5,0,0,1,1,0v4.23A.5.5,0,0,1,236.86,214.12Zm0-7.24a.5.5,0,0,1-.5-.5v-1.81a.5.5,0,0,1,1,0v1.81A.5.5,0,0,1,236.86,206.87Z"/><path class="b" d="M236.86,218.63a.5.5,0,0,1-.5-.5v-1.5a.5.5,0,0,1,1,0v1.5A.5.5,0,0,1,236.86,218.63Z"/><path class="b" d="M75.31,162.75a.37.37,0,0,1-.18,0,.36.36,0,0,1-.21-.24l-1.46-4.3a.38.38,0,0,1,0-.31.43.43,0,0,1,.23-.21L78,156.19a.42.42,0,0,1,.31,0,.39.39,0,0,1,.21.24l1.46,4.3a.37.37,0,0,1,0,.31.41.41,0,0,1-.24.21l-4.3,1.46A.27.27,0,0,1,75.31,162.75Zm-.94-4.45,1.2,3.52,3.52-1.2-1.2-3.52Z"/><path class="b" d="M68.72,179.06h0l-2.24-.4a.19.19,0,0,1-.17-.24l.4-2.24a.21.21,0,0,1,.24-.16l2.24.4a.21.21,0,0,1,.16.24l-.4,2.24a.19.19,0,0,1-.08.13A.28.28,0,0,1,68.72,179.06Zm-2-.78,1.83.33.33-1.83-1.83-.33Z"/><path class="b" d="M6.52,183.9h0l-2.24-.4a.19.19,0,0,1-.13-.09.2.2,0,0,1,0-.15L4.48,181a.21.21,0,0,1,.24-.16l2.23.4a.18.18,0,0,1,.13.09.16.16,0,0,1,0,.15l-.41,2.23a.16.16,0,0,1-.08.14A.2.2,0,0,1,6.52,183.9Zm-2-.77,1.83.33.32-1.83-1.83-.33Z"/><path class="b" d="M208.63,75.52h0l-2.24-.4a.19.19,0,0,1-.16-.24l.4-2.23a.2.2,0,0,1,.23-.17l2.24.4a.18.18,0,0,1,.13.09.25.25,0,0,1,0,.15l-.4,2.24a.25.25,0,0,1-.09.13A.16.16,0,0,1,208.63,75.52Zm-2-.78,1.83.33.32-1.83L207,72.91Z"/><path class="b" d="M188.42,184.63h0l-2.23-.4a.19.19,0,0,1-.14-.09.2.2,0,0,1,0-.15l.4-2.24a.21.21,0,0,1,.24-.16l2.23.4a.25.25,0,0,1,.14.08.22.22,0,0,1,0,.16l-.4,2.24a.22.22,0,0,1-.08.13A.27.27,0,0,1,188.42,184.63Zm-2-.77,1.83.33.33-1.83-1.83-.33Z"/><path class="b" d="M248.65,81.9a10.56,10.56,0,1,1,10.56-10.56A10.57,10.57,0,0,1,248.65,81.9Zm0-20.12a9.56,9.56,0,1,0,9.56,9.56A9.57,9.57,0,0,0,248.65,61.78Z"/><path class="b" d="M248.62,78.48a7.14,7.14,0,0,1-3.85-1.12.13.13,0,1,1,.13-.21,6.87,6.87,0,0,0,4,1.08,6.94,6.94,0,0,0,6.13-4.4.13.13,0,0,1,.16-.07.12.12,0,0,1,.07.16A7.19,7.19,0,0,1,249,78.47Z"/><path class="b" d="M248.61,79.23a7.86,7.86,0,0,1-5-1.82.13.13,0,0,1,.16-.19A7.64,7.64,0,0,0,256,73.31a.13.13,0,0,1,.15-.09.13.13,0,0,1,.09.15A7.86,7.86,0,0,1,249,79.22Z"/><path class="b" d="M242.19,68.94h0a.12.12,0,0,1-.07-.16,7.18,7.18,0,0,1,10.54-3.44.13.13,0,1,1-.13.21,6.93,6.93,0,0,0-10.18,3.32A.13.13,0,0,1,242.19,68.94Z"/><path class="b" d="M241.27,69.47h0a.13.13,0,0,1-.09-.15,7.89,7.89,0,0,1,12.67-4,.13.13,0,0,1-.16.19,7.64,7.64,0,0,0-12.26,3.9A.13.13,0,0,1,241.27,69.47Z"/><path class="b" d="M244.19,74.81a1.89,1.89,0,0,1-2.45-1.35,2,2,0,0,1,1.2-2.63,1.88,1.88,0,0,1,2.46,1.33,1.92,1.92,0,0,1-1.2,2.64Zm-.18-.7c.59-.19.74-.86.49-1.61s-.75-1.17-1.35-1-.74.89-.5,1.61.77,1.17,1.35,1Z"/><path class="b" d="M245.22,70.2a7.51,7.51,0,0,1,1.14-.47,1.9,1.9,0,0,1,1.27-.08,1.14,1.14,0,0,1,.7.74,1.25,1.25,0,0,1,0,1,1.9,1.9,0,0,1-1.11.82,1.57,1.57,0,0,1-.3.08l.46,1.38-.86.29Zm1.44,1.45a1.36,1.36,0,0,0,.3-.07c.46-.15.67-.48.54-.87s-.43-.48-.87-.34a1.63,1.63,0,0,0-.34.15Z"/><path class="b" d="M251.37,70.55,250,71l.3.91,1.57-.52.24.71-2.44.81-1.27-3.83,2.36-.78L251,69l-1.49.5.26.8,1.41-.47Z"/><path class="b" d="M252.52,72l-1.27-3.83,1-.34,1.26,1.14A12.76,12.76,0,0,1,254.58,70h0a16.67,16.67,0,0,1-.6-1.58l-.37-1.11.8-.26,1.27,3.83-.91.3L253.47,70a14.28,14.28,0,0,1-1.11-1.13h0c.2.5.39,1,.6,1.66l.38,1.15Z"/><rect class="b" x="107.77" y="76.91" width="41" height="1"/><path class="b" d="M191.37,204.07H159a.59.59,0,0,0,0,1.19h32.37Z"/><path class="b" d="M212.43,204.07H199.37v1.19h13.06a.59.59,0,0,0,0-1.19Z"/><path class="b" d="M279.16,166.92h-.05a12.26,12.26,0,1,1,.05,0Zm.06-23.06a10.87,10.87,0,0,0-10.88,10.79,10.82,10.82,0,0,0,10.78,10.87l0,.7v-.7A10.86,10.86,0,0,0,290,154.74a10.82,10.82,0,0,0-10.78-10.87Z"/><path class="b" d="M272.88,172.52a1.05,1.05,0,0,1-.38-.07,19.15,19.15,0,0,1-11.86-20.7,19,19,0,0,1,14.61-15.62,1,1,0,1,1,.46,2,16.87,16.87,0,0,0-13,13.9,17,17,0,0,0,10.55,18.42,1,1,0,0,1-.38,2Z"/><path class="b" d="M291.49,99H268.2A2.16,2.16,0,0,1,266,96.85V73.56a2.16,2.16,0,0,1,2.16-2.16h23.3a2.16,2.16,0,0,1,2.16,2.16v23.3A2.16,2.16,0,0,1,291.49,99ZM268.2,72.82a.73.73,0,0,0-.73.73v23.3a.73.73,0,0,0,.73.73h23.3a.73.73,0,0,0,.73-.73V73.56a.73.73,0,0,0-.73-.73Z"/><path class="b" d="M279.85,76.34a8.86,8.86,0,0,0-3.56,17,7.78,7.78,0,0,1,.15-2l1.14-4.83a3.4,3.4,0,0,1-.28-1.4c0-1.31.76-2.29,1.71-2.29a1.19,1.19,0,0,1,1.2,1.33,19.07,19.07,0,0,1-.78,3.14,1.37,1.37,0,0,0,1.4,1.71c1.68,0,2.81-2.16,2.81-4.71,0-1.94-1.31-3.4-3.69-3.4a4.2,4.2,0,0,0-4.36,4.24,2.56,2.56,0,0,0,.58,1.74.43.43,0,0,1,.13.49l-.18.71a.31.31,0,0,1-.44.22,3.41,3.41,0,0,1-1.81-3.38c0-2.52,2.12-5.53,6.33-5.53a5.3,5.3,0,0,1,5.61,5.08c0,3.48-1.93,6.07-4.78,6.07a2.54,2.54,0,0,1-2.16-1.1s-.51,2-.62,2.44a7.42,7.42,0,0,1-.89,1.9,8.86,8.86,0,1,0,2.51-17.36Z"/><path class="b" d="M31.19,291.82a1.17,1.17,0,0,1-.68-.22l-8.25-5.93H17.12A1.16,1.16,0,0,1,16,284.51v-7.91a4.54,4.54,0,0,0-4.54-4.54H3.11a1.16,1.16,0,0,1-1.16-1.16V269a5,5,0,0,1,5-5H27.4a5,5,0,0,1,5,5v21.67a1.16,1.16,0,0,1-1.16,1.16Zm-12.91-8.47h4.36a1.16,1.16,0,0,1,.68.22L30,288.38V269a2.63,2.63,0,0,0-2.63-2.63H6.91A2.63,2.63,0,0,0,4.28,269v.74h7.14a6.87,6.87,0,0,1,6.86,6.86Z"/><path class="b" d="M6.54,308.61a1.28,1.28,0,0,1-1-.44l-7.15-8.3h-14.5a7,7,0,0,1-7-7v-16.3a7,7,0,0,1,7-7H11.42a7,7,0,0,1,7,7v16.3a7,7,0,0,1-7,7H8.86l-1.05,7.64a1.28,1.28,0,0,1-1.27,1.1Zm-22.62-36.44a4.42,4.42,0,0,0-4.42,4.42v16.3a4.42,4.42,0,0,0,4.42,4.42H-1a1.28,1.28,0,0,1,1,.44l5.69,6.6.82-5.94a1.28,1.28,0,0,1,1.27-1.1h3.67a4.42,4.42,0,0,0,4.42-4.42v-16.3a4.42,4.42,0,0,0-4.42-4.42Z"/><path class="b" d="M39.57,314.31l-.28-2a49.18,49.18,0,0,1,10.05-.41c1.86.07,4,.14,6.91.12,2.37,0,6.67-.82,8.12-2.94a2.86,2.86,0,0,0,.19-2.8,1,1,0,0,1,.68-1.33A2.56,2.56,0,0,0,67,303a1.62,1.62,0,0,0-.68-1.69,1,1,0,0,1,.34-1.81A2.13,2.13,0,0,0,68,297.24c0-.88-.37-1.65-.82-1.76a1,1,0,0,1-.1-1.94,1.59,1.59,0,0,0,1.07-1.06,2.09,2.09,0,0,0-.25-1.75c-1.33-1.84-6.41-1.33-8.85-1.09-1.72.17-2.88-.17-3.54-1-1.07-1.42-.23-3.5.5-5.33.17-.43.33-.83.45-1.19,1.05-3.17.62-6-.33-7a1.54,1.54,0,0,0-1.66-.39c-.33.17-.81,1.76-1.13,2.81-.78,2.59-1.85,6.13-4.73,8.8A20.08,20.08,0,0,0,46,290.77c-1.29,2.57-2.63,5.22-4.16,6.31a9.73,9.73,0,0,1-1.64.93l-.83-1.84a7.77,7.77,0,0,0,1.3-.73c1.12-.8,2.4-3.34,3.53-5.58a20,20,0,0,1,3.07-5c2.47-2.29,3.41-5.4,4.16-7.9.67-2.2,1.14-3.79,2.54-4.18a3.55,3.55,0,0,1,3.66,1c1.66,1.76,2,5.38.78,9-.13.4-.31.84-.49,1.31-.4,1-1.14,2.86-.76,3.37.14.18.66.34,1.71.24,3.25-.32,8.68-.86,10.7,1.92a4.12,4.12,0,0,1,.54,3.55,3.59,3.59,0,0,1-.88,1.46,4.46,4.46,0,0,1,.83,2.67,4.37,4.37,0,0,1-1.51,3.53,3.7,3.7,0,0,1,.46,2.57,4.61,4.61,0,0,1-2.27,3.19,4.67,4.67,0,0,1-.7,3.72c-2.05,3-7.29,3.8-9.78,3.82-3,0-5.12-.06-7-.13A46.67,46.67,0,0,0,39.57,314.31Z"/><path class="b" d="M110.52,265.27H88.67a.75.75,0,1,1,0-1.5h21.85a.75.75,0,0,1,0,1.5Z"/><path class="b" d="M110.52,268.37H88.67a.75.75,0,1,1,0-1.5h21.85a.75.75,0,0,1,0,1.5Z"/><path class="b" d="M110.52,271.48H88.67a.75.75,0,0,1,0-1.5h21.85a.75.75,0,0,1,0,1.5Z"/><rect class="b" x="85.91" y="230.16" width="27.36" height="3.9"/><polygon class="c" points="99.76 256.66 99.76 240.88 87.78 240.88 87.78 260.03 111.4 260.03 111.4 256.66 99.76 256.66"/><path class="b" d="M117.47,255.66H100.76V238.51h21.62v12.24l2,.67v-13.9a1,1,0,0,0-1-1H99.76a1,1,0,0,0-1,1v19.15a1,1,0,0,0,1,1h18.38Z"/><path class="b" d="M118,257.13v16.78a1.37,1.37,0,0,1-1.37,1.37h-34a1.37,1.37,0,0,1-1.37-1.37v-46a1.37,1.37,0,0,1,1.37-1.37h34a1.37,1.37,0,0,1,1.37,1.37v9.64h2v-9.64a3.37,3.37,0,0,0-3.37-3.37h-34a3.37,3.37,0,0,0-3.37,3.37v46a3.37,3.37,0,0,0,3.37,3.37h34a3.37,3.37,0,0,0,3.37-3.37V263.13Z"/><path class="b" d="M128,266.15a1.12,1.12,0,0,1-.79-.33l-3.31-3.31-2.74,2.74a1.12,1.12,0,0,1-1.86-.44L114,248.65a1.12,1.12,0,0,1,1.42-1.42l16.16,5.39a1.12,1.12,0,0,1,.44,1.86l-2.74,2.74,3.31,3.31a1.12,1.12,0,0,1,0,1.59l-3.71,3.71A1.12,1.12,0,0,1,128,266.15Zm-4.11-6.35h0a1.12,1.12,0,0,1,.79.33l3.31,3.31,2.12-2.12L126.85,258a1.12,1.12,0,0,1,0-1.59l2.25-2.25-12.3-4.1,4.1,12.3,2.25-2.25A1.12,1.12,0,0,1,123.93,259.8Z"/><path class="b" d="M65.59,232l-6.49-6.48a.77.77,0,0,0-.54-.23h0a.77.77,0,0,0-.54.23L40.37,243.21a.77.77,0,0,0-.19.31l-3.06,9.74a.77.77,0,0,0,1,1L47.66,251a.78.78,0,0,0,.3-.19L65.59,233.1A.77.77,0,0,0,65.59,232ZM47,249.57l-4.89,1.66L40,249.15l1.57-5,17-17,5.4,5.4Z"/><line class="b" x1="45.14" y1="246.02" x2="49.63" y2="241.51"/><path class="b" d="M45.14,246.79a.77.77,0,0,1-.55-1.31L49.09,241a.77.77,0,1,1,1.09,1.09l-4.49,4.51A.77.77,0,0,1,45.14,246.79Z"/><path class="b" d="M47.59,250.06a3,3,0,0,0-3.33-3.24,3.07,3.07,0,0,0-.84-2.42,3,3,0,0,0-2.45-.87"/><path class="b" d="M48.35,250.12,46.82,250a2.25,2.25,0,0,0-2.48-2.41.77.77,0,0,1-.85-.83,2.29,2.29,0,0,0-.61-1.81,2.23,2.23,0,0,0-1.83-.64l-.16-1.53A3.77,3.77,0,0,1,44,243.86a3.72,3.72,0,0,1,1,2.2,3.79,3.79,0,0,1,3.35,4.06Z"/><line class="b" x1="58" y1="239.62" x2="51.5" y2="233.14"/><polygon class="b" points="57.45 240.16 50.96 233.68 52.05 232.59 58.54 239.07 57.45 240.16"/><line class="b" x1="60.52" y1="237.09" x2="54.02" y2="230.61"/><polygon class="b" points="59.97 237.64 53.48 231.16 54.56 230.07 61.06 236.55 59.97 237.64"/><path class="b" d="M68.19,218.52H32a3.35,3.35,0,0,0-3.35,3.35V258A3.35,3.35,0,0,0,32,261.35H68.19A3.35,3.35,0,0,0,71.53,258V221.87A3.35,3.35,0,0,0,68.19,218.52ZM30.91,258V231.9l11-11.17H68.19a1.14,1.14,0,0,1,1.14,1.14v26.32l-10.8,11H32A1.14,1.14,0,0,1,30.91,258Z"/><rect class="b" x="-0.86" y="206.59" width="4.83" height="2.28"/><path class="b" d="M13,206.59H8.34v2.28h3.49V247h-39V208.87h3.49v-2.28h-4.63a1.14,1.14,0,0,0-1.14,1.14v40.37a1.14,1.14,0,0,0,1.14,1.14H13a1.14,1.14,0,0,0,1.14-1.14V207.73A1.14,1.14,0,0,0,13,206.59Z"/><path class="b" d="M8.34,212.18H4a.76.76,0,0,1-.76-.76v-7.75a.76.76,0,0,1,.76-.76H8.34a.76.76,0,0,1,.76.76v7.75A.76.76,0,0,1,8.34,212.18Zm-3.62-1.52H7.58v-6.23H4.73Z"/><rect class="b" x="3.13" y="220.78" width="4.17" height="4.17" rx="0.76" ry="0.76"/><rect class="b" x="-3.3" y="220.78" width="4.17" height="4.17" rx="0.76" ry="0.76"/><rect class="b" x="3.13" y="226.76" width="4.17" height="4.17" rx="0.76" ry="0.76"/><rect class="b" x="-3.3" y="226.76" width="4.17" height="4.17" rx="0.76" ry="0.76"/><rect class="b" x="3.13" y="232.73" width="4.17" height="4.17" rx="0.76" ry="0.76"/><rect class="b" x="-3.3" y="232.73" width="4.17" height="4.17" rx="0.76" ry="0.76"/><rect class="b" x="-3.3" y="238.71" width="4.17" height="4.17" rx="0.76" ry="0.76"/><path class="b" d="M11.2,256.7H1.87a.5.5,0,0,1,0-1H11.2a.5.5,0,0,1,0,1Zm-13.07,0H-6.53a.5.5,0,0,1-.5-.5.5.5,0,0,1,.5-.5h4.67a.5.5,0,0,1,.5.5A.5.5,0,0,1-1.87,256.7Z"/><path class="b" d="M21.17,256.7h-2.5a.5.5,0,0,1,0-1h2.5a.5.5,0,0,1,0,1Z"/><path class="b" d="M126.18,208.71a.46.46,0,0,1-.46-.46v-2.13a.46.46,0,0,1,.92,0v2.13A.46.46,0,0,1,126.18,208.71Z"/><path class="b" d="M126.18,215.6a.46.46,0,0,1-.46-.46v-5a.46.46,0,0,1,.92,0v5A.46.46,0,0,1,126.18,215.6Z"/><path class="b" d="M126.18,229.6a.46.46,0,0,1-.46-.46v-1.63a.46.46,0,0,1,.92,0v1.63A.46.46,0,0,1,126.18,229.6Zm0-5.65a.46.46,0,0,1-.46-.46v-5a.46.46,0,0,1,.92,0v5A.46.46,0,0,1,126.18,224Z"/><path class="b" d="M126.18,233.59a.46.46,0,0,1-.46-.46V231a.46.46,0,0,1,.92,0v2.13A.46.46,0,0,1,126.18,233.59Z"/><circle class="b" cx="87.78" cy="216.12" r="2.35"/><path class="b" d="M87.78,219a2.85,2.85,0,1,1,2.85-2.85A2.85,2.85,0,0,1,87.78,219Zm0-4.69a1.85,1.85,0,1,0,1.85,1.85A1.85,1.85,0,0,0,87.78,214.27Z"/><path class="b" d="M67.8,269.77a2.91,2.91,0,1,1,2.91-2.91A2.91,2.91,0,0,1,67.8,269.77Zm0-4.79a1.89,1.89,0,1,0,1.89,1.89A1.89,1.89,0,0,0,67.8,265Z"/><path class="b" d="M21.16,229.73a.54.54,0,0,1-.25-.06l-2-1.18a.51.51,0,0,1-.26-.45V225.7a.51.51,0,0,1,.26-.44l2-1.17a.52.52,0,0,1,.51,0l2,1.18a.51.51,0,0,1,.26.44v2.35a.52.52,0,0,1-.25.44l-2,1.17A.58.58,0,0,1,21.16,229.73Zm-1.52-2,1.52.88,1.53-.88V226l-1.53-.88-1.52.87Z"/><path class="b" d="M42.61,275.35l-3.68-1.86,1.86-3.68,3.68,1.86ZM40.27,273l1.9,1,1-1.9-1.9-1Z"/><polygon class="b" points="38.44 274.58 37.33 274.01 37.89 272.9 38.34 273.12 38 273.79 38.67 274.13 38.44 274.58"/><polygon class="b" points="38.94 271.93 38.49 271.71 39.09 270.51 39.54 270.74 38.94 271.93"/><polygon class="b" points="40.14 269.55 39.69 269.32 40.26 268.21 41.37 268.77 41.15 269.22 40.48 268.88 40.14 269.55"/><polygon class="b" points="43.53 270.42 42.34 269.82 42.56 269.37 43.76 269.97 43.53 270.42"/><polygon class="b" points="45.5 272.25 45.06 272.03 45.39 271.36 44.72 271.02 44.95 270.57 46.07 271.14 45.5 272.25"/><polygon class="b" points="44.3 274.64 43.85 274.41 44.45 273.22 44.9 273.44 44.3 274.64"/><polygon class="b" points="43.13 276.94 42.02 276.38 42.24 275.94 42.91 276.27 43.25 275.6 43.7 275.83 43.13 276.94"/><polygon class="b" points="40.83 275.78 39.63 275.18 39.86 274.73 41.05 275.33 40.83 275.78"/><path class="b" d="M75.09,278.83l-.59-.51-.37-.09,0-.19-.15-.13.25-.29.18-.76.81.19a.7.7,0,0,1,.37,1.14Z"/><path class="b" d="M71.53,283l-1.06-.91.89-1,1.06.91Zm1.78-2.07L72.25,280l.89-1,1.06.91Z"/><path class="b" d="M68.21,282.23l-.44-1.36,1.33-.43.44,1.36Zm-.88-2.73-.44-1.36,1.33-.43.44,1.36Z"/><path class="b" d="M66.45,276.78l-.25-.79a.7.7,0,0,1,.83-.9l.81.19-.17.7.12.37-.22.07-.05.23-.37-.09Z"/><path class="b" d="M72.8,277.92l-1.33-.32.33-1.36,1.33.32Zm-2.65-.64L68.83,277l.33-1.36,1.33.32Z"/><path class="b" d="M73,215.3h0l-2.24-.4a.19.19,0,0,1-.16-.24l.4-2.23a.2.2,0,0,1,.23-.17l2.24.4a.18.18,0,0,1,.13.09.25.25,0,0,1,0,.15l-.4,2.24a.25.25,0,0,1-.09.13A.16.16,0,0,1,73,215.3Zm-2-.78,1.83.33.32-1.83-1.83-.33Z"/><path class="b" d="M113,221.67a10.56,10.56,0,1,1,10.56-10.56A10.57,10.57,0,0,1,113,221.67Zm0-20.12a9.56,9.56,0,1,0,9.56,9.56A9.57,9.57,0,0,0,113,201.55Z"/><path class="b" d="M113,218.25a7.14,7.14,0,0,1-3.85-1.12.13.13,0,0,1,.13-.21,6.87,6.87,0,0,0,4,1.08,6.94,6.94,0,0,0,6.13-4.4.13.13,0,0,1,.16-.07.12.12,0,0,1,.07.16,7.19,7.19,0,0,1-6.35,4.55Z"/><path class="b" d="M113,219a7.86,7.86,0,0,1-5-1.82.13.13,0,0,1,.16-.19,7.64,7.64,0,0,0,12.26-3.9.13.13,0,0,1,.15-.09.13.13,0,0,1,.09.15,7.86,7.86,0,0,1-7.26,5.84Z"/><path class="b" d="M106.58,208.71h0a.12.12,0,0,1-.07-.16A7.18,7.18,0,0,1,117,205.1a.13.13,0,0,1-.13.21,6.93,6.93,0,0,0-10.18,3.32A.13.13,0,0,1,106.58,208.71Z"/><path class="b" d="M105.67,209.24h0a.13.13,0,0,1-.09-.15,7.89,7.89,0,0,1,12.67-4,.13.13,0,0,1-.16.19,7.64,7.64,0,0,0-12.26,3.9A.13.13,0,0,1,105.67,209.24Z"/><path class="b" d="M108.59,214.58a1.89,1.89,0,0,1-2.45-1.35,2,2,0,0,1,1.2-2.63,1.88,1.88,0,0,1,2.46,1.33,1.92,1.92,0,0,1-1.2,2.64Zm-.18-.7c.59-.19.74-.86.49-1.61s-.75-1.17-1.35-1-.74.89-.5,1.61.77,1.17,1.35,1Z"/><path class="b" d="M109.62,210a7.51,7.51,0,0,1,1.14-.47,1.9,1.9,0,0,1,1.27-.08,1.14,1.14,0,0,1,.7.74,1.25,1.25,0,0,1,0,1,1.9,1.9,0,0,1-1.11.82,1.57,1.57,0,0,1-.3.08l.46,1.38-.86.29Zm1.44,1.45a1.36,1.36,0,0,0,.3-.07c.46-.15.67-.48.54-.87s-.43-.48-.87-.34a1.63,1.63,0,0,0-.34.15Z"/><path class="b" d="M115.77,210.33l-1.41.47.3.91,1.57-.52.24.71-2.44.81-1.27-3.83,2.36-.78.24.71-1.49.5.26.8,1.41-.47Z"/><path class="b" d="M116.92,211.74l-1.27-3.83,1-.34,1.26,1.14a12.76,12.76,0,0,1,1.06,1.11h0a16.67,16.67,0,0,1-.6-1.58l-.37-1.11.8-.26,1.27,3.83-.91.3-1.31-1.21a14.28,14.28,0,0,1-1.11-1.13h0c.2.5.39,1,.6,1.66l.38,1.15Z"/><rect class="b" x="-27.83" y="216.69" width="41" height="1"/><path class="b" d="M277.75,308.61a1.28,1.28,0,0,1-1-.44l-7.15-8.3h-14.5a7,7,0,0,1-7-7v-16.3a7,7,0,0,1,7-7h27.49a7,7,0,0,1,7,7v16.3a7,7,0,0,1-7,7h-2.56L279,307.51a1.28,1.28,0,0,1-1.27,1.1Zm-22.62-36.44a4.42,4.42,0,0,0-4.42,4.42v16.3a4.42,4.42,0,0,0,4.42,4.42h15.08a1.28,1.28,0,0,1,1,.44l5.69,6.6.82-5.94a1.28,1.28,0,0,1,1.27-1.1h3.67a4.42,4.42,0,0,0,4.42-4.42v-16.3a4.42,4.42,0,0,0-4.42-4.42Z"/><path class="b" d="M147.54,313.05a1,1,0,0,1-.23-2.07,17,17,0,0,0,2.41-32.34,1,1,0,1,1,.76-2,19.05,19.05,0,0,1-2.7,36.34Z"/><path class="b" d="M137.27,312.3a1.05,1.05,0,0,1-.38-.07A19.15,19.15,0,0,1,125,291.53a19,19,0,0,1,14.61-15.62,1,1,0,1,1,.46,2,16.87,16.87,0,0,0-13,13.9,17,17,0,0,0,10.55,18.42,1,1,0,0,1-.38,2Z"/><polygon class="b" points="138.82 281.93 146.65 276.71 138.22 272.54 138.82 281.93"/><path class="b" d="M155.89,238.78h-23.3a2.16,2.16,0,0,1-2.16-2.16v-23.3a2.16,2.16,0,0,1,2.16-2.16h23.3a2.16,2.16,0,0,1,2.16,2.16v23.3A2.16,2.16,0,0,1,155.89,238.78Zm-23.3-26.19a.73.73,0,0,0-.73.73v23.3a.73.73,0,0,0,.73.73h23.3a.73.73,0,0,0,.73-.73v-23.3a.73.73,0,0,0-.73-.73Z"/><path class="b" d="M144.24,216.12a8.86,8.86,0,0,0-3.56,17,7.78,7.78,0,0,1,.15-2l1.14-4.83a3.4,3.4,0,0,1-.28-1.4c0-1.31.76-2.29,1.71-2.29a1.19,1.19,0,0,1,1.2,1.33,19.07,19.07,0,0,1-.78,3.14,1.37,1.37,0,0,0,1.4,1.71c1.68,0,2.81-2.16,2.81-4.71,0-1.94-1.31-3.4-3.69-3.4a4.2,4.2,0,0,0-4.36,4.24,2.56,2.56,0,0,0,.58,1.74.43.43,0,0,1,.13.49l-.18.71a.31.31,0,0,1-.44.22,3.41,3.41,0,0,1-1.81-3.38c0-2.52,2.12-5.53,6.33-5.53a5.3,5.3,0,0,1,5.61,5.08c0,3.48-1.93,6.07-4.78,6.07a2.54,2.54,0,0,1-2.16-1.1s-.51,2-.62,2.44a7.42,7.42,0,0,1-.89,1.9,8.86,8.86,0,1,0,2.51-17.36Z"/><rect class="b" x="270.34" y="206.59" width="4.83" height="2.28"/><rect class="b" x="251.94" y="206.59" width="4.83" height="2.28"/><rect class="b" x="261.14" y="206.59" width="4.83" height="2.28"/><path class="b" d="M284.18,206.59h-4.63v2.28H283V247h-39V208.87h3.49v-2.28h-4.63a1.14,1.14,0,0,0-1.14,1.14v40.37a1.14,1.14,0,0,0,1.14,1.14h41.25a1.14,1.14,0,0,0,1.14-1.14V207.73A1.14,1.14,0,0,0,284.18,206.59Z"/><path class="b" d="M251.94,212.18h-4.37a.76.76,0,0,1-.76-.76v-7.75a.76.76,0,0,1,.76-.76h4.38a.76.76,0,0,1,.76.76v7.75A.76.76,0,0,1,251.94,212.18Zm-3.62-1.52h2.86v-6.23h-2.86Z"/><path class="b" d="M261.14,212.18h-4.37a.76.76,0,0,1-.76-.76v-7.75a.76.76,0,0,1,.76-.76h4.38a.76.76,0,0,1,.76.76v7.75A.76.76,0,0,1,261.14,212.18Zm-3.62-1.52h2.86v-6.23h-2.86Z"/><path class="b" d="M270.35,212.18H266a.76.76,0,0,1-.76-.76v-7.75a.76.76,0,0,1,.76-.76h4.38a.76.76,0,0,1,.76.76v7.75A.76.76,0,0,1,270.35,212.18Zm-3.62-1.52h2.86v-6.23h-2.86Z"/><rect class="b" x="267.91" y="220.78" width="4.17" height="4.17" rx="0.76" ry="0.76"/><rect class="b" x="261.47" y="220.78" width="4.17" height="4.17" rx="0.76" ry="0.76"/><rect class="b" x="255.04" y="220.78" width="4.17" height="4.17" rx="0.76" ry="0.76"/><rect class="b" x="267.91" y="226.76" width="4.17" height="4.17" rx="0.76" ry="0.76"/><rect class="b" x="261.47" y="226.76" width="4.17" height="4.17" rx="0.76" ry="0.76"/><rect class="b" x="255.04" y="226.76" width="4.17" height="4.17" rx="0.76" ry="0.76"/><rect class="b" x="248.61" y="226.76" width="4.17" height="4.17" rx="0.76" ry="0.76"/><rect class="b" x="267.91" y="232.73" width="4.17" height="4.17" rx="0.76" ry="0.76"/><rect class="b" x="261.47" y="232.73" width="4.17" height="4.17" rx="0.76" ry="0.76"/><rect class="b" x="255.04" y="232.73" width="4.17" height="4.17" rx="0.76" ry="0.76"/><rect class="b" x="248.61" y="232.73" width="4.17" height="4.17" rx="0.76" ry="0.76"/><rect class="b" x="267.91" y="238.71" width="4.17" height="4.17" rx="0.76" ry="0.76"/><rect class="b" x="261.47" y="238.71" width="4.17" height="4.17" rx="0.76" ry="0.76"/><rect class="b" x="255.04" y="238.71" width="4.17" height="4.17" rx="0.76" ry="0.76"/><rect class="b" x="248.61" y="238.71" width="4.17" height="4.17" rx="0.76" ry="0.76"/><rect class="b" x="224.3" y="226.52" width="2.35" height="2.56"/><path class="b" d="M226.65,223.84H224.3v-1.38h-1.38V220.1h2.56a1.18,1.18,0,0,1,1.18,1.18Z"/><path class="b" d="M219.51,222.46H214.4V220.1h5.11Zm-8.52,0h-5.11V220.1H211Zm-8.52,0h-5.11V220.1h5.11Zm-8.52,0h-5.11V220.1H194Zm-8.52,0h-5.11V220.1h5.11Z"/><path class="b" d="M175.54,223.84h-2.35v-2.56a1.18,1.18,0,0,1,1.18-1.18h2.56v2.35h-1.38Z"/><path class="b" d="M175.54,254.06h-2.35v-4.53h2.35Zm0-7.56h-2.35V242h2.35Zm0-7.56h-2.35v-4.53h2.35Zm0-7.56h-2.35v-4.53h2.35Z"/><path class="b" d="M176.92,260.82h-2.56a1.18,1.18,0,0,1-1.18-1.18v-2.56h2.35v1.38h1.38Z"/><rect class="b" x="179.61" y="258.46" width="2.56" height="2.35"/><path class="b" d="M233.27,268.71H182.16a1.28,1.28,0,0,1-1.28-1.28V229.08a1.28,1.28,0,0,1,1.28-1.28h51.11a1.28,1.28,0,0,1,1.28,1.28v38.36A1.28,1.28,0,0,1,233.27,268.71Zm-49.83-2.56H232V230.35H183.44Z"/><path class="b" d="M226.77,261.79H188.66a.85.85,0,0,1-.85-.85V235.57a.85.85,0,0,1,.85-.85h38.12a.85.85,0,0,1,.85.85v25.37A.85.85,0,0,1,226.77,261.79Zm-37.26-1.7h36.41V236.42H189.51Z"/><path class="b" d="M198.28,250.11a5.28,5.28,0,1,1,5.28-5.28A5.28,5.28,0,0,1,198.28,250.11Zm0-8.85a3.58,3.58,0,1,0,3.58,3.58A3.58,3.58,0,0,0,198.28,241.25Z"/><path class="b" d="M221.66,255.27h-15a.85.85,0,0,1-.85-.85v-4.81a8.34,8.34,0,1,1,16.68,0v4.81A.85.85,0,0,1,221.66,255.27Zm-14.12-1.7h13.27v-4a6.63,6.63,0,0,0-13.27,0Z"/><path class="b" d="M229.61,292.68H208.83a2.31,2.31,0,0,1-2.31-2.31v-13a2.31,2.31,0,0,1,2.31-2.31h20.78a2.31,2.31,0,0,1,2.31,2.31v13A2.31,2.31,0,0,1,229.61,292.68Zm-20.78-16.45a1.16,1.16,0,0,0-1.15,1.15v13a1.16,1.16,0,0,0,1.15,1.15h20.78a1.16,1.16,0,0,0,1.15-1.15v-13a1.16,1.16,0,0,0-1.15-1.15Z"/><path class="b" d="M221.43,291.38a7,7,0,1,1,7-7A7,7,0,0,1,221.43,291.38Zm0-12.79a5.82,5.82,0,1,0,5.82,5.82A5.83,5.83,0,0,0,221.43,278.59Z"/><path class="b" d="M210.9,280.85a1.72,1.72,0,1,1,1.72-1.72A1.73,1.73,0,0,1,210.9,280.85Zm0-2.87a1.15,1.15,0,1,0,1.15,1.15A1.15,1.15,0,0,0,210.9,278Z"/><path class="b" d="M227.35,275.8H216.24a.29.29,0,0,1-.23-.46l1.53-2a.29.29,0,0,1,.23-.11h8.05a.29.29,0,0,1,.23.11l1.53,2a.29.29,0,0,1-.23.46Zm-10.53-.58h10l-1.09-1.45h-7.77Z"/><path class="b" d="M213.35,275.66h-3.89a.29.29,0,0,1-.29-.29v-1.89a.29.29,0,0,1,.29-.29h3.89a.29.29,0,0,1,.29.29v1.89A.29.29,0,0,1,213.35,275.66Zm-3.6-.58h3.31v-1.31h-3.31Z"/><path class="b" d="M211.4,275.66a.29.29,0,0,1-.29-.29v-.87a.29.29,0,0,1,.58,0v.87A.29.29,0,0,1,211.4,275.66Z"/><path class="b" d="M212.27,275.66a.29.29,0,0,1-.29-.29v-.87a.29.29,0,0,1,.58,0v.87A.29.29,0,0,1,212.27,275.66Z"/><path class="b" d="M210.39,275.66a.29.29,0,0,1-.29-.29v-.87a.29.29,0,0,1,.58,0v.87A.29.29,0,0,1,210.39,275.66Z"/><path class="b" d="M152.72,246.94a10.13,10.13,0,0,0-5.87,18.4.72.72,0,0,1,.25.45v4a.5.5,0,0,0,.19.4,8.28,8.28,0,0,0,2.5,1.3,3.53,3.53,0,0,0,5.86,0,8.26,8.26,0,0,0,2.5-1.3.5.5,0,0,0,.19-.4v-4a.72.72,0,0,1,.25-.46,10.13,10.13,0,0,0-5.88-18.4Zm3.41,22.62h-6.63a.3.3,0,0,1,0-.6h6.63a.3.3,0,0,1,0,.6Zm0-1.3h-6.63a.3.3,0,0,1,0-.6h6.63a.3.3,0,0,1,0,.6Zm1-4.91a2.8,2.8,0,0,0-1.14,2.18v.87h-6.62v-.86a2.81,2.81,0,0,0-1.14-2.18,7.68,7.68,0,1,1,8.89,0Z"/><path class="b" d="M154.48,267.31h-1.29v-8.39h-.71v8.39h-1.29v-8.39H150a2.44,2.44,0,1,1,2.44-2.44v1.15h.71v-1.15a2.44,2.44,0,1,1,2.44,2.44h-1.15Zm0-9.68h1.15a1.15,1.15,0,1,0-1.15-1.15Zm-4.44-2.3a1.15,1.15,0,1,0,0,2.3h1.15v-1.15A1.15,1.15,0,0,0,150,255.33Z"/><path class="b" d="M158.12,246.08a.62.62,0,0,1-.56-.89l.69-1.46a.62.62,0,0,1,1.13.53l-.69,1.46A.62.62,0,0,1,158.12,246.08Z"/><path class="b" d="M162.78,249.3a.62.62,0,0,1-.41-1.09l1.22-1.06a.62.62,0,1,1,.82.94l-1.22,1.06A.62.62,0,0,1,162.78,249.3Z"/><path class="b" d="M165.07,254.46a.62.62,0,0,1-.14-1.23l1.4-.33a.62.62,0,0,1,.29,1.21l-1.4.33Z"/><path class="b" d="M166.48,260.39h-.13l-1.4-.3a.62.62,0,1,1,.27-1.22l1.4.3a.62.62,0,0,1-.13,1.23Z"/><path class="b" d="M147.22,246.08a.62.62,0,0,1-.56-.36l-.85-1.79a.62.62,0,0,1,1.13-.53l.85,1.79a.62.62,0,0,1-.56.89Z"/><path class="b" d="M142.71,249.44a.62.62,0,0,1-.39-.13l-1.52-1.2a.62.62,0,1,1,.77-1l1.52,1.2a.62.62,0,0,1-.39,1.11Z"/><path class="b" d="M140.57,254.53l-.14,0-1.71-.4a.62.62,0,1,1,.29-1.21l1.71.4a.62.62,0,0,1-.14,1.23Z"/><path class="b" d="M138.33,260.51a.62.62,0,0,1-.11-1.24l1.61-.29a.62.62,0,1,1,.22,1.23l-1.61.29Z"/><rect class="b" x="152.09" y="241.62" width="1.25" height="3.25" rx="0.62" ry="0.62"/><path class="b" d="M149.23,252.73A.4.4,0,0,1,149,252a6.23,6.23,0,0,1,.9-.58.4.4,0,0,1,.38.71,5.48,5.48,0,0,0-.79.51A.4.4,0,0,1,149.23,252.73Z"/><path class="b" d="M155.31,252.07a.4.4,0,0,1-.17,0,5.47,5.47,0,0,0-1-.36,5.41,5.41,0,0,0-2.53,0,.4.4,0,1,1-.18-.79,6.24,6.24,0,0,1,4,.46.4.4,0,0,1-.17.77Z"/><path class="b" d="M158.13,255a.4.4,0,0,1-.37-.24,5.55,5.55,0,0,0-.45-.82.4.4,0,1,1,.67-.45,6.28,6.28,0,0,1,.52.94.4.4,0,0,1-.37.57Z"/><path class="b" d="M187.69,281.2a3.69,3.69,0,1,1,3.77-3.69A3.74,3.74,0,0,1,187.69,281.2Zm0-6.29a2.59,2.59,0,1,0,2.67,2.59A2.64,2.64,0,0,0,187.69,274.92Z"/><path class="b" d="M179.22,280.55a3.69,3.69,0,1,1,3.53-3.69A3.62,3.62,0,0,1,179.22,280.55Zm0-6.28a2.6,2.6,0,1,0,2.43,2.59A2.52,2.52,0,0,0,179.22,274.27Z"/><path class="b" d="M244.14,256.7h-2.5a.5.5,0,0,1,0-1h2.5a.5.5,0,0,1,0,1Z"/><path class="b" d="M257.21,256.7h-9.33a.5.5,0,0,1,0-1h9.33a.5.5,0,0,1,0,1Z"/><path class="b" d="M282.41,256.7h-9.33a.5.5,0,0,1,0-1h9.33a.5.5,0,0,1,0,1Zm-13.07,0h-4.67a.5.5,0,0,1,0-1h4.67a.5.5,0,0,1,0,1Z"/><circle class="b" cx="265.07" cy="263.77" r="1.58"/><path class="b" d="M167.29,274.85a2.28,2.28,0,1,1,2.28-2.28A2.28,2.28,0,0,1,167.29,274.85Zm0-3.75a1.48,1.48,0,1,0,1.48,1.48A1.48,1.48,0,0,0,167.29,271.1Z"/><path class="b" d="M167.65,186l-.09-.07-.1.05-.1-.2-.38-.27.29-.4a.4.4,0,0,1,.37-.17.42.42,0,0,1,.34.22l.23.44-.41.21Z"/><path class="b" d="M168.94,188.89l-.37-.72.74-.38.37.72Zm-.74-1.44-.37-.72.74-.38.37.72Z"/><path class="b" d="M169.91,190.28h0l-.49,0,0-.43-.1-.2.12-.06v-.14l.23,0,.38-.2.23.44a.42.42,0,0,1-.37.61Z"/><path class="b" d="M168.54,190.18l-.85-.06.06-.83.85.06Zm-1.7-.12L166,190l.06-.83.85.06Z"/><path class="b" d="M165.14,189.94l-.49,0a.42.42,0,0,1-.31-.66l.29-.4.35.25.23,0v.14l.11.08-.13.19Z"/><path class="b" d="M165.77,188.67l-.68-.48.47-.66.68.48Zm.94-1.32-.68-.48.47-.66.68.48Z"/><path class="b" d="M245.37,269.32h-.07a.4.4,0,0,1-.31-.25l-1.88-5.15a.39.39,0,0,1,.42-.53l5.44.68a.41.41,0,0,1,.32.25.41.41,0,0,1-.06.4l-3.55,4.46A.41.41,0,0,1,245.37,269.32Zm-1.29-5.07,1.42,3.86,2.66-3.34Z"/><path class="b" d="M239.07,282.08H239a.49.49,0,0,1-.4-.33l-2.4-6.55a.53.53,0,0,1,.08-.5.51.51,0,0,1,.46-.18l6.92.87a.52.52,0,0,1,.41.32.5.5,0,0,1-.07.5l-4.52,5.69A.53.53,0,0,1,239.07,282.08Zm-1.64-6.46,1.8,4.92,3.4-4.26Z"/><rect class="b" x="243.37" y="216.69" width="41" height="1"/></pattern></defs><title>bg</title><rect class="d" x="0.08" y="0.07" width="336" height="280"/><g class="e"><path class="f" d="M0,0C.17.14,336,.14,336.17,0c-.17.14-.17,280,0,280.14C336,280,.17,280,0,280.14.17,280,.17.14,0,0Z"/></g></svg>