<svg xmlns="http://www.w3.org/2000/svg" viewBox="0 0 206.37 41.25"><defs><style>.a{fill:#2b5e8c;}</style></defs><title>copy</title><path class="a" d="M48.15,2.88V14.16H45.54V2.88h-4V.63H52l.37,2.25Z"/><path class="a" d="M59.38,14.16V8c0-.82-.35-1.39-1.22-1.39A3.16,3.16,0,0,0,56,7.76v6.39H53.65V.37L56,0V5.88a4.46,4.46,0,0,1,3-1.39,2.53,2.53,0,0,1,2.71,2.84v6.82Z"/><path class="a" d="M72,9.88H65.92c.12,1.84,1.1,2.65,2.55,2.65a5.52,5.52,0,0,0,3.25-1.18L72,13.2a6.47,6.47,0,0,1-3.78,1.16c-2.65,0-4.63-1.51-4.63-4.92,0-3.08,1.84-4.94,4.31-4.94C70.75,4.49,72,6.63,72,9.31,72,9.51,72,9.75,72,9.88ZM67.85,6.12c-.94,0-1.71.75-1.88,2.29h3.76C69.57,6.94,69,6.12,67.85,6.12Z"/><path class="a" d="M87.55,14.29l-1.29-3.57H81.13L79.9,14.16H77.33L82.41.57h2.76l5,13.25ZM83.68,3.39,81.84,8.61h3.69Z"/><path class="a" d="M91.83,14.16V.37L94.19,0V14.16Z"/><path class="a" d="M96.77,14.16V.37L99.13,0V14.16Z"/><path class="a" d="M101.34,9.65V7.39h5.1V9.65Z"/><path class="a" d="M108.89,14.16V.63h2.61V14.16Z"/><path class="a" d="M119.92,14.16V8c0-.82-.35-1.39-1.22-1.39a3.16,3.16,0,0,0-2.16,1.2v6.39H114.2V4.69h2L116.41,6a4.58,4.58,0,0,1,3.16-1.53,2.53,2.53,0,0,1,2.71,2.84v6.82Z"/><path class="a" d="M124.35,9.65V7.39h5.1V9.65Z"/><path class="a" d="M137.6,14.41c-3.84,0-6.33-2.82-6.33-7s2.51-7,6.37-7S144,3.2,144,7.37,141.48,14.41,137.6,14.41Zm0-11.88c-2.31,0-3.71,1.9-3.71,4.86s1.39,4.86,3.71,4.86,3.73-1.9,3.73-4.86S139.94,2.53,137.62,2.53Z"/><path class="a" d="M151.79,14.16V8c0-.82-.35-1.39-1.22-1.39a3.16,3.16,0,0,0-2.16,1.2v6.39h-2.35V4.69h2L148.28,6a4.58,4.58,0,0,1,3.16-1.53,2.53,2.53,0,0,1,2.71,2.84v6.82Z"/><path class="a" d="M164.42,9.88h-6.08c.12,1.84,1.1,2.65,2.55,2.65a5.52,5.52,0,0,0,3.25-1.18l.27,1.84a6.47,6.47,0,0,1-3.78,1.16c-2.65,0-4.63-1.51-4.63-4.92,0-3.08,1.84-4.94,4.31-4.94,2.84,0,4.12,2.14,4.12,4.82C164.43,9.51,164.42,9.75,164.42,9.88Zm-4.16-3.76c-.94,0-1.71.75-1.88,2.29h3.76C162,6.94,161.4,6.12,160.26,6.12Z"/><path class="a" d="M0,37.68V24.15H7.86v2.2H2.57v3.18H6.65L7,31.76H2.57v3.73H8.06v2.2Z"/><path class="a" d="M21.15,37.68v-6.2c0-.82-.29-1.39-1.16-1.39a3.13,3.13,0,0,0-2.1,1.18v6.41H15.54v-6.2c0-.82-.31-1.39-1.18-1.39a3.13,3.13,0,0,0-2.1,1.18v6.41H9.92V28.21h2l.22,1.33A4.5,4.5,0,0,1,15.25,28a2.33,2.33,0,0,1,2.43,1.53A4.51,4.51,0,0,1,20.84,28c1.78,0,2.67,1.08,2.67,2.84v6.82Z"/><path class="a" d="M31.36,37.68l-.2-1.24A4.18,4.18,0,0,1,28,37.87a2.48,2.48,0,0,1-2.69-2.63C25.32,33,27.2,32,31,31.58V31.3c0-1-.59-1.41-1.63-1.41a7.78,7.78,0,0,0-3.16.76l-.29-1.88A9.81,9.81,0,0,1,29.71,28c2.45,0,3.67.9,3.67,3.18v6.49ZM31,33c-2.72.33-3.37,1.14-3.37,2a1,1,0,0,0,1.16,1.1,3.15,3.15,0,0,0,2.21-1Z"/><path class="a" d="M37,26.62a1.34,1.34,0,0,1-1.41-1.33,1.4,1.4,0,0,1,2.8,0A1.34,1.34,0,0,1,37,26.62Zm-1.2,11.06V28.21h2.35v9.47Z"/><path class="a" d="M40.75,37.68V23.89l2.35-.37V37.68Z"/><path class="a" d="M62.51,37.68l-.72-9.88-3.41,9.92H56.1l-3.43-9.92L52,37.68H49.65l1-13.53H54l3.43,10.22,3.41-10.22h3.24l1,13.53Z"/><path class="a" d="M72.83,37.68l-.2-1.24a4.18,4.18,0,0,1-3.16,1.43,2.48,2.48,0,0,1-2.69-2.63c0-2.29,1.88-3.29,5.71-3.67V31.3c0-1-.59-1.41-1.63-1.41a7.78,7.78,0,0,0-3.16.76l-.29-1.88A9.81,9.81,0,0,1,71.19,28c2.45,0,3.67.9,3.67,3.18v6.49ZM72.5,33c-2.72.33-3.37,1.14-3.37,2a1,1,0,0,0,1.16,1.1,3.15,3.15,0,0,0,2.21-1Z"/><path class="a" d="M79.54,32.25v5.43H77.18V28.21h2l.29,1.9a3.69,3.69,0,0,1,3-2.1l.37,2.33A4.35,4.35,0,0,0,79.54,32.25Z"/><path class="a" d="M90.2,37.81,86.73,33v4.69H84.38V23.89l2.35-.37v8.61l3.1-3.92h2.65L89,32.44l3.71,5Z"/><path class="a" d="M101.51,33.4H95.43C95.55,35.25,96.53,36,98,36a5.52,5.52,0,0,0,3.25-1.18l.27,1.84a6.47,6.47,0,0,1-3.78,1.16c-2.65,0-4.63-1.51-4.63-4.92,0-3.08,1.84-4.94,4.31-4.94,2.84,0,4.12,2.14,4.12,4.82C101.53,33,101.51,33.27,101.51,33.4Zm-4.16-3.76c-.94,0-1.71.75-1.88,2.29h3.76C99.08,30.46,98.49,29.64,97.35,29.64Z"/><path class="a" d="M107,37.83c-1.86,0-3.12-.69-3.12-2.84V30.13h-1.33V28.21h1.33v-3l2.31-.35v3.35h1.94l.29,1.92h-2.24V34.6c0,.77.35,1.18,1.25,1.18a2.89,2.89,0,0,0,.75-.08l.29,2A6.6,6.6,0,0,1,107,37.83Z"/><path class="a" d="M111.58,26.62a1.34,1.34,0,0,1-1.41-1.33,1.4,1.4,0,0,1,2.8,0A1.34,1.34,0,0,1,111.58,26.62Zm-1.2,11.06V28.21h2.35v9.47Z"/><path class="a" d="M121,37.68v-6.2c0-.82-.35-1.39-1.22-1.39a3.16,3.16,0,0,0-2.16,1.2v6.39h-2.35V28.21h2l.22,1.33A4.58,4.58,0,0,1,120.6,28a2.53,2.53,0,0,1,2.71,2.84v6.82Z"/><path class="a" d="M134.1,28.07l.31,1.88-1.73.12a2.9,2.9,0,0,1,.25,1.24c0,2-1.75,3.25-3.78,3.25a4.68,4.68,0,0,1-.76-.06c-.24.18-.39.35-.39.51,0,.31.29.39,1.76.61l1.22.12c1.94.27,3.16.88,3.16,2.33,0,2-2.24,3.18-5,3.18-2.57,0-4.51-.78-4.51-2.35,0-.88.61-1.57,1.78-2.24a1.29,1.29,0,0,1-.55-1c0-.53.41-1,1.2-1.51a3,3,0,0,1-1.78-2.76c0-2.06,1.69-3.35,3.8-3.35a4.13,4.13,0,0,1,2.69.88Zm-7.41,10.57c0,.71.84,1.22,2.63,1.22s2.65-.57,2.65-1.27c0-.51-.41-.8-1.59-1l-1.27-.16a14,14,0,0,1-1.41-.24C127,37.7,126.69,38.15,126.69,38.64Zm2.43-9.12a1.66,1.66,0,0,0-1.65,1.84,1.61,1.61,0,0,0,1.65,1.73,1.64,1.64,0,0,0,1.67-1.78A1.66,1.66,0,0,0,129.12,29.52Z"/><path class="a" d="M143.94,37.83a9.8,9.8,0,0,1-4.25-.94l.39-2.37a8.06,8.06,0,0,0,3.9,1.2c1.2,0,2-.57,2-1.65s-.47-1.41-2.43-2.25c-2.63-1.08-3.69-1.94-3.69-4,0-2.39,1.84-3.78,4.37-3.78a7.27,7.27,0,0,1,3.57.82l-.39,2.35a6,6,0,0,0-3.2-1.06c-1.29,0-1.86.63-1.86,1.45s.43,1.27,2.31,2.06c2.78,1.14,3.8,2.1,3.8,4.2C148.49,36.46,146.55,37.83,143.94,37.83Z"/><path class="a" d="M154.41,37.87C151.84,37.87,150,36,150,33S151.86,28,154.43,28s4.47,1.86,4.47,4.94S157,37.87,154.41,37.87Zm0-7.92c-1.39,0-2.14,1.24-2.14,3s.76,3,2.14,3,2.2-1.24,2.2-3S155.82,30,154.41,30Z"/><path class="a" d="M160.89,37.68V23.89l2.35-.37V37.68Z"/><path class="a" d="M171.77,37.68l-.22-1.33a4.63,4.63,0,0,1-3.16,1.53c-1.78,0-2.71-1.08-2.71-2.86v-6.8H168v6.2c0,.82.35,1.37,1.2,1.37a3.24,3.24,0,0,0,2.18-1.18V28.21h2.35v9.47Z"/><path class="a" d="M179.77,37.83c-1.86,0-3.12-.69-3.12-2.84V30.13h-1.33V28.21h1.33v-3l2.31-.35v3.35h1.94l.29,1.92H179V34.6c0,.77.35,1.18,1.25,1.18a2.89,2.89,0,0,0,.75-.08l.29,2A6.6,6.6,0,0,1,179.77,37.83Z"/><path class="a" d="M184.32,26.62a1.34,1.34,0,0,1-1.41-1.33,1.4,1.4,0,0,1,2.8,0A1.34,1.34,0,0,1,184.32,26.62Zm-1.2,11.06V28.21h2.35v9.47Z"/><path class="a" d="M191.9,37.87c-2.57,0-4.43-1.84-4.43-4.92S189.35,28,191.92,28s4.47,1.86,4.47,4.94S194.49,37.87,191.9,37.87Zm0-7.92c-1.39,0-2.14,1.24-2.14,3s.76,3,2.14,3,2.2-1.24,2.2-3S193.31,30,191.9,30Z"/><path class="a" d="M204,37.68v-6.2c0-.82-.35-1.39-1.22-1.39a3.16,3.16,0,0,0-2.16,1.2v6.39h-2.35V28.21h2l.22,1.33A4.58,4.58,0,0,1,203.66,28a2.53,2.53,0,0,1,2.71,2.84v6.82Z"/></svg>