<svg xmlns="http://www.w3.org/2000/svg" viewBox="0 0 46.33 9.6"><defs><style>.a{fill:#2b5e8c;}</style></defs><title>create-copy</title><path class="a" d="M4.5,9.6C1.69,9.6,0,7.72,0,4.81S1.8,0,4.44,0A5.18,5.18,0,0,1,7,.6L6.68,2.67a3.41,3.41,0,0,0-2.07-.75C3.21,1.92,2.3,3,2.3,4.8s1,2.88,2.43,2.88A4.25,4.25,0,0,0,6.84,7l.3,1.88A5.32,5.32,0,0,1,4.5,9.6Z"/><path class="a" d="M15.77,9.14l-2.35.39-2-3.28h-.63V9.44H8.47V.16h3.24c2.25,0,3.56,1,3.56,2.93a2.69,2.69,0,0,1-1.72,2.63ZM11.48,1.89h-.74V4.6h.71c1,0,1.56-.48,1.56-1.37S12.47,1.89,11.48,1.89Z"/><path class="a" d="M16.73,9.44V.16h5.78V2H19V3.7h2.69l.3,1.9H19v2h3.64V9.44Z"/><path class="a" d="M30,9.53l-.7-2H26.14L25.5,9.44H23.25L26.58.12h2.53l3.23,9Zm-2.3-7-1,3.23h2.1Z"/><path class="a" d="M36.61,2.11V9.44H34.3V2.11H31.73V.16h7.34l.32,1.95Z"/><path class="a" d="M40.43,9.44V.16h5.78V2H42.69V3.7h2.69l.3,1.9h-3v2h3.64V9.44Z"/></svg>