<svg xmlns="http://www.w3.org/2000/svg" viewBox="0 0 75.86 75.86"><defs><style>.a{fill:#fff;}.b{fill:#61a7d5;}.c{fill:#a8cee8;}.d{fill:#fdfdfc;}.e{fill:#55a1d2;}.f{fill:#bedeee;}.g{fill:#fcdbd1;}.h{fill:#f0f3c9;}.i{fill:#b3f0f5;}.j{fill:#d1eef0;}.k{fill:#fbccbf;}.l{fill:#fde8cd;}.m{fill:#fcd6cb;}.n{fill:#efefec;}.o{fill:#5babd6;}</style></defs><title>create</title><circle class="a" cx="37.93" cy="37.93" r="37.93"/><path class="b" d="M37.93,2.72A35.21,35.21,0,1,1,2.72,37.93,35.25,35.25,0,0,1,37.93,2.72m0-2.72A37.93,37.93,0,1,0,75.86,37.93,37.93,37.93,0,0,0,37.93,0Z"/><path class="a" d="M53.23,25.8V20.56a.9.9,0,0,0-.9-.89H22.28a.9.9,0,0,0-.9.89V25.8"/><polyline class="a" points="21.37 56.21 21.37 25.9 53.23 25.9 53.23 56.21"/><path class="c" d="M52.28,28.35V20.56a.9.9,0,0,0-.9-.89H21.32a.9.9,0,0,0-.9.89v7.79Z"/><rect class="d" x="20.42" y="28.45" width="31.86" height="27.76"/><path class="e" d="M53.41,56.81a.34.34,0,0,1-.34-.34V28.69H21.66V56.47a.34.34,0,1,1-.68,0V28.35a.34.34,0,0,1,.34-.34h32.1a.34.34,0,0,1,.34.34V56.47A.34.34,0,0,1,53.41,56.81Z"/><path class="e" d="M53.41,28.69a.34.34,0,0,1-.34-.34v-8a.58.58,0,0,0-.57-.6H22.23a.58.58,0,0,0-.57.6v8a.34.34,0,0,1-.68,0v-8A1.26,1.26,0,0,1,22.23,19H52.51a1.26,1.26,0,0,1,1.25,1.28v8A.34.34,0,0,1,53.41,28.69Z"/><rect class="f" x="26.72" y="51.3" width="14.82" height="2.38"/><path class="e" d="M54.31,56.7H19.71a.34.34,0,0,1,0-.68h34.6a.34.34,0,0,1,0,.68Z"/><rect class="a" x="25.18" y="22.37" width="24.24" height="2.75"/><path class="e" d="M50.14,25.49H25.9a.34.34,0,0,1-.34-.34V22.4a.34.34,0,0,1,.34-.34H50.14a.34.34,0,0,1,.34.34v2.75A.34.34,0,0,1,50.14,25.49Zm-23.9-.68H49.8V22.74H26.24Z"/><path class="e" d="M57.17,56.7h-1a.34.34,0,0,1,0-.68h1a.34.34,0,0,1,0,.68Z"/><path class="e" d="M17.91,56.7h-.57a.34.34,0,0,1,0-.68h.57a.34.34,0,1,1,0,.68Z"/><circle class="g" cx="33.02" cy="36.73" r="1.52"/><path class="b" d="M33,38.59a1.87,1.87,0,1,1,1.86-1.86A1.87,1.87,0,0,1,33,38.59Zm0-3.05a1.19,1.19,0,1,0,1.18,1.19A1.19,1.19,0,0,0,33,35.54Z"/><rect class="a" x="26.23" y="31.74" width="21.73" height="15.44"/><rect class="h" x="26.04" y="43.23" width="20.92" height="3.98"/><path class="i" d="M47,31.7H26v4.45a42.26,42.26,0,0,1,20.92,0Z"/><path class="b" d="M48.13,47.42H26.78a.34.34,0,0,1-.34-.34V31.83a.34.34,0,0,1,.34-.34H48.13a.34.34,0,0,1,.34.34V47.08A.34.34,0,0,1,48.13,47.42Zm-21-.68H47.79V32.17H27.12Z"/><polygon class="j" points="37.74 44.6 41.45 38.33 45.17 44.6 37.74 44.6"/><path class="b" d="M45.17,44.94H37.74a.34.34,0,0,1-.29-.51l3.71-6.27a.35.35,0,0,1,.59,0l3.72,6.27a.34.34,0,0,1-.29.51Zm-6.83-.68h6.24L41.45,39Z"/><polygon class="j" points="33.06 44.6 38.07 36.15 43.08 44.6 33.06 44.6"/><polygon class="a" points="36.45 38.85 38.07 41.44 39.69 38.86 38.07 36.15 36.45 38.85"/><path class="b" d="M43.08,44.94h-10a.34.34,0,0,1-.29-.51l5-8.45a.35.35,0,0,1,.59,0l5,8.45a.34.34,0,0,1-.29.51Zm-9.42-.68h8.82l-4.41-7.44Z"/><circle class="k" cx="31.25" cy="35.42" r="1.36"/><polygon class="j" points="29.87 44.6 32.03 40.72 34.2 44.6 29.87 44.6"/><path class="b" d="M34.2,44.94H29.87a.34.34,0,0,1-.3-.51l2.17-3.88a.35.35,0,0,1,.59,0l2.17,3.88a.34.34,0,0,1-.3.51Zm-3.75-.68h3.17L32,41.42Z"/><path class="b" d="M31.91,37.06a1.64,1.64,0,1,1,1.64-1.64A1.65,1.65,0,0,1,31.91,37.06Zm0-2.61a1,1,0,1,0,1,1A1,1,0,0,0,31.91,34.45Z"/><polygon class="a" points="57.15 41.39 46.87 51.71 41.29 53.61 43.08 47.93 53.36 37.61 57.15 41.39"/><path class="l" d="M46.45,50.22a1.15,1.15,0,0,1,.41,1.49l-5.58,1.9,1.79-5.68a1.32,1.32,0,0,1,1.43.28,2.21,2.21,0,0,1,.67,1.41S45.58,49.53,46.45,50.22Z"/><rect class="l" x="51.26" y="38.92" width="5.32" height="3.81" transform="translate(43.57 -26.01) rotate(44.07)"/><polygon class="l" points="44.26 52.66 41.24 53.67 42.24 50.65 44.26 52.66"/><rect class="l" x="42.66" y="40.87" width="14.33" height="5.84" transform="translate(-16.37 48.06) rotate(-45)"/><path class="e" d="M47,51.95h0a.34.34,0,0,1-.31-.37,1.42,1.42,0,0,0-.41-1.12,1.4,1.4,0,0,0-1.16-.41.36.36,0,0,1-.27-.09.34.34,0,0,1-.1-.27,1.45,1.45,0,0,0-.39-1.14,1.42,1.42,0,0,0-1.16-.41.32.32,0,0,1-.37-.3.34.34,0,0,1,.3-.37,2.06,2.06,0,0,1,2.29,1.91,2.1,2.1,0,0,1,1.94,2.26A.34.34,0,0,1,47,51.95Z"/><path class="e" d="M54.51,44.38a.34.34,0,0,1-.24-.1L50.48,40.5A.34.34,0,1,1,51,40l3.79,3.78a.34.34,0,0,1-.24.58Z"/><path class="e" d="M41.29,53.94A.34.34,0,0,1,41,53.5l1.94-6.17a.34.34,0,0,1,.08-.14L54.16,36a.34.34,0,0,1,.24-.1h0a.34.34,0,0,1,.24.1l4.12,4.11a.34.34,0,0,1,0,.48L47.59,51.78a.34.34,0,0,1-.13.08L41.4,53.93Zm2.24-6.33-1.71,5.45,5.35-1.82L58,40.34l-3.63-3.63Z"/><path class="a" d="M46.9,49.93a1.25,1.25,0,0,1,.45,1.61L41.29,53.6l1.94-6.17a1.44,1.44,0,0,1,1.55.3,2.4,2.4,0,0,1,.73,1.53S46,49.18,46.9,49.93Z"/><rect class="a" x="52.12" y="37.65" width="5.78" height="4.13" transform="translate(43.11 -27.08) rotate(44.07)"/><rect class="a" x="49.82" y="40.77" width="5.78" height="2.34" transform="translate(44.01 -24.86) rotate(44.07)"/><rect class="m" x="52.63" y="36.14" width="3.87" height="5.84" transform="translate(-11.64 50.02) rotate(-45)"/><rect class="n" x="51.2" y="38.33" width="2.34" height="5.84" transform="translate(-13.83 49.11) rotate(-45)"/><polygon class="o" points="44.52 52.58 41.24 53.67 42.33 50.39 44.52 52.58"/><path class="e" d="M41.29,53.94A.34.34,0,0,1,41,53.5l1.94-6.17a.34.34,0,0,1,.08-.14L54.16,36a.34.34,0,0,1,.24-.1h0a.34.34,0,0,1,.24.1l4.12,4.11a.34.34,0,0,1,0,.48L47.59,51.78a.34.34,0,0,1-.13.08L41.4,53.93Zm2.24-6.33-1.71,5.45,5.35-1.82L58,40.34l-3.63-3.63Z"/><path class="e" d="M45.69,49.5a.34.34,0,0,1-.24-.58l2.84-2.86a.34.34,0,0,1,.48.48L45.93,49.4A.34.34,0,0,1,45.69,49.5Z"/><path class="e" d="M47.46,51.77h0a.34.34,0,0,1-.31-.37,1.57,1.57,0,0,0-.46-1.24,1.55,1.55,0,0,0-1.28-.45.33.33,0,0,1-.27-.09.34.34,0,0,1-.1-.27,1.6,1.6,0,0,0-.43-1.26,1.54,1.54,0,0,0-1.28-.45.34.34,0,1,1-.07-.68,2.28,2.28,0,0,1,1.83.65A2.22,2.22,0,0,1,45.69,49a2.25,2.25,0,0,1,2.11,2.43A.34.34,0,0,1,47.46,51.77Z"/><path class="e" d="M54.05,45.15a.34.34,0,0,1-.24-.1L49.7,40.95a.34.34,0,0,1,.48-.48l4.12,4.11a.34.34,0,0,1-.24.58Z"/><path class="e" d="M55.65,43.55a.34.34,0,0,1-.24-.1l-4.12-4.11a.34.34,0,1,1,.48-.48L55.89,43a.34.34,0,0,1-.24.58Z"/></svg>