<svg xmlns="http://www.w3.org/2000/svg" viewBox="0 0 336 72"><defs><style>.a{isolation:isolate;}.b{fill:#3c4a57;}.c{fill:#fab21c;}.d{fill:#fff;}.e{fill:#f6b128;}.f{fill:#de9015;}.g{opacity:0.25;mix-blend-mode:multiply;}</style></defs><title>logo</title><g class="a"><polygon class="b" points="0 72 336 72 336 20 0 5 0 72"/><polygon class="c" points="0 0 0 12.41 336 20 0 0"/><path class="d" d="M34.92,43.66a4.22,4.22,0,0,0-3.23-1.32,5.71,5.71,0,0,0-4.35,2,6.94,6.94,0,0,0-1.67,4.61A4.1,4.1,0,0,0,30,53.28a5.75,5.75,0,0,0,4.36-2A6.9,6.9,0,0,0,36,46.72,4.51,4.51,0,0,0,34.92,43.66Zm-4.6,7.41c-1.1,0-1.81-.86-1.81-2.2,0-1.76,1-4.3,2.89-4.3,1.68,0,1.76,1.8,1.76,2.16C33.16,48.77,31.95,51.07,30.32,51.07Z"/><path class="d" d="M25.38,50.69a.17.17,0,0,0-.22-.13,7.51,7.51,0,0,1-2.15.3c-2.42,0-3.8-1.44-3.8-4a6.29,6.29,0,0,1,2-4.76,5.34,5.34,0,0,1,3.47-1.25,5.87,5.87,0,0,1,2.56.48.17.17,0,0,0,.14,0,.17.17,0,0,0,.1-.1l.71-2a.17.17,0,0,0-.07-.2,6.33,6.33,0,0,0-3.16-.68,8.45,8.45,0,0,0-8.69,8.75,6.05,6.05,0,0,0,1.67,4.44,6.2,6.2,0,0,0,4.47,1.64,9.41,9.41,0,0,0,3.73-.66.17.17,0,0,0,.06-.26A4.59,4.59,0,0,1,25.38,50.69Z"/><path class="d" d="M43.14,42.34A4.43,4.43,0,0,0,39.69,44l.14-1.27a.17.17,0,0,0,0-.13.17.17,0,0,0-.13-.06H37.52a.17.17,0,0,0-.17.15l0,.19c-.12.81-.26,1.83-.49,3l-1.31,7a.16.16,0,0,0,0,.14.17.17,0,0,0,.13.06H38.1a.17.17,0,0,0,.17-.14l.87-4.68c.41-2.23,1.74-3.57,2.79-3.57.75,0,1.1.41,1.1,1.29a7.53,7.53,0,0,1-.12,1.18l-1.08,5.72a.16.16,0,0,0,0,.14.17.17,0,0,0,.13.06h2.42a.17.17,0,0,0,.17-.14L45.7,47a9.9,9.9,0,0,0,.19-1.72A2.66,2.66,0,0,0,43.14,42.34Z"/><path class="d" d="M106.53,43.66a4.22,4.22,0,0,0-3.23-1.32,5.72,5.72,0,0,0-4.35,2,7,7,0,0,0-1.67,4.61,4.1,4.1,0,0,0,4.32,4.36,5.75,5.75,0,0,0,4.36-2,6.9,6.9,0,0,0,1.68-4.6A4.52,4.52,0,0,0,106.53,43.66Zm-4.6,7.41c-1.1,0-1.81-.86-1.81-2.2,0-1.76,1-4.3,2.89-4.3,1.68,0,1.76,1.8,1.76,2.16C104.77,48.77,103.55,51.07,101.92,51.07Z"/><path class="d" d="M96.89,50.69a.17.17,0,0,0-.08-.11.16.16,0,0,0-.14,0,7.51,7.51,0,0,1-2.15.3c-2.42,0-3.8-1.44-3.8-4a6.29,6.29,0,0,1,2-4.76,5.34,5.34,0,0,1,3.47-1.25,5.85,5.85,0,0,1,2.56.48.18.18,0,0,0,.14,0,.17.17,0,0,0,.1-.1l.71-2a.17.17,0,0,0-.06-.2,6.34,6.34,0,0,0-3.16-.68,8.45,8.45,0,0,0-8.69,8.75,6.07,6.07,0,0,0,1.67,4.44,6.21,6.21,0,0,0,4.47,1.64,9.4,9.4,0,0,0,3.73-.66.17.17,0,0,0,.07-.26A4.56,4.56,0,0,1,96.89,50.69Z"/><path class="d" d="M114.82,42.34A4.43,4.43,0,0,0,111.37,44l.14-1.27a.17.17,0,0,0,0-.13.18.18,0,0,0-.13-.06H109.2a.17.17,0,0,0-.17.15l0,.19c-.12.81-.26,1.83-.49,3l-1.31,7a.17.17,0,0,0,0,.14.17.17,0,0,0,.13.06h2.42a.17.17,0,0,0,.17-.14l.87-4.68c.41-2.23,1.74-3.57,2.79-3.57.75,0,1.1.41,1.1,1.29a7.42,7.42,0,0,1-.12,1.18l-1.08,5.72a.17.17,0,0,0,0,.14.17.17,0,0,0,.13.06h2.41a.17.17,0,0,0,.17-.14L117.39,47a9.9,9.9,0,0,0,.19-1.72A2.66,2.66,0,0,0,114.82,42.34Z"/><path class="d" d="M68.83,43a.17.17,0,0,0-.11-.2,11,11,0,0,0-3.11-.47,7,7,0,0,0-5.47,2.33,7.6,7.6,0,0,0-1.84,5c0,2.17,1.27,3.63,3.17,3.63a4,4,0,0,0,3.45-2.06c-.06.62-.11,1.2-.13,1.66a.17.17,0,0,0,0,.12.17.17,0,0,0,.12.05h2.25a.17.17,0,0,0,.17-.17v0a23.52,23.52,0,0,1,.41-4.56ZM65,44.56a4.42,4.42,0,0,1,.8.06l-.51,2.5c-.47,2.5-1.79,3.86-2.81,3.86s-1.29-1.1-1.29-1.76C61.16,47,62.78,44.56,65,44.56Z"/><path class="d" d="M75.8,42.34A4.43,4.43,0,0,0,72.35,44l.14-1.27a.17.17,0,0,0-.17-.19H70.18a.17.17,0,0,0-.17.15l0,.17c-.12.82-.26,1.84-.49,3l-1.31,7a.17.17,0,0,0,.17.2h2.41a.17.17,0,0,0,.17-.14l.88-4.68c.41-2.23,1.74-3.57,2.79-3.57.75,0,1.1.41,1.1,1.29a7.62,7.62,0,0,1-.12,1.18l-1.08,5.72a.16.16,0,0,0,0,.14.17.17,0,0,0,.13.06h2.42a.17.17,0,0,0,.17-.14L78.36,47a10.06,10.06,0,0,0,.19-1.72A2.66,2.66,0,0,0,75.8,42.34Z"/><path class="d" d="M141.83,42.75a5.7,5.7,0,0,0-2.13-.41,6.53,6.53,0,0,0-4.76,2,6.77,6.77,0,0,0-1.86,4.71,4,4,0,0,0,4.27,4.23,6.87,6.87,0,0,0,3-.6.17.17,0,0,0,.09-.16l-.08-1.87a.17.17,0,0,0-.08-.14.18.18,0,0,0-.16,0A5,5,0,0,1,138,51a2,2,0,0,1-2.05-2.2c0-2,1.4-4.09,3.66-4.09a3.45,3.45,0,0,1,1.45.3.18.18,0,0,0,.14,0,.17.17,0,0,0,.09-.1l.63-1.89A.17.17,0,0,0,141.83,42.75Z"/><path class="d" d="M53.09,42.89a5.17,5.17,0,0,0-2.48-.54,4.85,4.85,0,0,0-3.06,1,3.2,3.2,0,0,0-1.22,2.53c0,1.11.7,2.05,2.09,2.8,1,.54,1.24.9,1.24,1.41s-.57,1.06-1.39,1.08A5.33,5.33,0,0,1,46,50.48a.18.18,0,0,0-.16,0,.17.17,0,0,0-.1.12l-.36,1.91a.17.17,0,0,0,.09.18,6.13,6.13,0,0,0,2.62.59h0a5.16,5.16,0,0,0,3.17-.94,3.28,3.28,0,0,0,1.31-2.71c0-1.51-1.25-2.36-2.19-2.88s-1.22-.8-1.22-1.24c0-.6.56-1,1.37-1a3.85,3.85,0,0,1,1.81.44.17.17,0,0,0,.24-.09l.62-1.75A.17.17,0,0,0,53.09,42.89Z"/><path class="d" d="M57.7,51a.17.17,0,0,0-.18-.16h-.15c-.5,0-.72-.23-.72-.75a8.29,8.29,0,0,1,.16-1.38l.72-3.62h1.59a.17.17,0,0,0,.16-.12l.65-1.87a.17.17,0,0,0,0-.16.17.17,0,0,0-.14-.07H58l.53-2.74a.17.17,0,0,0-.05-.16.17.17,0,0,0-.16,0l-2.52.73a.17.17,0,0,0-.12.13l-.4,2.08H54a.17.17,0,0,0-.16.11l-.65,1.87a.17.17,0,0,0,.16.23h1.46l-.77,4A8.47,8.47,0,0,0,53.81,51a2.26,2.26,0,0,0,2.58,2.27A5.7,5.7,0,0,0,58,53.07a.18.18,0,0,0,.11-.14v-.06a.17.17,0,0,0,0-.1A3.81,3.81,0,0,1,57.7,51Z"/><path class="d" d="M148.66,43a.17.17,0,0,0-.14-.07h-1.8l.53-2.74a.17.17,0,0,0-.05-.16l0,0a.16.16,0,0,0-.12,0l-2.52.73a.17.17,0,0,0-.12.13L144,42.92h-1.23a.17.17,0,0,0-.16.11l-.65,1.87a.18.18,0,0,0,0,.16.18.18,0,0,0,.14.07h1.46l-.77,4a8.42,8.42,0,0,0-.23,1.91c0,1.1.68,2.27,2.59,2.27h0a5.69,5.69,0,0,0,1.64-.22.17.17,0,0,0,.11-.14l.23-1.91a.17.17,0,0,0-.05-.14.16.16,0,0,0-.15,0,4.92,4.92,0,0,1-.64.06h-.16c-.5,0-.72-.23-.72-.74a8.27,8.27,0,0,1,.16-1.38l.72-3.62h1.58A.17.17,0,0,0,148,45l.65-1.87A.17.17,0,0,0,148.66,43Z"/><path class="d" d="M133.48,43a.17.17,0,0,0-.11-.2,11,11,0,0,0-3.11-.47,7,7,0,0,0-5.47,2.33,7.61,7.61,0,0,0-1.84,5c0,2.17,1.27,3.63,3.17,3.63a4,4,0,0,0,3.45-2.06c-.06.62-.11,1.2-.13,1.66a.17.17,0,0,0,.17.18h2.25a.17.17,0,0,0,.17-.17v0a23.6,23.6,0,0,1,.41-4.56Zm-3.87,1.55a4.42,4.42,0,0,1,.8.06l-.51,2.5c-.46,2.5-1.79,3.86-2.81,3.86s-1.29-1.1-1.29-1.76C125.8,47,127.43,44.56,129.6,44.56Z"/><path class="d" d="M122.15,51a.17.17,0,0,0-.18-.16h-.15c-.5,0-.72-.23-.72-.75a8.38,8.38,0,0,1,.16-1.38l.72-3.62h1.59a.17.17,0,0,0,.16-.12l.65-1.87a.17.17,0,0,0,0-.16.17.17,0,0,0-.14-.07H122.4l.53-2.74a.17.17,0,0,0-.05-.16.17.17,0,0,0-.16,0l-2.52.73a.18.18,0,0,0-.12.13l-.4,2.08H118a.17.17,0,0,0-.15.09.18.18,0,0,0,0,.17,3.26,3.26,0,0,1,.34,1.77.17.17,0,0,0,0,.13.17.17,0,0,0,.13.06h.9l-.76,4a8.38,8.38,0,0,0-.23,1.91,2.26,2.26,0,0,0,2.59,2.27,5.69,5.69,0,0,0,1.64-.22.18.18,0,0,0,.11-.14v-.06a.16.16,0,0,0,0-.1A3.85,3.85,0,0,1,122.15,51Z"/><path class="d" d="M152.75,39.65a1.71,1.71,0,0,1-1.68,1.69,1.68,1.68,0,0,1-1.67-1.69,1.65,1.65,0,0,1,1.67-1.71A1.68,1.68,0,0,1,152.75,39.65Zm-.25,0a1.42,1.42,0,0,0-1.42-1.46,1.45,1.45,0,0,0-1.43,1.43,1.42,1.42,0,0,0,2.85,0Zm-.6.89h-.49l-.36-.77h-.25v.77h-.43V38.68h.72c.35,0,.79.09.79.52a.51.51,0,0,1-.41.51Zm-.46-1.33c0-.22-.2-.28-.45-.28h-.18v.57H151C151.24,39.51,151.43,39.46,151.44,39.22Z"/><path class="d" d="M85.22,43a.17.17,0,0,0-.14-.07H83.27l.53-2.74a.17.17,0,0,0-.22-.2l-2.52.73a.17.17,0,0,0-.12.13l-.4,2.08H78.86a.17.17,0,0,0-.15.26,3.26,3.26,0,0,1,.34,1.77.17.17,0,0,0,.17.18h.9l-.77,4c0,.18-.07.34-.1.5h0A7.87,7.87,0,0,0,79.13,51c0,1.1.68,2.27,2.59,2.27h0a5.68,5.68,0,0,0,1.64-.22.17.17,0,0,0,.11-.14L83.7,51a.17.17,0,0,0-.05-.14.16.16,0,0,0-.15,0,4.93,4.93,0,0,1-.64.06H82.7c-.5,0-.72-.23-.72-.74a8.28,8.28,0,0,1,.16-1.38L82.69,46h0l.16-.83h1.59A.17.17,0,0,0,84.6,45l.65-1.87A.17.17,0,0,0,85.22,43Z"/><path class="d" d="M170.12,46.14a45.62,45.62,0,0,1,4.62-.92c.66-.1,1.34-.18,2-.25A46.39,46.39,0,0,1,178.33,40l-.21,0a47,47,0,0,0-6.28,1.64A46,46,0,0,0,170.12,46.14Z"/><path class="d" d="M164.64,43.93c.67-1.36,1.41-2.7,2.21-4-1.22.7-2.43,1.45-3.61,2.24a47.21,47.21,0,0,0-2.51,4C162,45.38,163.32,44.62,164.64,43.93Z"/><path class="d" d="M169.21,46.38c.46-1.44,1-2.89,1.61-4.3a47.53,47.53,0,0,0-5.59,2.43c-.61,1.26-1.17,2.56-1.66,3.86A42.86,42.86,0,0,1,169.21,46.38Z"/><path class="d" d="M178,39.3l.67-.12A48.14,48.14,0,0,1,181,34.27a51,51,0,0,0-6.17,1.9,48,48,0,0,0-2.51,4.57A47.71,47.71,0,0,1,178,39.3Z"/><path class="d" d="M157.26,51.82c.4-1.06.85-2.12,1.34-3.18-.84.62-1.66,1.28-2.45,1.94-.71,1.15-1.38,2.33-2,3.52C155.17,53.29,156.2,52.53,157.26,51.82Z"/><path class="d" d="M162.57,48.83c.44-1.24.94-2.48,1.5-3.7A47.72,47.72,0,0,0,160,47.68c-.57,1.12-1.09,2.27-1.55,3.41A40.53,40.53,0,0,1,162.57,48.83Z"/><path class="d" d="M177.61,44.88a46,46,0,0,1,7.37,0c.56-2,1.15-3.81,1.8-5.55h-.33a45.15,45.15,0,0,0-7.21.59A45.38,45.38,0,0,0,177.61,44.88Z"/><path class="d" d="M186.45,38.5h.63A41.36,41.36,0,0,1,189.69,33,45,45,0,0,0,182,34a47.83,47.83,0,0,0-2.43,5A45.68,45.68,0,0,1,186.45,38.5Z"/><path class="d" d="M168.72,51.51c.92-.16,1.84-.28,2.75-.38,1.38-.15,2.8-.23,4.22-.26a40.35,40.35,0,0,1,.88-5.09c-.58.06-1.16.14-1.74.22a44.32,44.32,0,0,0-5,1A41.75,41.75,0,0,0,168.72,51.51Z"/><path class="d" d="M155.91,56.08c.25-1,.55-2,.89-3a38.91,38.91,0,0,0-3.46,2.77c-.41.93-.78,1.85-1.11,2.75A31.85,31.85,0,0,1,155.91,56.08Z"/><path class="d" d="M167.88,51.66a41.79,41.79,0,0,1,1-4.37,41.76,41.76,0,0,0-5.73,2.13c-.44,1.28-.82,2.55-1.12,3.8A40.27,40.27,0,0,1,167.88,51.66Z"/><rect class="e" x="236.47" y="32.1" width="83.29" height="25.58" rx="2.56" ry="2.56"/><path class="f" d="M317.2,58.18H239A3.06,3.06,0,0,1,236,55.12V34.66A3.06,3.06,0,0,1,239,31.6H317.2a3.06,3.06,0,0,1,3.06,3.06V55.12A3.06,3.06,0,0,1,317.2,58.18ZM239,32.6A2.06,2.06,0,0,0,237,34.66V55.12A2.06,2.06,0,0,0,239,57.18H317.2a2.06,2.06,0,0,0,2.06-2.06V34.66a2.06,2.06,0,0,0-2.06-2.06Z"/><g class="g"><path d="M246.79,49a6.33,6.33,0,0,1-2.7-.58l.28-1.63a5.47,5.47,0,0,0,2.45.72c.55,0,.93-.24.93-.69s-.22-.64-1.31-1.05c-1.54-.59-2.21-1.1-2.21-2.37,0-1.49,1.16-2.28,2.64-2.28a4.89,4.89,0,0,1,2.33.51l-.29,1.61a4.22,4.22,0,0,0-2-.63c-.58,0-.86.25-.86.6s.21.58,1.17,1c1.68.62,2.35,1.2,2.35,2.43C249.56,48.21,248.33,49,246.79,49Z"/><path d="M250.64,48.86V41.15h1.91v7.72Z"/><path d="M257.53,49c-2.45,0-3.8-1.61-3.8-4a3.69,3.69,0,0,1,3.85-4,4.78,4.78,0,0,1,2.36.57l-.26,1.67a3.81,3.81,0,0,0-2.06-.66c-1.33,0-2,1-2,2.43s.67,2.47,2,2.47a2,2,0,0,0,1-.25V45.85h-1.34l-.22-1.42h3.23v3.76A5.08,5.08,0,0,1,257.53,49Z"/><path d="M266.46,48.86l-3-4.62v4.62h-1.78V41.15h1.86l2.84,4.32V41.15h1.78v7.72Z"/><path d="M275,49a2.91,2.91,0,0,1-3.21-3.18V41.15h1.92V45.8c0,1,.45,1.58,1.31,1.58s1.31-.57,1.31-1.55V41.15h1.92V45.8A3,3,0,0,1,275,49Z"/><path d="M282,46.3h-.49v2.56h-1.91V41.15H282c1.88,0,3,.84,3,2.52S283.83,46.3,282,46.3Zm0-3.71h-.48v2.27h.45c.85,0,1.32-.37,1.32-1.16S282.78,42.59,281.93,42.59Z"/><path d="M290.22,42.74v1.57h2l.27,1.62h-2.28v2.93h-1.9V41.15h4.62v1.6Z"/><path d="M300,48.62l-2,.32-1.69-2.73h-.53v2.65h-1.9V41.15h2.7c1.87,0,3,.85,3,2.44a2.24,2.24,0,0,1-1.43,2.19Zm-3.57-6h-.62v2.25h.59c.82,0,1.3-.4,1.3-1.14S297.28,42.59,296.45,42.59Z"/><path d="M300.82,48.86V41.15h4.81v1.53H302.7v1.41h2.24l.25,1.58H302.7v1.67h3v1.53Z"/><path d="M306.81,48.86V41.15h4.81v1.53h-2.93v1.41h2.24l.25,1.58h-2.48v1.67h3v1.53Z"/></g><path class="d" d="M246.79,48.44a6.33,6.33,0,0,1-2.7-.58l.28-1.63a5.47,5.47,0,0,0,2.45.72c.55,0,.93-.24.93-.69s-.22-.64-1.31-1.05c-1.54-.59-2.21-1.1-2.21-2.37,0-1.49,1.16-2.28,2.64-2.28a4.89,4.89,0,0,1,2.33.51l-.29,1.61a4.22,4.22,0,0,0-2-.63c-.58,0-.86.25-.86.6s.21.58,1.17,1c1.68.62,2.35,1.2,2.35,2.43C249.56,47.7,248.33,48.44,246.79,48.44Z"/><path class="d" d="M250.64,48.35V40.63h1.91v7.72Z"/><path class="d" d="M257.53,48.5c-2.45,0-3.8-1.61-3.8-4a3.69,3.69,0,0,1,3.85-4,4.78,4.78,0,0,1,2.36.57l-.26,1.67a3.81,3.81,0,0,0-2.06-.66c-1.33,0-2,1-2,2.43s.67,2.47,2,2.47a2,2,0,0,0,1-.25V45.34h-1.34l-.22-1.42h3.23v3.76A5.08,5.08,0,0,1,257.53,48.5Z"/><path class="d" d="M266.46,48.35l-3-4.62v4.62h-1.78V40.63h1.86L266.34,45V40.63h1.78v7.72Z"/><path class="d" d="M275,48.47a2.91,2.91,0,0,1-3.21-3.18V40.63h1.92v4.65c0,1,.45,1.58,1.31,1.58s1.31-.57,1.31-1.55V40.63h1.92v4.65A3,3,0,0,1,275,48.47Z"/><path class="d" d="M282,45.79h-.49v2.56h-1.91V40.63H282c1.88,0,3,.84,3,2.52S283.83,45.79,282,45.79Zm0-3.71h-.48v2.27h.45c.85,0,1.32-.37,1.32-1.16S282.78,42.08,281.93,42.08Z"/><path class="d" d="M290.22,42.23V43.8h2l.27,1.62h-2.28v2.93h-1.9V40.63h4.62v1.6Z"/><path class="d" d="M300,48.1l-2,.32-1.69-2.73h-.53v2.65h-1.9V40.63h2.7c1.87,0,3,.85,3,2.44a2.24,2.24,0,0,1-1.43,2.19Zm-3.57-6h-.62v2.25h.59c.82,0,1.3-.4,1.3-1.14S297.28,42.08,296.45,42.08Z"/><path class="d" d="M300.82,48.35V40.63h4.81v1.53H302.7v1.41h2.24l.25,1.58H302.7v1.67h3v1.53Z"/><path class="d" d="M306.81,48.35V40.63h4.81v1.53h-2.93v1.41h2.24l.25,1.58h-2.48v1.67h3v1.53Z"/></g></svg>