<svg xmlns="http://www.w3.org/2000/svg" viewBox="0 0 75.86 75.86"><defs><style>.a{fill:#fff;}.b{fill:#61a7d5;}.c{fill:#fef2d8;}.d{fill:#f79072;}</style></defs><title>send</title><circle class="a" cx="37.93" cy="37.93" r="37.93"/><path class="b" d="M37.93,2.72A35.21,35.21,0,1,1,2.72,37.93,35.25,35.25,0,0,1,37.93,2.72m0-2.72A37.93,37.93,0,1,0,75.86,37.93,37.93,37.93,0,0,0,37.93,0Z"/><path class="c" d="M26.25,39.78l-8.68-5.44a.37.37,0,0,1,.14-.69l41.06-6.13a.37.37,0,0,1,.32.63L39.68,47.85a.37.37,0,0,1-.47.05l-10.05-6.3"/><path class="c" d="M35.4,44.92l-9.28,5.53a.4.4,0,0,1-.61-.35l.17-11.27"/><path class="c" d="M45.74,32.76,26.49,39.69a.37.37,0,0,0-.25.35V47.7l2.86-6a.37.37,0,0,1,.16-.17Z"/><path class="b" d="M37.93,46.87a.34.34,0,0,1-.18-.05L27.44,40.36l.36-.58,10.07,6.31L57.38,26.31,16.13,32.47,24.89,38l-.36.58-9.54-6a.34.34,0,0,1,.13-.63l43.17-6.45a.35.35,0,0,1,.35.18.34.34,0,0,1-.06.39L38.17,46.77A.34.34,0,0,1,37.93,46.87Z"/><path class="b" d="M24,49.59a.34.34,0,0,1-.34-.34l.17-11.19h.68l-.16,10.58L33,43.45l.35.58-9.24,5.5A.34.34,0,0,1,24,49.59Z"/><path class="b" d="M24,49.59H23.9a.34.34,0,0,1-.27-.34l.21-11.34a.34.34,0,0,1,.23-.32l20-6.69a.34.34,0,0,1,.27.62L27.89,40.31l-3.61,9.07A.34.34,0,0,1,24,49.59Zm.55-11.43-.17,9.23,3-7.44a.34.34,0,0,1,.16-.17l13-6.94Z"/><path class="d" d="M40.24,56.47a.33.33,0,0,1,.27-.4h0a.35.35,0,0,1,.4.27h0a.34.34,0,0,1-.27.4h-.07A.34.34,0,0,1,40.24,56.47Zm-3.83,0a.34.34,0,0,1-.23-.42h0a.33.33,0,0,1,.42-.23h0a.33.33,0,0,1,.23.42h0a.32.32,0,0,1-.32.24h-.1Zm7.51-1.7a.34.34,0,0,1,0-.48h0a.33.33,0,0,1,.48,0h0a.34.34,0,0,1,0,.48h0a.33.33,0,0,1-.23.09h0A.36.36,0,0,1,43.92,54.76ZM32.6,54.64h0a.33.33,0,0,1-.08-.47h0A.35.35,0,0,1,33,54.1h0a.35.35,0,0,1,.07.48h0a.35.35,0,0,1-.28.14h0A.31.31,0,0,1,32.6,54.64Zm14.24-2.78a.34.34,0,0,1,0-.48h0a.34.34,0,0,1,.48,0h0a.34.34,0,0,1,0,.48h0a.32.32,0,0,1-.24.1h0A.32.32,0,0,1,46.84,51.86ZM49.75,49a.34.34,0,0,1,0-.48h0a.33.33,0,0,1,.48,0h0a.34.34,0,0,1,0,.48h0a.37.37,0,0,1-.24.1h0A.36.36,0,0,1,49.75,49ZM52.66,46a.34.34,0,0,1,0-.48h0a.34.34,0,0,1,.48,0h0a.36.36,0,0,1,0,.49h0a.36.36,0,0,1-.24.09h0A.36.36,0,0,1,52.66,46Zm2.91-2.92a.34.34,0,0,1,0-.48h0a.34.34,0,0,1,.48,0h0a.34.34,0,0,1,0,.48h0a.33.33,0,0,1-.24.1h0A.33.33,0,0,1,55.57,43.12Zm2.91-2.91a.34.34,0,0,1,0-.48h0a.34.34,0,0,1,.48,0h0a.34.34,0,0,1,0,.48h0a.31.31,0,0,1-.24.1h0A.33.33,0,0,1,58.48,40.22Z"/><polygon class="d" points="59.99 40.62 60.69 38 58.07 38.71 59.99 40.62"/></svg>