<svg xmlns="http://www.w3.org/2000/svg" viewBox="0 0 32.58 9.49"><defs><style>.a{fill:#2b5e8c;}</style></defs><title>send-copy</title><path class="a" d="M3.24,9.49A7.6,7.6,0,0,1,0,8.79l.34-2a6.58,6.58,0,0,0,2.94.86c.66,0,1.12-.28,1.12-.83s-.27-.77-1.57-1.26C1,4.88.16,4.27.16,2.74.16,1,1.56,0,3.33,0a5.9,5.9,0,0,1,2.8.62L5.78,2.55A5.08,5.08,0,0,0,3.36,1.8c-.7,0-1,.3-1,.73s.26.7,1.41,1.14c2,.74,2.82,1.44,2.82,2.92C6.56,8.6,5.08,9.49,3.24,9.49Z"/><path class="a" d="M7.81,9.38V.11h5.78V1.95H10.07V3.64h2.69l.3,1.9h-3v2h3.64V9.38Z"/><path class="a" d="M20.79,9.38,17.14,3.83V9.38H15V.11h2.23L20.64,5.3V.11h2.14V9.38Z"/><path class="a" d="M27.73,9.38H24.47V.11h3.19c3.23,0,4.92,1.87,4.92,4.62S30.86,9.38,27.73,9.38ZM27.61,1.9h-.83v5.7h.83c1.64,0,2.66-.86,2.66-2.85S29.18,1.9,27.61,1.9Z"/></svg>